<svg width="212" height="212" viewBox="0 0 212 212" fill="none" xmlns="http://www.w3.org/2000/svg">
<path d="M32.6038 55.5794C44.997 42.1439 63.7501 35.3334 88.3333 35.3334H97.1666V60.2345L90.0646 61.6567C77.963 64.077 69.5448 68.8382 65.0398 75.8254C62.6892 79.5895 61.356 83.8994 61.1708 88.3334H88.3333C90.676 88.3334 92.9228 89.264 94.5794 90.9206C96.236 92.5772 97.1666 94.824 97.1666 97.1667V159C97.1666 168.743 89.2431 176.667 79.5 176.667H26.5C24.1572 176.667 21.9104 175.736 20.2538 174.079C18.5973 172.423 17.6666 170.176 17.6666 167.833V123.667L17.6931 97.8822C17.6136 96.9017 15.9353 73.67 32.6038 55.5794ZM176.667 176.667H123.667C121.324 176.667 119.077 175.736 117.421 174.079C115.764 172.423 114.833 170.176 114.833 167.833V123.667L114.86 97.8822C114.78 96.9017 113.102 73.67 129.77 55.5794C142.164 42.1439 160.917 35.3334 185.5 35.3334H194.333V60.2345L187.231 61.6567C175.13 64.077 166.711 68.8382 162.206 75.8254C159.856 79.5895 158.523 83.8994 158.337 88.3334H185.5C187.843 88.3334 190.09 89.264 191.746 90.9206C193.403 92.5772 194.333 94.824 194.333 97.1667V159C194.333 168.743 186.41 176.667 176.667 176.667Z" fill="black" fill-opacity="0.21"/>
</svg>
