<svg width="673" height="62" viewBox="0 0 673 62" fill="none" xmlns="http://www.w3.org/2000/svg">
<path d="M0.63687 31.6149C0.63687 29.4497 0.784101 27.3365 1.07856 25.2753C1.37303 23.1967 1.83204 21.1701 2.45561 19.1955C3.07918 17.2208 3.84998 15.3761 4.76802 13.6613C5.68605 11.9465 6.81194 10.3702 8.14569 8.93257C9.47943 7.4949 10.9604 6.26508 12.5886 5.24312C14.2168 4.20383 16.0875 3.39839 18.2007 2.82678C20.3139 2.25518 22.5744 1.96938 24.9821 1.96938C27.4417 1.96938 30.4383 2.25518 33.9719 2.82678C37.8518 3.43303 41.1342 3.73616 43.8191 3.73616L40.5453 21.5858C39.6273 15.9737 38.1983 11.6867 36.2583 8.72471C34.3183 5.74543 32.2224 4.2558 29.9706 4.2558C22.8342 4.2558 19.266 13.3495 19.266 31.537C19.266 34.6721 19.5085 37.5388 19.9935 40.137C20.4958 42.7179 21.2406 44.987 22.228 46.9443C23.2153 48.9016 24.5057 50.4259 26.0993 51.5172C27.7102 52.6084 29.5636 53.154 31.6594 53.154C34.5002 53.154 36.9685 51.8549 39.0643 49.2567C41.1602 46.6585 42.442 43.3155 42.9097 39.2277H43.6891C43.6891 41.6007 43.4553 43.8525 42.9876 45.983C42.5373 48.0962 41.8098 50.0882 40.8051 51.9589C39.8178 53.8122 38.5967 55.4145 37.1417 56.7655C35.6867 58.0993 33.9026 59.1559 31.7894 59.9354C29.6935 60.7148 27.3724 61.1045 24.8262 61.1045C21.4485 61.1045 18.3826 60.5416 15.6285 59.4157C12.8744 58.3071 10.5793 56.8175 8.74327 54.9468C6.92453 53.0588 5.39159 50.8416 4.14445 48.2954C2.89731 45.7318 1.9966 43.0643 1.44231 40.2929C0.905351 37.5215 0.63687 34.6288 0.63687 31.6149ZM66.2775 61.1045C63.4195 61.1045 60.7433 60.6715 58.249 59.8054C55.7721 58.9394 53.6329 57.7615 51.8315 56.2719C50.0474 54.7822 48.5058 53.0588 47.2067 51.1015C45.9076 49.1441 44.9376 47.0483 44.2967 44.8138C43.6731 42.5793 43.3613 40.3102 43.3613 38.0065C43.3613 35.6854 43.6818 33.4077 44.3227 31.1732C44.9809 28.9388 45.9595 26.8429 47.2586 24.8856C48.5577 22.9282 50.108 21.2134 51.9094 19.7411C53.7108 18.2688 55.85 17.1083 58.327 16.2595C60.8039 15.3934 63.4541 14.9604 66.2775 14.9604C69.1009 14.9604 71.7337 15.3934 74.176 16.2595C76.6184 17.1083 78.7229 18.2688 80.4897 19.7411C82.2738 21.2134 83.7981 22.9282 85.0625 24.8856C86.3443 26.8429 87.297 28.9388 87.9205 31.1732C88.5441 33.3903 88.8559 35.6681 88.8559 38.0065C88.8559 40.3276 88.5441 42.5967 87.9205 44.8138C87.3143 47.0309 86.3789 49.1268 85.1145 51.1015C83.85 53.0588 82.3344 54.7822 80.5676 56.2719C78.8008 57.7615 76.6876 58.9394 74.228 59.8054C71.7684 60.6715 69.1182 61.1045 66.2775 61.1045ZM68.7978 20.1308C68.1222 18.1562 67.3081 17.1689 66.3554 17.1689C65.4028 17.1689 64.5454 18.1302 63.7832 20.0529C63.0384 21.9582 62.4754 24.4006 62.0944 27.3798C61.7306 30.3418 61.5488 33.5203 61.5488 36.9152C61.5488 40.7606 61.6787 44.2595 61.9385 47.412C62.2156 50.5645 62.6833 53.2493 63.3415 55.4664C64.0171 57.6836 64.8571 58.7921 65.8618 58.7921C66.8664 58.7921 67.7498 57.7182 68.5119 55.5704C69.2741 53.4225 69.837 50.729 70.2008 47.4899C70.5645 44.2335 70.7464 40.7346 70.7464 36.9932C70.7464 33.5462 70.5905 30.3678 70.2787 27.4578C69.9843 24.5305 69.4906 22.0882 68.7978 20.1308ZM106.828 37.227V59H87.8087C88.7961 57.545 89.5495 54.9035 90.0692 51.0755C90.5888 47.2474 90.8486 42.9084 90.8486 38.0585C90.8486 33.1738 90.5888 28.7742 90.0692 24.8596C89.5495 20.9276 88.7961 18.2341 87.8087 16.7792H106.828V25.7689C108.161 22.2873 110.058 19.5506 112.518 17.5586C114.977 15.5493 117.948 14.5447 121.43 14.5447C123.266 14.5447 124.868 14.7959 126.236 15.2982C127.622 15.8005 128.722 16.45 129.536 17.2468C130.367 18.0436 131.034 19.0309 131.537 20.2088C132.039 21.3866 132.377 22.5558 132.55 23.7164C132.723 24.8769 132.81 26.1587 132.81 27.5617C132.81 29.2765 132.645 31.5976 132.316 34.5249C132.108 36.1878 132.004 37.4609 132.004 38.3443C132.004 42.9864 132.273 47.2301 132.81 51.0755C133.347 54.9208 134.091 57.5623 135.044 59H112.985C113.938 57.5623 114.683 54.9208 115.22 51.0755C115.757 47.2301 116.025 42.9864 116.025 38.3443V37.227C116.025 35.3736 115.939 33.5982 115.765 31.9007C115.592 30.1859 115.35 28.653 115.038 27.3019C114.726 25.9335 114.319 24.8423 113.817 24.0281C113.314 23.214 112.76 22.807 112.154 22.807C111.149 22.807 110.231 23.5085 109.4 24.9115C108.568 26.2972 107.928 28.09 107.477 30.2898C107.044 32.4723 106.828 34.7847 106.828 37.227ZM148.936 52.9462C147.845 54.5397 147.299 55.7522 147.299 56.5837C147.299 57.1899 147.602 57.6749 148.209 58.0387C148.832 58.4024 149.603 58.5843 150.521 58.5843C151.231 58.5843 151.933 58.4717 152.625 58.2465C153.318 58.004 153.968 57.6576 154.574 57.2072C155.198 56.7396 155.7 56.116 156.081 55.3365C156.462 54.5397 156.653 53.639 156.653 52.6344C156.653 51.4046 156.22 50.1401 155.354 48.841C154.487 47.5419 153.266 46.4247 151.69 45.4893L143.22 40.4488C140.847 39.0285 138.872 37.1751 137.296 34.8886C135.737 32.6022 134.958 30.3245 134.958 28.0554C134.958 26.3232 135.339 24.7297 136.101 23.2747C136.88 21.8024 137.92 20.5639 139.219 19.5592C140.535 18.5373 142.059 17.6712 143.792 16.961C145.524 16.2509 147.342 15.7312 149.248 15.4021C151.17 15.073 153.128 14.9084 155.12 14.9084C157.337 14.9084 159.45 15.125 161.459 15.558C163.486 15.9737 165.296 16.58 166.89 17.3767C168.483 18.1562 169.748 19.1695 170.683 20.4166C171.636 21.6638 172.112 23.0581 172.112 24.5998C172.112 26.2626 171.41 27.683 170.007 28.8608C168.604 30.0213 166.76 30.6016 164.473 30.6016C162.291 30.6016 160.559 30.0473 159.277 28.9388C158.012 27.8129 157.38 26.2453 157.38 24.236C157.38 23.6298 157.458 23.1274 157.614 22.729C157.77 22.3133 158.073 21.8543 158.523 21.352C158.956 20.8843 159.173 20.3993 159.173 19.897C159.173 18.9097 158.688 18.1389 157.718 17.5846C156.748 17.013 155.587 16.7272 154.236 16.7272C153.214 16.7272 152.253 16.8831 151.352 17.1949C150.469 17.5066 149.715 18.0176 149.092 18.7278C148.486 19.438 148.183 20.2867 148.183 21.274C148.183 22.3826 148.564 23.5085 149.326 24.6517C150.088 25.7776 151.188 26.7476 152.625 27.5617L163.486 33.6675C164.872 34.447 166.067 35.2178 167.071 35.9799C168.076 36.742 169.046 37.6601 169.981 38.734C170.917 39.7906 171.627 41.0118 172.112 42.3975C172.597 43.7832 172.839 45.3161 172.839 46.9963C172.839 48.8497 172.432 50.5645 171.618 52.1407C170.822 53.717 169.739 55.0507 168.371 56.142C167.02 57.2332 165.435 58.1599 163.616 58.9221C161.814 59.6842 159.918 60.2385 157.926 60.5849C155.934 60.9487 153.899 61.1305 151.82 61.1305C149.534 61.1305 147.351 60.9054 145.273 60.455C143.194 60.0046 141.332 59.3637 139.686 58.5323C138.058 57.7009 136.759 56.6183 135.789 55.2846C134.819 53.9508 134.334 52.4698 134.334 50.8416C134.334 49.7157 134.568 48.7024 135.036 47.8017C135.503 46.8837 136.127 46.1475 136.906 45.5933C137.686 45.039 138.543 44.6233 139.479 44.3461C140.431 44.0517 141.427 43.9044 142.466 43.9044C144.337 43.9044 145.974 44.3461 147.377 45.2295C148.78 46.0956 149.577 47.3254 149.767 48.919C149.819 49.1095 149.845 49.4126 149.845 49.8283C149.845 51.0062 149.542 52.0455 148.936 52.9462ZM191.115 16.7792V38.5521C191.115 40.4055 191.201 42.1896 191.374 43.9044C191.548 45.6019 191.79 47.1349 192.102 48.5032C192.414 49.8543 192.821 50.9369 193.323 51.751C193.825 52.5651 194.38 52.9722 194.986 52.9722C195.991 52.9722 196.909 52.2793 197.74 50.8936C198.572 49.4906 199.204 47.6978 199.637 45.5153C200.087 43.3155 200.312 40.9944 200.312 38.5521V37.7207C200.312 32.8707 200.052 28.5317 199.533 24.7037C199.013 20.8757 198.26 18.2341 197.272 16.7792H216.291V37.4349C216.291 42.3368 216.551 46.7971 217.071 50.8157C217.59 54.8169 218.344 57.545 219.331 59H202.131V47.1522C202.131 46.7018 201.975 46.4766 201.663 46.4766C201.542 46.4766 201.438 46.5373 201.352 46.6585C200.624 49.5339 199.585 52.0455 198.234 54.1933C196.883 56.3238 195.133 58.03 192.985 59.3118C190.838 60.5936 188.413 61.2345 185.71 61.2345C183.874 61.2345 182.263 60.9833 180.878 60.481C179.509 59.9787 178.409 59.3291 177.578 58.5323C176.764 57.7355 176.106 56.7482 175.603 55.5704C175.101 54.3925 174.763 53.2233 174.59 52.0628C174.417 50.9023 174.33 49.6205 174.33 48.2174C174.33 46.5026 174.495 44.1816 174.824 41.2543C175.032 39.5914 175.136 38.3183 175.136 37.4349C175.136 32.7928 174.867 28.549 174.33 24.7037C173.793 20.8583 173.048 18.2168 172.096 16.7792H191.115ZM237.599 0.462417V38.3443C237.599 42.9864 237.868 47.2301 238.405 51.0755C238.942 54.9208 239.686 57.5623 240.639 59H218.58C219.533 57.5623 220.278 54.9208 220.815 51.0755C221.352 47.2301 221.62 42.9864 221.62 38.3443V22.0275C221.62 17.1256 221.36 12.674 220.841 8.67275C220.321 4.65419 219.568 1.91741 218.58 0.462417H237.599ZM277.439 56.8435H277.855C279.466 56.8435 280.999 56.6703 282.454 56.3238C283.909 55.9601 285.312 55.3798 286.663 54.583C288.014 53.7689 289.235 52.7643 290.326 51.5691C291.417 50.3566 292.379 48.8583 293.21 47.0742C294.042 45.2901 294.682 43.2809 295.133 41.0464L297.757 59H258.42C259.373 57.5623 260.118 54.9208 260.655 51.0755C261.192 47.2301 261.46 42.9864 261.46 38.3443V25.2753C261.46 20.3733 261.2 15.9217 260.681 11.9205C260.161 7.90195 259.407 5.16517 258.42 3.71018H297.757L295.133 21.6638C294.682 19.4293 294.042 17.42 293.21 15.6359C292.379 13.8518 291.417 12.3622 290.326 11.167C289.235 9.95453 288.014 8.94989 286.663 8.15311C285.312 7.339 283.909 6.75874 282.454 6.41231C280.999 6.04856 279.466 5.86669 277.855 5.86669H277.439V28.1593C278.998 27.8995 280.462 27.5271 281.83 27.0421C283.198 26.5397 284.359 25.9855 285.312 25.3792C286.282 24.7556 287.139 24.1061 287.884 23.4306C288.646 22.755 289.261 22.0795 289.729 21.404C290.196 20.7284 290.56 20.1222 290.82 19.5852C291.08 19.0309 291.244 18.5373 291.313 18.1042V41.3582C291.158 40.8039 290.906 40.1803 290.56 39.4875C290.231 38.7946 289.694 37.9805 288.949 37.0452C288.222 36.1098 287.364 35.2351 286.377 34.421C285.39 33.6069 284.116 32.8447 282.557 32.1346C280.999 31.4071 279.292 30.8787 277.439 30.5496V56.8435ZM316.582 37.227V59H297.563C298.55 57.545 299.303 54.9035 299.823 51.0755C300.343 47.2474 300.603 42.9084 300.603 38.0585C300.603 33.1738 300.343 28.7742 299.823 24.8596C299.303 20.9276 298.55 18.2341 297.563 16.7792H316.582V25.7689C317.915 22.2873 319.812 19.5506 322.272 17.5586C324.731 15.5493 327.702 14.5447 331.183 14.5447C332.725 14.5447 334.102 14.7266 335.315 15.0903C336.544 15.4367 337.558 15.9044 338.354 16.4933C339.169 17.0823 339.861 17.8098 340.433 18.6758C341.005 19.5246 341.438 20.4166 341.732 21.352C342.027 22.27 342.243 23.2833 342.382 24.3919C343.785 21.3087 345.664 18.901 348.02 17.1689C350.376 15.4194 353.173 14.5447 356.412 14.5447C358.248 14.5447 359.85 14.7959 361.219 15.2982C362.604 15.8005 363.704 16.45 364.518 17.2468C365.35 18.0436 366.017 19.0309 366.519 20.2088C367.021 21.3866 367.359 22.5558 367.532 23.7164C367.706 24.8769 367.792 26.1587 367.792 27.5617C367.792 29.2765 367.628 31.5976 367.299 34.5249C367.091 36.1878 366.987 37.4609 366.987 38.3443C366.987 42.9864 367.255 47.2301 367.792 51.0755C368.329 54.9208 369.074 57.5623 370.027 59H347.968C348.921 57.5623 349.665 54.9208 350.202 51.0755C350.739 47.2301 351.008 42.9864 351.008 38.3443V37.227C351.008 35.3736 350.921 33.5982 350.748 31.9007C350.575 30.1859 350.332 28.653 350.02 27.3019C349.709 25.9335 349.302 24.8423 348.799 24.0281C348.297 23.214 347.743 22.807 347.136 22.807C346.322 22.807 345.586 23.2227 344.928 24.0541C344.27 24.8682 343.75 25.8729 343.369 27.068C342.988 28.2632 342.668 29.6056 342.408 31.0953C342.148 32.5849 341.975 33.9273 341.888 35.1225C341.801 36.3177 341.758 37.3916 341.758 38.3443C341.758 42.9864 342.027 47.2301 342.564 51.0755C343.101 54.9208 343.845 57.5623 344.798 59H322.739C323.692 57.5623 324.437 54.9208 324.974 51.0755C325.511 47.2301 325.779 42.9864 325.779 38.3443V37.227C325.779 35.3736 325.693 33.5982 325.519 31.9007C325.346 30.1859 325.104 28.653 324.792 27.3019C324.48 25.9335 324.073 24.8423 323.571 24.0281C323.068 23.214 322.514 22.807 321.908 22.807C320.903 22.807 319.985 23.5085 319.154 24.9115C318.322 26.2972 317.681 28.09 317.231 30.2898C316.798 32.4723 316.582 34.7847 316.582 37.227ZM388.55 37.227V59H369.531C370.519 57.545 371.272 54.9035 371.792 51.0755C372.311 47.2474 372.571 42.9084 372.571 38.0585C372.571 33.1738 372.311 28.7742 371.792 24.8596C371.272 20.9276 370.519 18.2341 369.531 16.7792H388.55V25.7689C389.884 22.2873 391.781 19.5506 394.24 17.5586C396.7 15.5493 399.671 14.5447 403.152 14.5447C404.694 14.5447 406.071 14.7266 407.283 15.0903C408.513 15.4367 409.526 15.9044 410.323 16.4933C411.137 17.0823 411.83 17.8098 412.402 18.6758C412.973 19.5246 413.406 20.4166 413.701 21.352C413.995 22.27 414.212 23.2833 414.35 24.3919C415.753 21.3087 417.633 18.901 419.989 17.1689C422.344 15.4194 425.142 14.5447 428.381 14.5447C430.217 14.5447 431.819 14.7959 433.187 15.2982C434.573 15.8005 435.673 16.45 436.487 17.2468C437.319 18.0436 437.985 19.0309 438.488 20.2088C438.99 21.3866 439.328 22.5558 439.501 23.7164C439.674 24.8769 439.761 26.1587 439.761 27.5617C439.761 29.2765 439.596 31.5976 439.267 34.5249C439.059 36.1878 438.955 37.4609 438.955 38.3443C438.955 42.9864 439.224 47.2301 439.761 51.0755C440.298 54.9208 441.043 57.5623 441.995 59H419.937C420.889 57.5623 421.634 54.9208 422.171 51.0755C422.708 47.2301 422.976 42.9864 422.976 38.3443V37.227C422.976 35.3736 422.89 33.5982 422.717 31.9007C422.543 30.1859 422.301 28.653 421.989 27.3019C421.677 25.9335 421.27 24.8423 420.768 24.0281C420.266 23.214 419.711 22.807 419.105 22.807C418.291 22.807 417.555 23.2227 416.897 24.0541C416.238 24.8682 415.719 25.8729 415.338 27.068C414.957 28.2632 414.636 29.6056 414.376 31.0953C414.117 32.5849 413.943 33.9273 413.857 35.1225C413.77 36.3177 413.727 37.3916 413.727 38.3443C413.727 42.9864 413.995 47.2301 414.532 51.0755C415.069 54.9208 415.814 57.5623 416.767 59H394.708C395.661 57.5623 396.406 54.9208 396.942 51.0755C397.479 47.2301 397.748 42.9864 397.748 38.3443V37.227C397.748 35.3736 397.661 33.5982 397.488 31.9007C397.315 30.1859 397.072 28.653 396.761 27.3019C396.449 25.9335 396.042 24.8423 395.539 24.0281C395.037 23.214 394.483 22.807 393.877 22.807C392.872 22.807 391.954 23.5085 391.122 24.9115C390.291 26.2972 389.65 28.09 389.2 30.2898C388.767 32.4723 388.55 34.7847 388.55 37.227ZM484.111 54.7909C483.47 56.7309 482.283 58.2638 480.551 59.3897C478.819 60.5156 476.957 61.0786 474.965 61.0786C473.874 61.0786 472.843 60.8967 471.873 60.5329C470.921 60.1692 470.054 59.6322 469.275 58.9221C468.496 58.2119 467.872 57.2592 467.404 56.064C466.954 54.8689 466.729 53.5091 466.729 51.9848V47.2561C466.729 47.0483 466.677 46.8924 466.573 46.7884C466.486 46.6672 466.382 46.6152 466.261 46.6325C465.967 46.6672 465.819 46.875 465.819 47.2561V47.9836C465.75 50.0968 465.326 52.0108 464.546 53.7256C463.767 55.4231 462.762 56.8002 461.532 57.8568C460.303 58.8961 458.934 59.6929 457.427 60.2471C455.938 60.8014 454.387 61.0786 452.776 61.0786C451.547 61.0786 450.343 60.914 449.165 60.5849C448.004 60.2731 446.913 59.7881 445.891 59.1299C444.869 58.4717 443.968 57.6836 443.189 56.7655C442.427 55.8302 441.821 54.713 441.37 53.4139C440.937 52.0974 440.721 50.6771 440.721 49.1528C440.721 47.5592 440.955 46.0176 441.422 44.528C441.89 43.0384 442.626 41.6267 443.631 40.2929C444.635 38.9418 445.856 37.7727 447.294 36.7853C448.749 35.7807 450.516 34.9839 452.594 34.395C454.69 33.8061 456.994 33.5116 459.506 33.5116C461.931 33.5116 463.723 33.5895 464.884 33.7454V23.7164C464.884 21.3087 464.434 19.5506 463.533 18.442C462.632 17.3334 461.515 16.7792 460.181 16.7792C459.038 16.7792 458.016 17.1256 457.115 17.8184C456.215 18.5113 455.764 19.3167 455.764 20.2348C455.764 20.7544 456.033 21.4213 456.57 22.2354C457.315 23.3613 457.687 24.5305 457.687 25.743C457.687 27.3019 457.306 28.6443 456.544 29.7702C455.782 30.8961 454.829 31.7188 453.686 32.2385C452.56 32.7581 451.33 33.0179 449.996 33.0179C448.68 33.0179 447.441 32.7668 446.281 32.2645C445.138 31.7448 444.185 30.948 443.423 29.8741C442.661 28.7829 442.28 27.5097 442.28 26.0547C442.28 24.9635 442.487 23.8982 442.903 22.859C443.336 21.8197 444.029 20.8237 444.982 19.871C445.952 18.901 447.138 18.0609 448.541 17.3508C449.944 16.6233 451.694 16.043 453.79 15.61C455.886 15.1769 458.215 14.9604 460.779 14.9604C462.892 14.9604 464.884 15.1076 466.755 15.4021C468.625 15.6792 470.436 16.1642 472.185 16.8571C473.952 17.55 475.459 18.4333 476.706 19.5073C477.97 20.5639 478.975 21.9323 479.72 23.6124C480.482 25.2753 480.863 27.1633 480.863 29.2765V48.815C480.863 52.4525 481.946 54.4445 484.111 54.7909ZM464.884 42.7872V35.5382C463.55 35.5382 462.346 35.824 461.272 36.3956C460.216 36.9499 459.376 37.6861 458.752 38.6041C458.146 39.5221 457.678 40.5181 457.349 41.592C457.037 42.6659 456.882 43.7572 456.882 44.8658C456.882 46.5286 457.202 47.9403 457.843 49.1008C458.484 50.2614 459.35 50.8416 460.441 50.8416C461.636 50.8416 462.676 50.1488 463.559 48.7631C464.442 47.36 464.884 45.3681 464.884 42.7872ZM502.628 37.227V59H483.61C484.597 57.545 485.35 54.9035 485.87 51.0755C486.39 47.2474 486.649 42.9084 486.649 38.0585C486.649 33.1738 486.39 28.7742 485.87 24.8596C485.35 20.9276 484.597 18.2341 483.61 16.7792H502.628V25.7689C503.962 22.2873 505.859 19.5506 508.318 17.5586C510.778 15.5493 513.749 14.5447 517.23 14.5447C519.066 14.5447 520.669 14.7959 522.037 15.2982C523.423 15.8005 524.523 16.45 525.337 17.2468C526.168 18.0436 526.835 19.0309 527.337 20.2088C527.84 21.3866 528.177 22.5558 528.351 23.7164C528.524 24.8769 528.61 26.1587 528.61 27.5617C528.61 29.2765 528.446 31.5976 528.117 34.5249C527.909 36.1878 527.805 37.4609 527.805 38.3443C527.805 42.9864 528.073 47.2301 528.61 51.0755C529.147 54.9208 529.892 57.5623 530.845 59H508.786C509.739 57.5623 510.484 54.9208 511.021 51.0755C511.558 47.2301 511.826 42.9864 511.826 38.3443V37.227C511.826 35.3736 511.739 33.5982 511.566 31.9007C511.393 30.1859 511.151 28.653 510.839 27.3019C510.527 25.9335 510.12 24.8423 509.618 24.0281C509.115 23.214 508.561 22.807 507.955 22.807C506.95 22.807 506.032 23.5085 505.201 24.9115C504.369 26.2972 503.728 28.09 503.278 30.2898C502.845 32.4723 502.628 34.7847 502.628 37.227ZM549.154 16.7792V38.5521C549.154 40.4055 549.24 42.1896 549.414 43.9044C549.587 45.6019 549.829 47.1349 550.141 48.5032C550.453 49.8543 550.86 50.9369 551.362 51.751C551.865 52.5651 552.419 52.9722 553.025 52.9722C554.03 52.9722 554.948 52.2793 555.779 50.8936C556.611 49.4906 557.243 47.6978 557.676 45.5153C558.126 43.3155 558.351 40.9944 558.351 38.5521V37.7207C558.351 32.8707 558.092 28.5317 557.572 24.7037C557.052 20.8757 556.299 18.2341 555.311 16.7792H574.33V37.4349C574.33 42.3368 574.59 46.7971 575.11 50.8157C575.629 54.8169 576.383 57.545 577.37 59H560.17V47.1522C560.17 46.7018 560.014 46.4766 559.702 46.4766C559.581 46.4766 559.477 46.5373 559.391 46.6585C558.663 49.5339 557.624 52.0455 556.273 54.1933C554.922 56.3238 553.172 58.03 551.024 59.3118C548.877 60.5936 546.452 61.2345 543.749 61.2345C541.913 61.2345 540.303 60.9833 538.917 60.481C537.548 59.9787 536.449 59.3291 535.617 58.5323C534.803 57.7355 534.145 56.7482 533.642 55.5704C533.14 54.3925 532.802 53.2233 532.629 52.0628C532.456 50.9023 532.369 49.6205 532.369 48.2174C532.369 46.5026 532.534 44.1816 532.863 41.2543C533.071 39.5914 533.175 38.3183 533.175 37.4349C533.175 32.7928 532.906 28.549 532.369 24.7037C531.832 20.8583 531.088 18.2168 530.135 16.7792H549.154ZM594.339 43.5407C594.686 45.1169 595.145 46.5373 595.716 47.8017C596.305 49.0662 597.033 50.2007 597.899 51.2054C598.782 52.1927 599.847 52.9635 601.094 53.5178C602.359 54.0547 603.771 54.3232 605.33 54.3232C607.339 54.3232 609.21 53.7776 610.942 52.6864C612.691 51.5778 614.051 50.1315 615.021 48.3474C615.021 49.9409 614.709 51.4306 614.085 52.8163C613.479 54.202 612.639 55.3972 611.565 56.4018C610.491 57.4064 609.235 58.2638 607.798 58.974C606.377 59.6842 604.845 60.2125 603.199 60.5589C601.571 60.9227 599.891 61.1045 598.158 61.1045C595.3 61.1045 592.642 60.6629 590.182 59.7795C587.722 58.9134 585.609 57.7355 583.842 56.2459C582.076 54.7563 580.56 53.0241 579.295 51.0495C578.048 49.0749 577.113 46.979 576.489 44.7618C575.883 42.5274 575.58 40.2496 575.58 37.9285C575.58 35.6075 575.892 33.3384 576.515 31.1212C577.139 28.9041 578.083 26.8169 579.347 24.8596C580.612 22.9023 582.119 21.1874 583.868 19.7151C585.635 18.2428 587.74 17.0823 590.182 16.2335C592.642 15.3848 595.283 14.9604 598.107 14.9604C600.566 14.9604 602.835 15.2462 604.914 15.8178C606.992 16.3721 608.759 17.1256 610.214 18.0783C611.669 19.0309 612.908 20.1482 613.93 21.4299C614.952 22.7117 615.705 24.0628 616.19 25.4831C616.675 26.9035 616.918 28.3672 616.918 29.8741C616.918 31.7102 616.545 33.477 615.8 35.1745C615.055 36.8546 613.99 38.3702 612.605 39.7213C611.219 41.0724 609.409 42.155 607.174 42.9691C604.94 43.7832 602.454 44.1902 599.717 44.1902C597.379 44.1902 595.586 43.9737 594.339 43.5407ZM594.001 41.67C594.66 41.8432 595.3 41.9298 595.924 41.9298C597.067 41.9298 598.072 41.6007 598.938 40.9425C599.804 40.2843 600.471 39.3835 600.939 38.2403C601.424 37.0971 601.779 35.85 602.004 34.4989C602.246 33.1305 602.368 31.6582 602.368 30.082C602.368 26.8948 601.969 23.9415 601.172 21.2221C600.393 18.5026 599.544 17.1429 598.626 17.1429C597.899 17.1429 597.145 18.035 596.366 19.8191C595.586 21.6032 594.928 23.9762 594.391 26.9381C593.854 29.8828 593.586 32.8447 593.586 35.824C593.586 37.8852 593.724 39.8339 594.001 41.67ZM635.697 0.462417V38.3443C635.697 42.9864 635.965 47.2301 636.502 51.0755C637.039 54.9208 637.784 57.5623 638.737 59H616.678C617.631 57.5623 618.375 54.9208 618.912 51.0755C619.449 47.2301 619.718 42.9864 619.718 38.3443V22.0275C619.718 17.1256 619.458 12.674 618.938 8.67275C618.419 4.65419 617.665 1.91741 616.678 0.462417H635.697Z" fill="white"/>
<path d="M658.388 58.7142C656.812 57.138 656.024 55.2413 656.024 53.0241C656.024 50.807 656.812 48.919 658.388 47.36C659.965 45.7838 661.861 44.9957 664.079 44.9957C666.296 44.9957 668.184 45.7838 669.743 47.36C671.319 48.919 672.107 50.807 672.107 53.0241C672.107 55.2413 671.319 57.138 669.743 58.7142C668.184 60.2904 666.296 61.0786 664.079 61.0786C661.861 61.0786 659.965 60.2904 658.388 58.7142Z" fill="#85BC11"/>
</svg>
