<svg width="738" height="603" viewBox="0 0 738 603" fill="none" xmlns="http://www.w3.org/2000/svg">
<rect x="18" y="135" width="781" height="481" fill="#1D1314"/>
<path d="M32.6039 55.5794C44.997 42.1439 63.7502 35.3334 88.3334 35.3334H97.1667V60.2345L90.0647 61.6567C77.963 64.077 69.5449 68.8382 65.0399 75.8254C62.6892 79.5895 61.3561 83.8994 61.1709 88.3334H88.3334C90.6761 88.3334 92.9229 89.264 94.5795 90.9206C96.236 92.5772 97.1667 94.824 97.1667 97.1667V159C97.1667 168.743 89.2432 176.667 79.5 176.667H26.5C24.1573 176.667 21.9105 175.736 20.2539 174.079C18.5973 172.423 17.6667 170.176 17.6667 167.833V123.667L17.6932 97.8822C17.6137 96.9017 15.9354 73.67 32.6039 55.5794ZM176.667 176.667H123.667C121.324 176.667 119.077 175.736 117.421 174.079C115.764 172.423 114.833 170.176 114.833 167.833V123.667L114.86 97.8822C114.78 96.9017 113.102 73.67 129.771 55.5794C142.164 42.1439 160.917 35.3334 185.5 35.3334H194.333V60.2345L187.231 61.6567C175.13 64.077 166.712 68.8382 162.207 75.8254C159.856 79.5895 158.523 83.8994 158.338 88.3334H185.5C187.843 88.3334 190.09 89.264 191.746 90.9206C193.403 92.5772 194.333 94.824 194.333 97.1667V159C194.333 168.743 186.41 176.667 176.667 176.667Z" fill="#1D1314"/>
</svg>
