<svg width="782" height="581" viewBox="0 0 782 581" fill="none" xmlns="http://www.w3.org/2000/svg">
<rect x="1" y="100" width="781" height="481" fill="#1D1314"/>
<path d="M15.6038 20.5794C27.997 7.14387 46.7501 0.333374 71.3333 0.333374H80.1666V25.2345L73.0646 26.6567C60.963 29.077 52.5448 33.8382 48.0398 40.8254C45.6892 44.5895 44.356 48.8994 44.1708 53.3334H71.3333C73.676 53.3334 75.9228 54.264 77.5794 55.9206C79.236 57.5772 80.1666 59.824 80.1666 62.1667V124C80.1666 133.743 72.2431 141.667 62.5 141.667H9.49996C7.15721 141.667 4.91042 140.736 3.25385 139.079C1.59728 137.423 0.666626 135.176 0.666626 132.833V88.6667L0.693127 62.8822C0.613627 61.9017 -1.06471 38.67 15.6038 20.5794ZM159.667 141.667H106.667C104.324 141.667 102.077 140.736 100.421 139.079C98.7639 137.423 97.8333 135.176 97.8333 132.833V88.6667L97.8598 62.8822C97.7803 61.9017 96.102 38.67 112.77 20.5794C125.164 7.14387 143.917 0.333374 168.5 0.333374H177.333V25.2345L170.231 26.6567C158.13 29.077 149.711 33.8382 145.206 40.8254C142.856 44.5895 141.523 48.8994 141.337 53.3334H168.5C170.843 53.3334 173.09 54.264 174.746 55.9206C176.403 57.5772 177.333 59.824 177.333 62.1667V124C177.333 133.743 169.41 141.667 159.667 141.667Z" fill="#1D1314"/>
</svg>
