<svg width="71" height="58" viewBox="0 0 71 58" fill="none" xmlns="http://www.w3.org/2000/svg">
<g filter="url(#filter0_d)">
<path d="M43.208 21.216C43.208 21.824 42.904 22.128 42.296 22.128H28.28C28.024 22.128 27.896 22.256 27.896 22.512V26.736C27.896 26.992 28.024 27.12 28.28 27.12H36.824C37.432 27.12 37.736 27.424 37.736 28.032V33.888C37.736 34.496 37.432 34.8 36.824 34.8H28.28C28.024 34.8 27.896 34.928 27.896 35.184V39.888C27.896 40.144 28.024 40.272 28.28 40.272H42.296C42.904 40.272 43.208 40.576 43.208 41.184V47.088C43.208 47.696 42.904 48 42.296 48H19.784C19.176 48 18.872 47.696 18.872 47.088V15.312C18.872 14.704 19.176 14.4 19.784 14.4H42.296C42.904 14.4 43.208 14.704 43.208 15.312V21.216Z" fill="#85BC11"/>
</g>
<g filter="url(#filter1_d)">
<path d="M57.528 48C56.984 48 56.648 47.744 56.52 47.232L55.56 43.776C55.496 43.552 55.352 43.44 55.128 43.44H45.144C44.92 43.44 44.776 43.552 44.712 43.776L43.752 47.232C43.624 47.744 43.288 48 42.744 48H34.968C34.648 48 34.408 47.904 34.248 47.712C34.12 47.52 34.104 47.264 34.2 46.944L44.184 15.168C44.344 14.656 44.68 14.4 45.192 14.4H55.08C55.592 14.4 55.928 14.656 56.088 15.168L66.072 46.944C66.104 47.04 66.12 47.152 66.12 47.28C66.12 47.76 65.848 48 65.304 48H57.528ZM46.824 36.192C46.824 36.416 46.936 36.528 47.16 36.528H53.112C53.24 36.528 53.336 36.496 53.4 36.432C53.464 36.336 53.48 36.224 53.448 36.096L50.376 25.008C50.344 24.848 50.264 24.768 50.136 24.768C50.04 24.768 49.96 24.848 49.896 25.008L46.824 36.096V36.192Z" fill="white"/>
</g>
<g filter="url(#filter2_d)">
<path d="M14.688 48.384C12.064 48.384 9.744 47.872 7.728 46.848C5.744 45.824 4.192 44.384 3.072 42.528C1.984 40.64 1.44 38.464 1.44 36V26.304C1.44 23.872 1.984 21.728 3.072 19.872C4.192 18.016 5.744 16.576 7.728 15.552C9.744 14.528 12.064 14.016 14.688 14.016C17.312 14.016 19.616 14.496 21.6 15.456C23.616 16.416 25.168 17.776 26.256 19.536C27.376 21.264 27.936 23.28 27.936 25.584C27.936 25.872 27.648 26.048 27.072 26.112L19.872 26.592H19.632C19.152 26.592 18.912 26.512 18.912 26.352V26.064C18.912 24.752 18.528 23.712 17.76 22.944C16.992 22.144 15.968 21.744 14.688 21.744C13.408 21.744 12.384 22.144 11.616 22.944C10.848 23.712 10.464 24.752 10.464 26.064V36.384C10.464 37.664 10.848 38.704 11.616 39.504C12.384 40.272 13.408 40.656 14.688 40.656C15.968 40.656 16.992 40.272 17.76 39.504C18.528 38.704 18.912 37.664 18.912 36.384C18.912 36.224 18.992 36.096 19.152 36C19.344 35.872 19.584 35.824 19.872 35.856L27.072 36.24C27.648 36.272 27.936 36.352 27.936 36.48V36.72C27.936 39.024 27.376 41.056 26.256 42.816C25.168 44.576 23.616 45.952 21.6 46.944C19.616 47.904 17.312 48.384 14.688 48.384Z" fill="white"/>
</g>
<defs>
<filter id="filter0_d" x="16.872" y="12.3999" width="28.336" height="37.6" filterUnits="userSpaceOnUse" color-interpolation-filters="sRGB">
<feFlood flood-opacity="0" result="BackgroundImageFix"/>
<feColorMatrix in="SourceAlpha" type="matrix" values="0 0 0 0 0 0 0 0 0 0 0 0 0 0 0 0 0 0 127 0" result="hardAlpha"/>
<feOffset/>
<feGaussianBlur stdDeviation="1"/>
<feComposite in2="hardAlpha" operator="out"/>
<feColorMatrix type="matrix" values="0 0 0 0 0 0 0 0 0 0 0 0 0 0 0 0 0 0 0.25 0"/>
<feBlend mode="normal" in2="BackgroundImageFix" result="effect1_dropShadow"/>
<feBlend mode="normal" in="SourceGraphic" in2="effect1_dropShadow" result="shape"/>
</filter>
<filter id="filter1_d" x="30.1383" y="14.3999" width="39.9817" height="41.6" filterUnits="userSpaceOnUse" color-interpolation-filters="sRGB">
<feFlood flood-opacity="0" result="BackgroundImageFix"/>
<feColorMatrix in="SourceAlpha" type="matrix" values="0 0 0 0 0 0 0 0 0 0 0 0 0 0 0 0 0 0 127 0" result="hardAlpha"/>
<feOffset dy="4"/>
<feGaussianBlur stdDeviation="2"/>
<feComposite in2="hardAlpha" operator="out"/>
<feColorMatrix type="matrix" values="0 0 0 0 0 0 0 0 0 0 0 0 0 0 0 0 0 0 0.25 0"/>
<feBlend mode="normal" in2="BackgroundImageFix" result="effect1_dropShadow"/>
<feBlend mode="normal" in="SourceGraphic" in2="effect1_dropShadow" result="shape"/>
</filter>
<filter id="filter2_d" x="1.44" y="14.0161" width="34.496" height="42.368" filterUnits="userSpaceOnUse" color-interpolation-filters="sRGB">
<feFlood flood-opacity="0" result="BackgroundImageFix"/>
<feColorMatrix in="SourceAlpha" type="matrix" values="0 0 0 0 0 0 0 0 0 0 0 0 0 0 0 0 0 0 127 0" result="hardAlpha"/>
<feOffset dx="4" dy="4"/>
<feGaussianBlur stdDeviation="2"/>
<feComposite in2="hardAlpha" operator="out"/>
<feColorMatrix type="matrix" values="0 0 0 0 0 0 0 0 0 0 0 0 0 0 0 0 0 0 0.25 0"/>
<feBlend mode="normal" in2="BackgroundImageFix" result="effect1_dropShadow"/>
<feBlend mode="normal" in="SourceGraphic" in2="effect1_dropShadow" result="shape"/>
</filter>
</defs>
</svg>
