<svg width="351" height="71" viewBox="0 0 351 71" fill="none" xmlns="http://www.w3.org/2000/svg">
<path d="M5.72348 8.9536C4.31302 6.42963 3.05846 4.648 1.95979 3.60872H19.197L30.0872 30.9344L39.2181 3.58645H54.1615C53.3152 4.83359 52.6693 7.1794 52.2239 10.6239C51.7785 14.0684 51.5558 17.8914 51.5558 22.0931V33.2951C51.5558 37.274 51.786 40.9115 52.2462 44.2075C52.7065 47.5036 53.3449 49.7677 54.1615 51H35.2539C36.0705 49.7677 36.7089 47.5036 37.1692 44.2075C37.6294 40.9115 37.8596 37.274 37.8596 33.2951V14.7662L25.5886 51.6236H23.6511L8.50727 14.7662V34.5422C8.50727 39.2338 9.36097 42.9753 11.0684 45.7665C12.7906 48.5577 15.4111 50.2354 18.9298 50.7996L18.9075 51H0V50.7773C0.519641 50.6882 1.03928 50.4581 1.55892 50.0869C2.07856 49.7157 2.62048 49.1219 3.18466 48.3053C3.74884 47.4739 4.24621 46.4717 4.67677 45.2988C5.10733 44.1259 5.45623 42.6115 5.72348 40.7556C6.00557 38.8849 6.14661 36.8138 6.14661 34.5422V9.84442L5.72348 8.9536ZM69.74 14.8107V33.4732C69.74 35.0619 69.8143 36.5911 69.9627 38.0609C70.1112 39.5159 70.3191 40.8299 70.5863 42.0028C70.8535 43.1608 71.2024 44.0888 71.633 44.7866C72.0636 45.4844 72.5387 45.8333 73.0583 45.8333C73.9194 45.8333 74.7063 45.2394 75.419 44.0517C76.1316 42.8491 76.6735 41.3124 77.0447 39.4417C77.4307 37.5561 77.6237 35.5667 77.6237 33.4732V32.7606C77.6237 28.6035 77.401 24.8843 76.9556 21.6032C76.5102 18.322 75.8644 16.0578 75.0181 14.8107H91.32V55.1423C91.32 65.1491 85.9083 70.1525 75.0849 70.1525C72.8876 70.1525 70.8981 69.9669 69.1165 69.5957C67.3497 69.2246 65.9021 68.7346 64.7737 68.1259C63.6454 67.532 62.7026 66.8194 61.9454 65.9879C61.1882 65.1714 60.6463 64.3325 60.3197 63.4714C60.0079 62.6251 59.852 61.7417 59.852 60.8212C59.852 58.8911 60.5053 57.3842 61.8118 56.3003C63.1332 55.2165 64.6847 54.6746 66.4663 54.6746C67.6095 54.6746 68.6636 54.8973 69.6287 55.3427C70.6086 55.7881 71.4251 56.4934 72.0784 57.4584C72.7317 58.4234 73.0583 59.5741 73.0583 60.9103C73.0583 61.9496 72.7391 62.9517 72.1007 63.9168C71.6404 64.5998 71.4103 65.1714 71.4103 65.6316C71.4103 66.4185 71.7963 67.1089 72.5684 67.7028C73.3404 68.2966 74.2164 68.5936 75.1963 68.5936C77.8539 68.5936 79.1827 66.0919 79.1827 61.0885V40.8447C79.1827 40.4587 79.049 40.2657 78.7818 40.2657C78.6779 40.2657 78.5888 40.3177 78.5145 40.4216C77.891 42.8862 77.0002 45.039 75.8421 46.88C74.684 48.7062 73.1845 50.1686 71.3435 51.2672C69.5025 52.3659 67.4239 52.9152 65.1078 52.9152C63.534 52.9152 62.1533 52.7 60.9655 52.2694C59.7926 51.8388 58.8498 51.2821 58.1372 50.5991C57.4394 49.9162 56.8752 49.0699 56.4446 48.0603C56.0141 47.0507 55.7246 46.0486 55.5761 45.0538C55.4276 44.0591 55.3534 42.9604 55.3534 41.7578C55.3534 40.288 55.4944 38.2985 55.7765 35.7894C55.9547 34.3641 56.0438 33.2728 56.0438 32.5156C56.0438 28.5367 55.8136 24.8992 55.3534 21.6032C54.8931 18.3071 54.2547 16.043 53.4381 14.8107H69.74ZM105.583 27.5271C105.583 25.6712 105.709 23.8599 105.961 22.0931C106.214 20.3115 106.607 18.5744 107.142 16.8818C107.676 15.1893 108.337 13.6081 109.124 12.1383C109.911 10.6684 110.876 9.31735 112.019 8.08506C113.162 6.85277 114.431 5.79864 115.827 4.92267C117.223 4.03186 118.826 3.34148 120.637 2.85153C122.449 2.36158 124.386 2.11661 126.45 2.11661C128.558 2.11661 131.127 2.36158 134.156 2.85153C137.481 3.37117 140.295 3.63099 142.596 3.63099L139.79 18.9307C139.003 14.1203 137.778 10.4457 136.115 7.9069C134.452 5.35323 132.656 4.0764 130.726 4.0764C124.609 4.0764 121.551 11.871 121.551 27.4603C121.551 30.1475 121.758 32.6047 122.174 34.8317C122.605 37.0439 123.236 38.9889 124.067 40.6666C124.913 42.3443 126.012 43.6508 127.363 44.5861C128.729 45.5215 130.295 45.9892 132.062 45.9892C132.701 45.9892 133.287 45.9224 133.822 45.7887V42.3591C133.822 38.1574 133.599 34.3418 133.153 30.9122C132.708 27.4677 132.062 25.1219 131.216 23.8747H144.868C144.021 25.1219 143.375 27.4677 142.93 30.9122C142.485 34.3418 142.262 38.1574 142.262 42.3591V51H138.12C137.362 51 135.596 51.2747 132.819 51.824L131.817 52.0244C129.367 52.5441 127.534 52.8039 126.316 52.8039C123.421 52.8039 120.793 52.3214 118.433 51.3563C116.072 50.4061 114.105 49.1293 112.531 47.5258C110.972 45.9075 109.658 44.0071 108.589 41.8246C107.52 39.6273 106.748 37.3409 106.273 34.9654C105.813 32.5899 105.583 30.1104 105.583 27.5271ZM180.301 47.3922C179.752 49.0551 178.735 50.369 177.25 51.3341C175.766 52.2991 174.17 52.7816 172.462 52.7816C171.527 52.7816 170.643 52.6257 169.812 52.3139C168.995 52.0022 168.253 51.5419 167.585 50.9332C166.917 50.3245 166.382 49.5079 165.982 48.4835C165.596 47.459 165.403 46.2935 165.403 44.987V40.9338C165.403 40.7556 165.358 40.622 165.269 40.5329C165.195 40.429 165.106 40.3845 165.002 40.3993C164.749 40.429 164.623 40.6072 164.623 40.9338V41.5574C164.564 43.3687 164.2 45.0093 163.532 46.4791C162.864 47.9341 162.003 49.1144 160.948 50.0201C159.894 50.9109 158.721 51.5939 157.43 52.069C156.153 52.5441 154.824 52.7816 153.443 52.7816C152.389 52.7816 151.357 52.6406 150.348 52.3585C149.353 52.0912 148.418 51.6755 147.542 51.1114C146.666 50.5472 145.894 49.8716 145.226 49.0848C144.572 48.283 144.053 47.3254 143.667 46.2119C143.296 45.0835 143.11 43.8661 143.11 42.5595C143.11 41.1936 143.31 39.8723 143.711 38.5954C144.112 37.3186 144.743 36.1086 145.604 34.9654C146.465 33.8073 147.512 32.8051 148.744 31.9589C149.991 31.0977 151.506 30.4148 153.287 29.91C155.084 29.4052 157.059 29.1528 159.211 29.1528C161.29 29.1528 162.827 29.2196 163.821 29.3532V20.7569C163.821 18.6932 163.435 17.1862 162.663 16.236C161.891 15.2858 160.934 14.8107 159.79 14.8107C158.811 14.8107 157.935 15.1076 157.163 15.7015C156.39 16.2954 156.004 16.9858 156.004 17.7727C156.004 18.2181 156.235 18.7897 156.695 19.4875C157.333 20.4525 157.652 21.4547 157.652 22.494C157.652 23.8302 157.326 24.9808 156.673 25.9459C156.019 26.9109 155.203 27.6161 154.223 28.0616C153.258 28.507 152.204 28.7297 151.06 28.7297C149.932 28.7297 148.871 28.5144 147.876 28.0838C146.896 27.6384 146.079 26.9555 145.426 26.035C144.773 25.0996 144.446 24.0084 144.446 22.7612C144.446 21.8259 144.624 20.9128 144.981 20.022C145.352 19.1311 145.946 18.2775 146.762 17.4609C147.594 16.6294 148.611 15.9094 149.813 15.3006C151.016 14.6771 152.515 14.1797 154.312 13.8085C156.108 13.4374 158.105 13.2518 160.303 13.2518C162.114 13.2518 163.821 13.378 165.425 13.6304C167.028 13.8679 168.58 14.2836 170.079 14.8775C171.594 15.4714 172.885 16.2286 173.954 17.1491C175.038 18.0547 175.899 19.2277 176.538 20.6678C177.191 22.0931 177.518 23.7114 177.518 25.5227V42.27C177.518 45.3879 178.446 47.0953 180.301 47.3922ZM163.821 37.1033V30.8899C162.678 30.8899 161.646 31.1349 160.726 31.6248C159.82 32.0999 159.1 32.7309 158.566 33.5178C158.046 34.3047 157.645 35.1584 157.363 36.0789C157.096 36.9994 156.962 37.9347 156.962 38.8849C156.962 40.3102 157.237 41.5203 157.786 42.515C158.335 43.5097 159.078 44.0071 160.013 44.0071C161.038 44.0071 161.928 43.4132 162.686 42.2255C163.443 41.0229 163.821 39.3155 163.821 37.1033ZM195.896 0.824929V33.2951C195.896 37.274 196.126 40.9115 196.587 44.2075C197.047 47.5036 197.685 49.7677 198.502 51H179.594C180.411 49.7677 181.049 47.5036 181.51 44.2075C181.97 40.9115 182.2 37.274 182.2 33.2951V19.3093C182.2 15.1076 181.977 11.292 181.532 7.86235C181.087 4.41788 180.441 2.07207 179.594 0.824929H195.896ZM214.545 0.824929V33.2951C214.545 37.274 214.775 40.9115 215.235 44.2075C215.695 47.5036 216.334 49.7677 217.15 51H198.243C199.06 49.7677 199.698 47.5036 200.158 44.2075C200.618 40.9115 200.849 37.274 200.849 33.2951V19.3093C200.849 15.1076 200.626 11.292 200.18 7.86235C199.735 4.41788 199.089 2.07207 198.243 0.824929H214.545ZM232.08 37.7491C232.377 39.1002 232.77 40.3177 233.26 41.4015C233.765 42.4853 234.388 43.4578 235.131 44.3189C235.888 45.1652 236.801 45.8259 237.87 46.301C238.954 46.7612 240.164 46.9913 241.5 46.9913C243.222 46.9913 244.826 46.5237 246.31 45.5883C247.81 44.6381 248.975 43.3984 249.807 41.8692C249.807 43.2351 249.54 44.5119 249.005 45.6997C248.486 46.8874 247.765 47.9118 246.845 48.773C245.924 49.6341 244.848 50.369 243.616 50.9777C242.398 51.5865 241.084 52.0393 239.674 52.3362C238.278 52.648 236.838 52.8039 235.353 52.8039C232.904 52.8039 230.625 52.4253 228.516 51.6681C226.408 50.9258 224.597 49.9162 223.083 48.6393C221.568 47.3625 220.269 45.8778 219.185 44.1853C218.116 42.4927 217.314 40.6963 216.78 38.7959C216.26 36.8806 216.001 34.9282 216.001 32.9388C216.001 30.9493 216.268 29.0043 216.802 27.1039C217.337 25.2035 218.146 23.4145 219.23 21.7368C220.314 20.0591 221.605 18.5892 223.105 17.3272C224.619 16.0653 226.423 15.0705 228.516 14.343C230.625 13.6155 232.889 13.2518 235.309 13.2518C237.417 13.2518 239.362 13.4968 241.144 13.9867C242.925 14.4618 244.44 15.1076 245.687 15.9242C246.934 16.7408 247.996 17.6984 248.872 18.7971C249.748 19.8958 250.393 21.0538 250.809 22.2713C251.225 23.4887 251.433 24.7433 251.433 26.035C251.433 27.6087 251.113 29.1231 250.475 30.5781C249.837 32.0182 248.924 33.3174 247.736 34.4754C246.548 35.6335 244.997 36.5614 243.081 37.2592C241.166 37.957 239.035 38.3059 236.69 38.3059C234.685 38.3059 233.149 38.1203 232.08 37.7491ZM231.79 36.1457C232.354 36.2942 232.904 36.3684 233.438 36.3684C234.418 36.3684 235.279 36.0863 236.022 35.5221C236.764 34.9579 237.336 34.1859 237.736 33.206C238.152 32.2261 238.456 31.1571 238.649 29.9991C238.857 28.8262 238.961 27.5642 238.961 26.2131C238.961 23.4813 238.62 20.9499 237.937 18.6189C237.269 16.288 236.541 15.1225 235.754 15.1225C235.131 15.1225 234.485 15.8871 233.817 17.4163C233.149 18.9456 232.585 20.9796 232.124 23.5184C231.664 26.0424 231.434 28.5812 231.434 31.1349C231.434 32.9016 231.553 34.5719 231.79 36.1457ZM271.528 19.9774C270.607 19.9774 269.783 20.5787 269.056 21.7813C268.328 22.9839 267.772 24.5206 267.386 26.3913C266.999 28.262 266.806 30.244 266.806 32.3375V33.0501C266.806 37.2072 267.029 40.9264 267.475 44.2075C267.92 47.4887 268.566 49.7529 269.412 51H250.505C251.351 49.7529 251.997 47.4887 252.442 44.2075C252.888 40.9264 253.11 37.2072 253.11 33.0501C253.11 28.8633 252.888 25.0922 252.442 21.7368C251.997 18.3665 251.351 16.0578 250.505 14.8107H266.806V22.5162C267.95 19.532 269.575 17.1862 271.684 15.4788C273.792 13.7566 276.338 12.8955 279.322 12.8955C281.416 12.8955 283.108 13.571 284.4 14.9221C285.692 16.2583 286.338 17.884 286.338 19.7993C286.338 21.8036 285.647 23.5036 284.266 24.8992C282.901 26.2948 281.253 26.9926 279.322 26.9926C277.511 26.9926 276.093 26.5546 275.069 25.6786C274.059 24.8027 273.347 23.4813 272.931 21.7145C272.827 21.2839 272.738 20.9722 272.664 20.7792C272.604 20.5861 272.478 20.408 272.285 20.2447C272.092 20.0665 271.84 19.9774 271.528 19.9774ZM300.771 14.8107V33.4732C300.771 35.0619 300.846 36.5911 300.994 38.0609C301.142 39.5159 301.35 40.8299 301.618 42.0028C301.885 43.1608 302.234 44.0888 302.664 44.7866C303.095 45.4844 303.57 45.8333 304.09 45.8333C304.951 45.8333 305.738 45.2394 306.45 44.0517C307.163 42.8491 307.705 41.3124 308.076 39.4417C308.462 37.5561 308.655 35.5667 308.655 33.4732V32.7606C308.655 28.6035 308.432 24.8843 307.987 21.6032C307.541 18.322 306.896 16.0578 306.049 14.8107H322.351V55.1423C322.351 65.1491 316.94 70.1525 306.116 70.1525C303.919 70.1525 301.929 69.9669 300.148 69.5957C298.381 69.2246 296.933 68.7346 295.805 68.1259C294.677 67.532 293.734 66.8194 292.977 65.9879C292.219 65.1714 291.678 64.3325 291.351 63.4714C291.039 62.6251 290.883 61.7417 290.883 60.8212C290.883 58.8911 291.537 57.3842 292.843 56.3003C294.164 55.2165 295.716 54.6746 297.498 54.6746C298.641 54.6746 299.695 54.8973 300.66 55.3427C301.64 55.7881 302.456 56.4934 303.11 57.4584C303.763 58.4234 304.09 59.5741 304.09 60.9103C304.09 61.9496 303.77 62.9517 303.132 63.9168C302.672 64.5998 302.442 65.1714 302.442 65.6316C302.442 66.4185 302.828 67.1089 303.6 67.7028C304.372 68.2966 305.248 68.5936 306.228 68.5936C308.885 68.5936 310.214 66.0919 310.214 61.0885V40.8447C310.214 40.4587 310.08 40.2657 309.813 40.2657C309.709 40.2657 309.62 40.3177 309.546 40.4216C308.922 42.8862 308.031 45.039 306.873 46.88C305.715 48.7062 304.216 50.1686 302.375 51.2672C300.534 52.3659 298.455 52.9152 296.139 52.9152C294.565 52.9152 293.185 52.7 291.997 52.2694C290.824 51.8388 289.881 51.2821 289.168 50.5991C288.471 49.9162 287.906 49.0699 287.476 48.0603C287.045 47.0507 286.756 46.0486 286.607 45.0538C286.459 44.0591 286.385 42.9604 286.385 41.7578C286.385 40.288 286.526 38.2985 286.808 35.7894C286.986 34.3641 287.075 33.2728 287.075 32.5156C287.075 28.5367 286.845 24.8992 286.385 21.6032C285.924 18.3071 285.286 16.043 284.469 14.8107H300.771Z" fill="#1E0F11"/>
<path d="M338.44 50.755C337.089 49.404 336.414 47.7782 336.414 45.8778C336.414 43.9774 337.089 42.3591 338.44 41.0229C339.791 39.6718 341.417 38.9963 343.317 38.9963C345.218 38.9963 346.836 39.6718 348.172 41.0229C349.523 42.3591 350.199 43.9774 350.199 45.8778C350.199 47.7782 349.523 49.404 348.172 50.755C346.836 52.1061 345.218 52.7816 343.317 52.7816C341.417 52.7816 339.791 52.1061 338.44 50.755Z" fill="#85BC11"/>
</svg>
