<svg width="318" height="66" viewBox="0 0 318 66" fill="none" xmlns="http://www.w3.org/2000/svg">
<path d="M5.08753 10.6254C3.8338 8.38189 2.71863 6.79823 1.74204 5.87442H17.064L26.7442 30.1639L34.8605 5.85462H48.1435C47.3913 6.96319 46.8172 9.04836 46.4213 12.1101C46.0254 15.1719 45.8274 18.5702 45.8274 22.305V32.2623C45.8274 35.7992 46.032 39.0325 46.4411 41.9623C46.8502 44.8921 47.4177 46.9046 48.1435 48H31.3368C32.0627 46.9046 32.6302 44.8921 33.0393 41.9623C33.4484 39.0325 33.653 35.7992 33.653 32.2623V15.7921L22.7454 48.5543H21.0232L7.56202 15.7921V33.3709C7.56202 37.5412 8.32086 40.8669 9.83854 43.348C11.3694 45.8291 13.6987 47.3203 16.8265 47.8218L16.8067 48H0V47.802C0.461903 47.7229 0.923807 47.5183 1.38571 47.1884C1.84761 46.8584 2.32931 46.3305 2.83081 45.6047C3.3323 44.8657 3.77441 43.9748 4.15713 42.9323C4.53985 41.8897 4.84998 40.5436 5.08753 38.8939C5.33828 37.2311 5.46366 35.39 5.46366 33.3709V11.4173L5.08753 10.6254ZM61.6022 15.8317V32.4207C61.6022 33.8328 61.6682 35.1921 61.8002 36.4986C61.9322 37.7919 62.1169 38.9599 62.3545 40.0025C62.592 41.0319 62.9022 41.8567 63.2849 42.477C63.6676 43.0972 64.0899 43.4074 64.5518 43.4074C65.3173 43.4074 66.0167 42.8795 66.6502 41.8237C67.2837 40.7547 67.7654 39.3888 68.0953 37.726C68.4384 36.0499 68.61 34.2815 68.61 32.4207V31.7872C68.61 28.092 68.412 24.7861 68.0161 21.8695C67.6202 18.9529 67.0461 16.9403 66.2939 15.8317H80.7844V51.682C80.7844 60.577 75.974 65.0244 66.3533 65.0244C64.4001 65.0244 62.6316 64.8595 61.048 64.5295C59.4775 64.1996 58.1908 63.7641 57.1878 63.223C56.1848 62.6951 55.3468 62.0617 54.6737 61.3226C54.0006 60.5968 53.5189 59.8511 53.2286 59.0857C52.9515 58.3334 52.8129 57.5482 52.8129 56.73C52.8129 55.0143 53.3936 53.6748 54.5549 52.7114C55.7295 51.748 57.1086 51.2663 58.6923 51.2663C59.7084 51.2663 60.6454 51.4643 61.5033 51.8602C62.3743 52.2561 63.1001 52.883 63.6808 53.7408C64.2615 54.5986 64.5518 55.6214 64.5518 56.8092C64.5518 57.733 64.2681 58.6238 63.7006 59.4816C63.2915 60.0887 63.0869 60.5968 63.0869 61.0059C63.0869 61.7053 63.4301 62.319 64.1163 62.8469C64.8026 63.3748 65.5812 63.6387 66.4522 63.6387C68.8145 63.6387 69.9957 61.415 69.9957 56.9675V38.9731C69.9957 38.63 69.8769 38.4584 69.6394 38.4584C69.547 38.4584 69.4678 38.5046 69.4018 38.597C68.8475 40.7877 68.0557 42.7013 67.0263 44.3378C65.9969 45.961 64.664 47.261 63.0275 48.2376C61.3911 49.2141 59.5435 49.7024 57.4847 49.7024C56.0858 49.7024 54.8585 49.5111 53.8027 49.1284C52.7601 48.7456 51.9221 48.2507 51.2886 47.6437C50.6683 47.0366 50.1668 46.2844 49.7841 45.3869C49.4014 44.4895 49.1441 43.5987 49.0121 42.7145C48.8801 41.8303 48.8141 40.8537 48.8141 39.7847C48.8141 38.4782 48.9395 36.7098 49.1902 34.4794C49.3486 33.2125 49.4278 32.2425 49.4278 31.5694C49.4278 28.0326 49.2232 24.7993 48.8141 21.8695C48.405 18.9397 47.8375 16.9271 47.1117 15.8317H61.6022ZM96.525 10.6254C95.2713 8.38189 94.1561 6.79823 93.1795 5.87442H108.502L118.182 30.1639L126.298 5.85462H139.581C138.829 6.96319 138.255 9.04836 137.859 12.1101C137.463 15.1719 137.265 18.5702 137.265 22.305V32.2623C137.265 35.7992 137.469 39.0325 137.879 41.9623C138.288 44.8921 138.855 46.9046 139.581 48H122.774C123.5 46.9046 124.068 44.8921 124.477 41.9623C124.886 39.0325 125.09 35.7992 125.09 32.2623V15.7921L114.183 48.5543H112.461L98.9995 15.7921V33.3709C98.9995 37.5412 99.7584 40.8669 101.276 43.348C102.807 45.8291 105.136 47.3203 108.264 47.8218L108.244 48H91.4375V47.802C91.8994 47.7229 92.3613 47.5183 92.8232 47.1884C93.2851 46.8584 93.7668 46.3305 94.2683 45.6047C94.7698 44.8657 95.2119 43.9748 95.5946 42.9323C95.9773 41.8897 96.2875 40.5436 96.525 38.8939C96.7758 37.2311 96.9012 35.39 96.9012 33.3709V11.4173L96.525 10.6254ZM142.013 11.1005C140.76 9.83359 140.133 8.31591 140.133 6.54748C140.133 4.77905 140.76 3.26796 142.013 2.01423C143.28 0.76049 144.805 0.133621 146.586 0.133621C148.355 0.133621 149.859 0.76049 151.1 2.01423C152.353 3.26796 152.98 4.77905 152.98 6.54748C152.98 8.31591 152.353 9.83359 151.1 11.1005C149.846 12.3543 148.342 12.9811 146.586 12.9811C144.805 12.9811 143.28 12.3543 142.013 11.1005ZM153.238 32.0445C153.238 35.7398 153.436 39.0457 153.832 41.9623C154.227 44.8789 154.802 46.8914 155.554 48H138.747C139.499 46.8914 140.073 44.8789 140.469 41.9623C140.865 39.0457 141.063 35.7398 141.063 32.0445C141.063 28.3229 140.865 24.9708 140.469 21.9882C140.073 18.9925 139.499 16.9403 138.747 15.8317H153.238V32.0445ZM165.299 43.3876C164.468 44.6017 164.052 45.5255 164.052 46.159C164.052 46.6209 164.283 46.9904 164.745 47.2676C165.22 47.5447 165.808 47.6833 166.507 47.6833C167.048 47.6833 167.583 47.5975 168.11 47.4259C168.638 47.2412 169.133 46.9772 169.595 46.6341C170.07 46.2778 170.453 45.8027 170.743 45.2088C171.034 44.6017 171.179 43.9155 171.179 43.15C171.179 42.213 170.849 41.2496 170.189 40.2598C169.529 39.27 168.599 38.4188 167.398 37.7062L160.944 33.8658C159.136 32.7836 157.632 31.3715 156.431 29.6294C155.243 27.8874 154.649 26.152 154.649 24.4231C154.649 23.1034 154.94 21.8893 155.52 20.7807C156.114 19.6589 156.906 18.7153 157.896 17.9499C158.899 17.1713 160.06 16.5114 161.38 15.9703C162.7 15.4292 164.085 15.0333 165.537 14.7826C167.002 14.5318 168.493 14.4064 170.011 14.4064C171.7 14.4064 173.31 14.5714 174.841 14.9013C176.385 15.2181 177.764 15.68 178.978 16.287C180.193 16.8809 181.156 17.653 181.869 18.6032C182.594 19.5534 182.957 20.6157 182.957 21.7903C182.957 23.0572 182.423 24.1394 181.354 25.0368C180.285 25.921 178.879 26.3631 177.137 26.3631C175.475 26.3631 174.155 25.9408 173.178 25.0962C172.215 24.2384 171.733 23.044 171.733 21.5131C171.733 21.0512 171.792 20.6685 171.911 20.365C172.03 20.0483 172.261 19.6985 172.604 19.3158C172.934 18.9595 173.099 18.59 173.099 18.2072C173.099 17.455 172.729 16.8677 171.99 16.4454C171.251 16.0099 170.367 15.7921 169.338 15.7921C168.559 15.7921 167.827 15.9109 167.14 16.1485C166.467 16.386 165.893 16.7753 165.418 17.3164C164.956 17.8575 164.725 18.5042 164.725 19.2564C164.725 20.101 165.016 20.9589 165.596 21.8299C166.177 22.6877 167.015 23.4267 168.11 24.047L176.385 28.699C177.441 29.2929 178.352 29.8802 179.117 30.4609C179.882 31.0416 180.621 31.741 181.334 32.5592C182.047 33.3643 182.588 34.2947 182.957 35.3504C183.327 36.4062 183.512 37.5742 183.512 38.8543C183.512 40.2664 183.202 41.5729 182.581 42.7739C181.974 43.9748 181.149 44.991 180.107 45.8225C179.077 46.6539 177.87 47.3599 176.484 47.9406C175.112 48.5213 173.666 48.9436 172.149 49.2075C170.631 49.4847 169.08 49.6233 167.497 49.6233C165.755 49.6233 164.092 49.4517 162.508 49.1086C160.925 48.7654 159.506 48.2771 158.252 47.6437C157.012 47.0102 156.022 46.1854 155.283 45.1692C154.544 44.153 154.174 43.0246 154.174 41.7841C154.174 40.9263 154.352 40.1542 154.709 39.468C155.065 38.7685 155.54 38.2077 156.134 37.7853C156.728 37.363 157.381 37.0463 158.094 36.8351C158.82 36.6108 159.578 36.4986 160.37 36.4986C161.796 36.4986 163.043 36.8351 164.112 37.5082C165.181 38.1681 165.788 39.1051 165.933 40.3192C165.973 40.4644 165.992 40.6953 165.992 41.0121C165.992 41.9095 165.761 42.7013 165.299 43.3876ZM193.237 43.3876C192.406 44.6017 191.99 45.5255 191.99 46.159C191.99 46.6209 192.221 46.9904 192.683 47.2676C193.158 47.5447 193.745 47.6833 194.444 47.6833C194.986 47.6833 195.52 47.5975 196.048 47.4259C196.576 47.2412 197.071 46.9772 197.533 46.6341C198.008 46.2778 198.39 45.8027 198.681 45.2088C198.971 44.6017 199.116 43.9155 199.116 43.15C199.116 42.213 198.786 41.2496 198.127 40.2598C197.467 39.27 196.536 38.4188 195.335 37.7062L188.882 33.8658C187.074 32.7836 185.569 31.3715 184.368 29.6294C183.181 27.8874 182.587 26.152 182.587 24.4231C182.587 23.1034 182.877 21.8893 183.458 20.7807C184.052 19.6589 184.844 18.7153 185.833 17.9499C186.836 17.1713 187.998 16.5114 189.317 15.9703C190.637 15.4292 192.023 15.0333 193.475 14.7826C194.939 14.5318 196.431 14.4064 197.948 14.4064C199.638 14.4064 201.248 14.5714 202.779 14.9013C204.323 15.2181 205.702 15.68 206.916 16.287C208.13 16.8809 209.093 17.653 209.806 18.6032C210.532 19.5534 210.895 20.6157 210.895 21.7903C210.895 23.0572 210.36 24.1394 209.291 25.0368C208.222 25.921 206.817 26.3631 205.075 26.3631C203.412 26.3631 202.092 25.9408 201.116 25.0962C200.152 24.2384 199.671 23.044 199.671 21.5131C199.671 21.0512 199.73 20.6685 199.849 20.365C199.968 20.0483 200.198 19.6985 200.542 19.3158C200.872 18.9595 201.037 18.59 201.037 18.2072C201.037 17.455 200.667 16.8677 199.928 16.4454C199.189 16.0099 198.305 15.7921 197.275 15.7921C196.497 15.7921 195.764 15.9109 195.078 16.1485C194.405 16.386 193.831 16.7753 193.356 17.3164C192.894 17.8575 192.663 18.5042 192.663 19.2564C192.663 20.101 192.953 20.9589 193.534 21.8299C194.115 22.6877 194.953 23.4267 196.048 24.047L204.323 28.699C205.378 29.2929 206.289 29.8802 207.054 30.4609C207.82 31.0416 208.559 31.741 209.272 32.5592C209.984 33.3643 210.525 34.2947 210.895 35.3504C211.264 36.4062 211.449 37.5742 211.449 38.8543C211.449 40.2664 211.139 41.5729 210.519 42.7739C209.912 43.9748 209.087 44.991 208.044 45.8225C207.015 46.6539 205.807 47.3599 204.422 47.9406C203.049 48.5213 201.604 48.9436 200.086 49.2075C198.569 49.4847 197.018 49.6233 195.434 49.6233C193.692 49.6233 192.029 49.4517 190.446 49.1086C188.862 48.7654 187.443 48.2771 186.19 47.6437C184.949 47.0102 183.959 46.1854 183.22 45.1692C182.481 44.153 182.112 43.0246 182.112 41.7841C182.112 40.9263 182.29 40.1542 182.646 39.468C183.002 38.7685 183.478 38.2077 184.071 37.7853C184.665 37.363 185.319 37.0463 186.031 36.8351C186.757 36.6108 187.516 36.4986 188.308 36.4986C189.733 36.4986 190.98 36.8351 192.049 37.5082C193.118 38.1681 193.725 39.1051 193.87 40.3192C193.91 40.4644 193.93 40.6953 193.93 41.0121C193.93 41.9095 193.699 42.7013 193.237 43.3876ZM213.513 11.1005C212.26 9.83359 211.633 8.31591 211.633 6.54748C211.633 4.77905 212.26 3.26796 213.513 2.01423C214.78 0.76049 216.305 0.133621 218.086 0.133621C219.855 0.133621 221.359 0.76049 222.6 2.01423C223.853 3.26796 224.48 4.77905 224.48 6.54748C224.48 8.31591 223.853 9.83359 222.6 11.1005C221.346 12.3543 219.842 12.9811 218.086 12.9811C216.305 12.9811 214.78 12.3543 213.513 11.1005ZM224.738 32.0445C224.738 35.7398 224.936 39.0457 225.332 41.9623C225.727 44.8789 226.302 46.8914 227.054 48H210.247C210.999 46.8914 211.573 44.8789 211.969 41.9623C212.365 39.0457 212.563 35.7398 212.563 32.0445C212.563 28.3229 212.365 24.9708 211.969 21.9882C211.573 18.9925 210.999 16.9403 210.247 15.8317H224.738V32.0445ZM242.738 49.6035C240.561 49.6035 238.522 49.2735 236.621 48.6137C234.734 47.9538 233.104 47.0564 231.732 45.9214C230.372 44.7865 229.198 43.4733 228.208 41.9821C227.218 40.4908 226.479 38.8939 225.991 37.1915C225.516 35.489 225.278 33.7602 225.278 32.0049C225.278 30.2365 225.522 28.5011 226.011 26.7986C226.512 25.0962 227.258 23.4993 228.248 22.008C229.237 20.5168 230.419 19.2102 231.791 18.0885C233.164 16.9667 234.793 16.0825 236.681 15.4358C238.568 14.776 240.587 14.446 242.738 14.446C244.889 14.446 246.895 14.776 248.756 15.4358C250.617 16.0825 252.22 16.9667 253.567 18.0885C254.926 19.2102 256.087 20.5168 257.051 22.008C258.027 23.4993 258.753 25.0962 259.228 26.7986C259.703 28.4879 259.941 30.2233 259.941 32.0049C259.941 33.7734 259.703 35.5022 259.228 37.1915C258.766 38.8807 258.054 40.4776 257.09 41.9821C256.127 43.4733 254.972 44.7865 253.626 45.9214C252.28 47.0564 250.67 47.9538 248.796 48.6137C246.922 49.2735 244.903 49.6035 242.738 49.6035ZM244.658 18.3854C244.144 16.8809 243.523 16.1287 242.798 16.1287C242.072 16.1287 241.418 16.8611 240.838 18.326C240.27 19.7777 239.841 21.6385 239.551 23.9084C239.274 26.1652 239.135 28.5869 239.135 31.1735C239.135 34.1033 239.234 36.7692 239.432 39.171C239.643 41.5729 240 43.6185 240.501 45.3078C241.016 46.997 241.656 47.8416 242.421 47.8416C243.187 47.8416 243.86 47.0234 244.441 45.3869C245.021 43.7505 245.45 41.6983 245.727 39.2304C246.005 36.7494 246.143 34.0835 246.143 31.2329C246.143 28.6067 246.024 26.185 245.787 23.9678C245.562 21.7375 245.186 19.8767 244.658 18.3854ZM272.8 31.4111V48H258.31C259.062 46.8914 259.636 44.8789 260.032 41.9623C260.428 39.0457 260.626 35.7398 260.626 32.0445C260.626 28.3229 260.428 24.9708 260.032 21.9882C259.636 18.9925 259.062 16.9403 258.31 15.8317H272.8V22.6811C273.816 20.0285 275.261 17.9433 277.135 16.4256C279.01 14.8947 281.273 14.1293 283.925 14.1293C285.324 14.1293 286.545 14.3207 287.588 14.7034C288.643 15.0861 289.482 15.581 290.102 16.1881C290.735 16.7951 291.243 17.5474 291.626 18.4448C292.009 19.3422 292.266 20.233 292.398 21.1172C292.53 22.0014 292.596 22.978 292.596 24.047C292.596 25.3535 292.471 27.122 292.22 29.3523C292.062 30.6192 291.982 31.5892 291.982 32.2623C291.982 35.7992 292.187 39.0325 292.596 41.9623C293.005 44.8921 293.573 46.9046 294.299 48H277.492C278.218 46.9046 278.785 44.8921 279.194 41.9623C279.603 39.0325 279.808 35.7992 279.808 32.2623V31.4111C279.808 29.999 279.742 28.6463 279.61 27.3529C279.478 26.0464 279.293 24.8784 279.056 23.8491C278.818 22.8065 278.508 21.975 278.125 21.3548C277.743 20.7345 277.32 20.4244 276.858 20.4244C276.093 20.4244 275.393 20.9589 274.76 22.0278C274.127 23.0836 273.638 24.4495 273.295 26.1256C272.965 27.7884 272.8 29.5503 272.8 31.4111Z" fill="#200A0D"/>
<path d="M307.245 47.7822C306.044 46.5813 305.444 45.1362 305.444 43.447C305.444 41.7577 306.044 40.3192 307.245 39.1315C308.446 37.9305 309.891 37.33 311.581 37.33C313.27 37.33 314.708 37.9305 315.896 39.1315C317.097 40.3192 317.698 41.7577 317.698 43.447C317.698 45.1362 317.097 46.5813 315.896 47.7822C314.708 48.9832 313.27 49.5837 311.581 49.5837C309.891 49.5837 308.446 48.9832 307.245 47.7822Z" fill="#85BC11"/>
</svg>
