<?xml version="1.0" standalone="no"?>
<!DOCTYPE svg PUBLIC "-//W3C//DTD SVG 1.1//EN" "http://www.w3.org/Graphics/SVG/1.1/DTD/svg11.dtd" >
<svg xmlns="http://www.w3.org/2000/svg" xmlns:xlink="http://www.w3.org/1999/xlink" version="1.1">
<metadata>
Created by FontForge 20201107 at Sat Aug 29 06:31:16 2020
 By Jimmy Wärting
senzana@2020
</metadata>
<defs>
<font id="LettownHills-Regular" horiz-adv-x="1988" >
  <font-face 
    font-family="Lettown Hills"
    font-weight="400"
    font-stretch="normal"
    units-per-em="3233"
    panose-1="0 0 0 0 0 0 0 0 0 0"
    ascent="2586"
    descent="-647"
    x-height="1625"
    cap-height="2128"
    bbox="-5329 -1540 4150 3141"
    underline-thickness="50"
    underline-position="-288"
    unicode-range="U+000D-FB02"
  />
<missing-glyph horiz-adv-x="250" 
 />
    <glyph glyph-name="fi" unicode="fi" horiz-adv-x="1864" 
d="M1701 806q0 -280 30 -501t87 -305h-849q57 84 87 305t30 501v712h-303v-723q0 -267 31.5 -489.5t86.5 -305.5h-851q55 83 86.5 305.5t31.5 489.5v723h-116v107h116v242q0 122 43.5 218.5t116 158t173 101.5t208 56.5t228.5 16.5q149 0 271 -25t203 -66t137 -95.5
t80.5 -113t24.5 -119.5q0 -130 -88.5 -203t-208.5 -73t-208 73t-88 203q0 44 11.5 78.5t25.5 51.5t25.5 41.5t11.5 52.5q0 48 -52.5 86.5t-117.5 38.5q-36 0 -71.5 -14.5t-68 -44.5t-52.5 -85t-20 -126v-453h949v-819z" />
    <glyph glyph-name="fl" unicode="fl" horiz-adv-x="1971" 
d="M1842 2253v-1458q0 -268 31 -490t86 -305h-849q55 83 86 305t31 490v628v43.5v59.5t-0.5 68t-2 79.5t-4.5 82t-7 88.5t-10.5 86t-14.5 86q-67 332 -242 332q-36 0 -71.5 -14.5t-68 -44.5t-52.5 -85t-20 -126v-453h334v-107h-303v-723q0 -267 31.5 -489.5t86.5 -305.5
h-851q55 83 86.5 305.5t31.5 489.5v723h-116v107h116v242q0 122 43.5 218.5t116 158t173 101.5t208 56.5t228.5 16.5q96 0 210.5 -26t202 -56.5t192 -56.5t184.5 -26h134z" />
    <glyph glyph-name="f_j" unicode="fj" horiz-adv-x="1797" 
d="M1714 1625v-1867q0 -124 -31.5 -219t-87.5 -157t-139.5 -102t-180 -56.5t-216.5 -16.5q-148 0 -262 25t-182 65t-111.5 96.5t-59 112.5t-15.5 120q0 130 88.5 203t208.5 73t208 -73t88 -203q0 -44 -11.5 -78.5t-25.5 -51.5t-25.5 -41.5t-11.5 -52.5q0 -52 22 -88.5
t64 -36.5q25 0 39 9.5t19.5 32.5t7 58t0.5 89q-1 49 -1 78v1974h-303v-723q0 -267 31.5 -489.5t86.5 -305.5h-851q55 83 86.5 305.5t31.5 489.5v723h-116v107h116v242q0 122 43.5 218.5t116 158t173 101.5t208 56.5t228.5 16.5q149 0 271 -25t203 -66t137 -95.5t80.5 -113
t24.5 -119.5q0 -130 -88.5 -203t-208.5 -73t-208 73t-88 203q0 44 11.5 78.5t25.5 51.5t25.5 41.5t11.5 52.5q0 48 -52.5 86.5t-117.5 38.5q-36 0 -71.5 -14.5t-68 -44.5t-52.5 -85t-20 -126v-453h949z" />
    <glyph glyph-name=".notdef" horiz-adv-x="250" 
 />
    <glyph glyph-name="uni0000" horiz-adv-x="0" 
 />
    <glyph glyph-name="uni0000" horiz-adv-x="0" 
 />
    <glyph glyph-name="uni000D" unicode="&#xd;" horiz-adv-x="808" 
 />
    <glyph glyph-name="space" unicode=" " horiz-adv-x="808" 
 />
    <glyph glyph-name="exclam" unicode="!" horiz-adv-x="834" 
d="M479 829h-120q0 187 -25.5 339t-61.5 252t-72.5 192t-62 206t-25.5 247q0 148 91 231t216 83t216 -83t91 -231q0 -133 -25.5 -247t-62 -206t-72.5 -192t-61.5 -252t-25.5 -339zM130 230q0 128 91 218.5t219 90.5t218.5 -90.5t90.5 -218.5t-90.5 -219t-218.5 -91t-219 91
t-91 219z" />
    <glyph glyph-name="quotedbl" unicode="&#x22;" horiz-adv-x="1467" 
d="M1164 1399h-120q0 97 -25.5 181.5t-62 143t-72.5 111.5t-61.5 111.5t-25.5 118.5q0 148 91 231t216 83t216 -83t91 -231q0 -60 -25.5 -118.5t-61.5 -111.5t-72.5 -111.5t-62 -143t-25.5 -181.5zM423 1399h-120q0 97 -25.5 181.5t-61.5 143t-72.5 111.5t-62 111.5
t-25.5 118.5q0 148 91 231t216 83t216 -83t91 -231q0 -60 -25.5 -118.5t-62 -111.5t-72.5 -111.5t-61.5 -143t-25.5 -181.5z" />
    <glyph glyph-name="numbersign" unicode="#" horiz-adv-x="1394" 
d="M53 64l317 963h-346v97h378l73 221h-451v97h483l255 775h97l-255 -775h311l255 775h97l-255 -775h366v-97h-398l-73 -221h471v-97h-503l-317 -963h-97l317 963h-311l-317 -963h-97zM499 1124h311l73 221h-311z" />
    <glyph glyph-name="dollar" unicode="$" horiz-adv-x="1761" 
d="M817 2400v-257l99 4v253h97v-255q97 -4 256 -27q222 -31 383 -31l-126 -609q-19 103 -44 184t-66 157t-95 127.5t-132 85t-176 39.5v-687l109 -51q81 -38 124.5 -58.5t117 -60.5t114.5 -71t93.5 -78.5t80 -93.5t47 -107t19.5 -128q0 -98 -38.5 -185t-104.5 -152
t-156.5 -117t-192 -85.5t-213.5 -51.5v-243h-97v231l-99 -6v-225h-97v226q-120 0 -308 29q-217 32 -363 32l139 731q15 -80 30 -145t39.5 -140.5t53 -134t69 -115.5t88.5 -94.5t112.5 -61.5t139.5 -27v712q-17 9 -72 37.5t-79 41t-71.5 38.5t-77 44t-66.5 42.5t-68 47.5
q-228 175 -228 389q0 99 35.5 185t97 150t146 114t180.5 81.5t203 47.5v268h97zM916 1433v637q-53 -6 -99 -25v-554zM720 1568v421q-98 -83 -98 -207q0 -118 98 -214zM916 250v554l-99 59v-651q51 12 99 38zM1013 730v-405q92 99 92 231q0 90 -92 174z" />
    <glyph glyph-name="percent" unicode="%" horiz-adv-x="2273" 
d="M45 1625q0 173 39.5 309.5t109 222.5t161.5 130.5t200 44.5t200.5 -45t163 -131t111 -223.5t40.5 -310.5q0 -176 -41 -315t-113 -225t-164 -131t-198 -45q-109 0 -201.5 47t-161 136t-107.5 226.5t-39 309.5zM534 0l1128 2324h97l-1128 -2324h-97zM556 961q40 0 69.5 105
t43 255.5t13.5 317.5q0 258 -33 448t-91 190q-40 0 -69.5 -94.5t-43.5 -236t-14 -301.5q0 -296 34.5 -490t90.5 -194zM1203 638q0 173 39.5 309.5t109 222.5t161.5 130.5t200 44.5t200.5 -45t163 -131t111 -223.5t40.5 -310.5q0 -176 -41 -315t-113 -225t-164 -131t-198 -45
q-109 0 -201.5 47t-161 136t-107.5 226.5t-39 309.5zM1714 -26q40 0 69.5 105t43 255.5t13.5 317.5q0 258 -33 448t-91 190q-40 0 -69.5 -94.5t-43.5 -236t-14 -301.5q0 -296 34.5 -490t90.5 -194z" />
    <glyph glyph-name="ampersand" unicode="&#x26;" horiz-adv-x="2595" 
d="M878 1889q0 -114 38 -212t115 -161t179 -63q36 0 77 9q39 -54 39 -150q0 -77 -78 -135t-197 -58q-41 0 -80 8q-170 -69 -253.5 -221t-83.5 -342q0 -140 32.5 -258.5t88 -200.5t129.5 -139.5t156.5 -84.5t170.5 -27q108 0 209 42.5t181.5 121t129 202t48.5 273.5
q0 175 -48 288t-153 184l-265 -214q-88 -71 -88 -101q0 -29 76 -60l14 -6q42 -19 68.5 -35t60.5 -45.5t51.5 -72t17.5 -96.5q0 -74 -48.5 -133t-118 -89t-141.5 -30q-123 0 -198.5 90t-75.5 229q0 121 62.5 252.5t188.5 247.5l789 724q133 122 133 268q0 102 -60 238
q112 0 202 -26t145.5 -67t93 -94t52 -103t14.5 -99q0 -45 -14.5 -89.5t-36.5 -82.5t-59.5 -78t-70.5 -70t-85 -66t-87 -58t-91 -53t-83.5 -45.5t-77.5 -39.5l-155 -80q197 -51 307.5 -202.5t110.5 -344.5q0 -113 -39 -222.5t-123.5 -210.5t-205.5 -177.5t-299 -122
t-390 -45.5q-165 0 -322.5 35t-298.5 107.5t-247 175.5t-168.5 248.5t-62.5 316.5q0 223 121.5 419t352.5 313q-99 102 -148.5 225.5t-49.5 252.5q0 124 46 231.5t126 185t187 133t230 83t254 27.5q144 0 269.5 -34t215 -91.5t153.5 -133t95.5 -158t31.5 -166.5
q0 -102 -44.5 -188.5t-133 -141.5t-204.5 -55q-153 0 -261 92t-108 255q85 0 146.5 44t89 107t27.5 135q0 110 -64 173.5t-157 63.5q-63 0 -123 -31t-111.5 -91.5t-83.5 -164.5t-32 -235z" />
    <glyph glyph-name="quotesingle" unicode="'" horiz-adv-x="688" 
d="M404 1399h-120q0 97 -25.5 181.5t-62 143t-72.5 111.5t-61.5 111.5t-25.5 118.5q0 148 91 231t216 83t216 -83t91 -231q0 -60 -25.5 -118.5t-61.5 -111.5t-72.5 -111.5t-62 -143t-25.5 -181.5z" />
    <glyph glyph-name="parenleft" unicode="(" horiz-adv-x="906" 
d="M894 -578q-146 0 -273 54t-234 168.5t-182.5 283t-118 409.5t-42.5 536q0 297 43 536.5t119 403t184 273t233 159.5t270 50v-73q-114 0 -206.5 -115t-150 -308t-88 -432.5t-30.5 -501.5q0 -207 18.5 -404t57.5 -372.5t94.5 -307.5t134 -209t171.5 -77v-73z" />
    <glyph glyph-name="parenright" unicode=")" horiz-adv-x="907" 
d="M13 -578v73q93 0 171.5 77t134 209t94.5 307.5t57.5 372.5t18.5 404q0 262 -30.5 501.5t-88 432.5t-150 308t-206.5 115v73q145 0 270 -50t233 -159.5t184 -273t119 -403t43 -536.5q0 -295 -42.5 -536t-118 -409.5t-182.5 -283t-234 -168.5t-273 -54z" />
    <glyph glyph-name="asterisk" unicode="*" horiz-adv-x="951" 
d="M482 1442q-57 0 -91 31.5t-34 78.5q0 62 74 240l28 73l-12 9l-44 -52q-143 -173 -186 -200q-20 -12 -44 -12q-48 0 -83 38.5t-35 87.5q0 34 18 63t40 40q32 15 233 55l87 18v14l-98 17q-184 31 -220 44q-71 28 -71 90q0 47 34.5 90.5t80.5 43.5q27 0 49 -11
q28 -15 124.5 -115t117.5 -127l11 9l-21 54q-83 201 -83 246q0 57 33 88.5t92 31.5q54 0 87 -27t33 -78q0 -41 -62 -206l-43 -109l15 -12q19 25 53 66.5t87 101t73 69.5q31 16 60 16q45 0 77 -37.5t32 -82.5v-5q0 -68 -59 -101q-23 -13 -156.5 -34.5t-155.5 -21.5v-14
l89 -14q171 -24 234 -53q27 -12 44 -41t17 -63q0 -49 -35 -86t-81 -37q-97 0 -214 176l-63 80l-2 3l-15 -9l22 -56q83 -193 83 -258q0 -45 -30.5 -78.5t-89.5 -33.5z" />
    <glyph glyph-name="plus" unicode="+" horiz-adv-x="950" 
d="M597 1269h334v-244h-334v-334h-244v334h-334v244h334v334h244v-334z" />
    <glyph glyph-name="comma" unicode="," horiz-adv-x="737" 
d="M340 -81q-121 0 -208 95.5t-87 218.5q0 125 91 215t219 90q83 0 149 -32t106.5 -88t61.5 -128.5t21 -156.5q0 -116 -38.5 -233.5t-107.5 -216.5t-178 -161.5t-238 -62.5q-36 0 -36 30q0 19 30 46q49 46 83 82t71 86t56.5 104.5t19.5 111.5h-15z" />
    <glyph glyph-name="hyphen" unicode="-" horiz-adv-x="1060" 
d="M74 1025v244h912v-244h-912z" />
    <glyph glyph-name="period" unicode="." horiz-adv-x="727" 
d="M54 230q0 128 91 218.5t219 90.5t218.5 -90.5t90.5 -218.5t-90.5 -219t-218.5 -91t-219 91t-91 219z" />
    <glyph glyph-name="slash" unicode="/" horiz-adv-x="1233" 
d="M4 0l1128 2324h97l-1128 -2324h-97z" />
    <glyph glyph-name="zero" unicode="0" horiz-adv-x="1823" 
d="M58 1117q0 231 43 424t119.5 331t183 234t233.5 142t270 46t271 -46.5t235.5 -142t185.5 -233t122 -329.5t44 -421q0 -238 -45 -437t-124 -339t-187.5 -237.5t-235 -143.5t-267.5 -46q-181 0 -335 78.5t-268.5 226.5t-179.5 377.5t-65 515.5zM910 11q66 0 115 174.5
t71 424t22 527.5q0 276 -22 513t-70.5 394.5t-113.5 157.5q-66 0 -115.5 -157.5t-72.5 -392.5t-23 -502q0 -322 25.5 -580.5t73.5 -408.5t110 -150z" />
    <glyph glyph-name="one" unicode="1" horiz-adv-x="985" 
d="M805 2301v-1506q0 -268 31 -490t86 -305h-849q55 83 86 305t31 490v503q0 283 -30 514.5t-87 315.5l648 173h84z" />
    <glyph glyph-name="two" unicode="2" horiz-adv-x="1656" 
d="M78 1754q0 132 55.5 236t152.5 169t224 99t275 34q155 0 298 -37t258 -106.5t184 -182t69 -251.5q0 -89 -25.5 -172t-64.5 -149.5t-104 -134t-125.5 -117t-148 -107t-152 -95.5t-157.5 -90q-3 -1 -4 -2q-75 -42 -113 -64t-99.5 -59.5t-96 -64t-74.5 -60.5t-64 -66.5
t-38 -66.5h752q344 0 474 363h41l-107 -830h-1420q0 91 17.5 182t42.5 165.5t72 162.5t84.5 148.5t104.5 148t107 136t114 136.5q68 81 100 120t90.5 114t87.5 121t69 115t59 124t33.5 120.5t14.5 129.5q0 137 -57.5 207.5t-164.5 70.5q-91 0 -155 -47.5t-64 -130.5
q0 -71 50 -139q57 -79 57 -173q0 -129 -100 -211t-235 -82q-145 0 -231 97.5t-86 238.5z" />
    <glyph glyph-name="three" unicode="3" horiz-adv-x="1745" 
d="M780 15q76 0 137 74.5t93.5 191.5t32.5 249q0 91 -16.5 176t-53.5 163t-91 136t-135.5 92.5t-180.5 34.5v118q101 0 185 35t141 93t96.5 134.5t57.5 157t18 162.5q0 155 -62.5 261t-171.5 106q-83 0 -129.5 -59t-46.5 -123q0 -63 50 -131q57 -79 57 -173
q0 -128 -100 -210t-235 -82q-145 0 -231 97t-86 237q0 76 27 151t86.5 145.5t145 124.5t213.5 86.5t281 32.5q111 0 218 -22.5t203.5 -70t169 -114.5t115.5 -163t43 -208q0 -165 -91 -299t-268 -214q216 -98 328 -259t112 -343q0 -104 -36.5 -203.5t-110.5 -186t-178 -152
t-248 -103.5t-311 -38q-154 0 -282 32.5t-214 86t-145.5 124t-86.5 145t-27 150.5q0 86 28 153t75 107.5t104.5 61t120.5 20.5q131 0 227.5 -79.5t96.5 -214.5q0 -98 -57 -177q-50 -68 -50 -132t47.5 -122.5t134.5 -58.5z" />
    <glyph glyph-name="four" unicode="4" horiz-adv-x="2012" 
d="M493 1664q-48 -9 -93 -9q-114 0 -199 51t-125.5 129.5t-40.5 170.5q0 60 18 117.5t56.5 110t93 92t133 62.5t171.5 23q86 0 157.5 -23.5t122.5 -66t89 -96.5t60.5 -119.5t33.5 -131.5t11 -135q0 -91 -20 -183t-50.5 -171t-81.5 -164.5t-99 -152t-117 -147t-121.5 -136
t-126.5 -130.5h820v665q0 283 -30 514.5t-87 315.5h732v-1495h157v-160h-152q10 -209 39 -368.5t73 -226.5h-849q44 67 73 226.5t39 368.5h-1088v128q55 47 120 110.5t148 158.5t148 188.5t110 199t45 191.5q0 55 -21 78t-74 23q-30 0 -75 -8z" />
    <glyph glyph-name="five" unicode="5" horiz-adv-x="1637" 
d="M806 -81q-153 0 -281 32.5t-213.5 86.5t-145 124.5t-86.5 145.5t-27 151q0 86 28 153.5t75 107.5t104.5 61t120.5 21q62 0 119.5 -20t103.5 -56t73.5 -93t27.5 -126q0 -99 -57 -178q-50 -68 -50 -132t47.5 -123t134.5 -59q79 0 142 75t96 193t33 253q0 91 -16 177.5
t-52 168.5t-89.5 143.5t-134.5 98.5t-181 37q-177 0 -292 -154h-184v1246h1260l85 -663h-41q-20 60 -58 99t-98 60t-129 29t-167 8h-663v-557q128 143 283 213t306 70q137 0 253 -43.5t197 -118.5t138.5 -174.5t84.5 -211t27 -229.5q0 -124 -30.5 -241.5t-94 -222
t-153.5 -183t-218 -124t-278 -45.5z" />
    <glyph glyph-name="six" unicode="6" horiz-adv-x="1688" 
d="M698 1218q54 68 139 104t184 36q84 0 168.5 -25t165 -78t142.5 -127.5t100 -183.5t38 -236q0 -154 -43 -284.5t-117 -222t-172.5 -156.5t-208.5 -95.5t-227 -30.5q-182 0 -331.5 78.5t-257 228t-166.5 378.5t-59 519q0 201 30 372t84.5 298t128.5 223.5t164.5 156.5
t188.5 90t205 30q133 0 245.5 -32.5t190.5 -86.5t133 -124t80.5 -145.5t25.5 -150.5q0 -140 -86 -237t-231 -97q-135 0 -235 81.5t-100 209.5q0 95 58 174q49 67 49 130q0 76 -24.5 114.5t-64.5 38.5q-90 0 -143.5 -193t-53.5 -544v-213zM1010 636q0 139 -12 251.5t-32 182
t-45 106.5t-52 37t-52 -37.5t-45.5 -107.5t-32.5 -183t-12 -252q0 -185 21 -330t53 -218.5t68 -73.5t67.5 73.5t52.5 219.5t21 332z" />
    <glyph glyph-name="seven" unicode="7" horiz-adv-x="1422" 
d="M1170 1785h-630q-98 0 -167 -8t-129 -29t-98 -60t-58 -99h-41l85 663h1260v-467q-159 -179 -270 -349.5t-170.5 -324.5t-84.5 -288t-25 -274q0 -154 31 -345q0 -90 -45.5 -157t-113.5 -98t-148 -31t-148 30.5t-113.5 97t-45.5 158.5q0 101 13 196.5t34 181t60.5 174
t80 164t105 164.5t123 162.5t146.5 171t163.5 176.5t185.5 191z" />
    <glyph glyph-name="eight" unicode="8" horiz-adv-x="1558" 
d="M1505 635q0 -139 -40.5 -257.5t-109.5 -202t-162 -142t-197 -86.5t-215 -28q-110 0 -214.5 27.5t-198 86t-163.5 141.5t-111 202t-41 259q0 171 106 320.5t318 244.5q-178 80 -268.5 215t-90.5 307q0 109 37 203t101 160.5t148.5 113.5t180.5 70t196 23t195 -22.5
t179.5 -70t147.5 -115t100 -163.5t37 -209q0 -165 -91 -298.5t-268 -213.5q212 -95 318 -244.5t106 -320.5zM908 1732q0 112 -11 202.5t-29 145.5t-40.5 84.5t-46.5 29.5q-52 0 -89.5 -120.5t-37.5 -335.5q0 -118 10.5 -212t28.5 -152.5t40 -89t46 -30.5q52 0 90.5 128
t38.5 350zM921 582q0 127 -12 231t-31.5 168.5t-43.5 99t-50 34.5t-49.5 -33.5t-42 -96.5t-30 -167t-11.5 -233t11.5 -233.5t30 -169t42 -98.5t49.5 -34q35 0 65.5 57.5t51 181.5t20.5 293z" />
    <glyph glyph-name="nine" unicode="9" horiz-adv-x="1688" 
d="M990 994q-54 -68 -139 -104t-184 -36q-84 0 -168.5 25t-165 78t-142.5 127.5t-100 183.5t-38 236q0 154 43 284.5t117 222t172.5 156.5t208.5 95.5t227 30.5q182 0 331.5 -78.5t257 -228t166.5 -378.5t59 -519q0 -201 -30 -372t-84.5 -298t-128.5 -223.5t-164.5 -156.5
t-188.5 -90t-205 -30q-133 0 -245.5 32.5t-190.5 86.5t-133 124t-80.5 145.5t-25.5 150.5q0 140 86 237t231 97q135 0 235 -81.5t100 -209.5q0 -95 -58 -174q-49 -67 -49 -130q0 -76 24.5 -114.5t64.5 -38.5q90 0 143.5 193t53.5 544v213zM678 1576q0 -139 12 -251.5
t32 -182t45 -106.5t52 -37t52 37.5t45.5 107.5t32.5 183t12 252q0 185 -21 330t-53 218.5t-68 73.5t-67.5 -73.5t-52.5 -219.5t-21 -332z" />
    <glyph glyph-name="colon" unicode=":" horiz-adv-x="735" 
d="M58 1405q0 128 91 218.5t219 90.5t218.5 -91t90.5 -218q0 -128 -90.5 -219t-218.5 -91t-219 91t-91 219zM54 230q0 128 91 218.5t219 90.5t218.5 -90.5t90.5 -218.5t-90.5 -219t-218.5 -91t-219 91t-91 219z" />
    <glyph glyph-name="semicolon" unicode=";" horiz-adv-x="699" 
d="M40 1405q0 128 91 218.5t219 90.5t218.5 -91t90.5 -218q0 -128 -90.5 -219t-218.5 -91t-219 91t-91 219zM340 -81q-121 0 -208 95.5t-87 218.5q0 125 91 215t219 90q83 0 149 -32t106.5 -88t61.5 -128.5t21 -156.5q0 -116 -38.5 -233.5t-107.5 -216.5t-178 -161.5
t-238 -62.5q-36 0 -36 30q0 19 30 46q49 46 83 82t71 86t56.5 104.5t19.5 111.5h-15z" />
    <glyph glyph-name="less" unicode="&#x3c;" horiz-adv-x="1078" 
d="M1013 446l-1006 600v147l1006 597v-272l-682 -384v-13l682 -396v-279z" />
    <glyph glyph-name="equal" unicode="=" horiz-adv-x="1060" 
d="M74 1216v244h912v-244h-912zM74 777v244h912v-244h-912z" />
    <glyph glyph-name="greater" unicode="&#x3e;" horiz-adv-x="1077" 
d="M65 446v279l682 396v13l-682 384v272l1006 -597v-147z" />
    <glyph glyph-name="question" unicode="?" horiz-adv-x="1621" 
d="M762 2286q-87 0 -134.5 -59t-47.5 -123t53 -136q54 -75 54 -176q0 -124 -100.5 -205t-234.5 -81q-145 0 -231 97.5t-86 238.5q0 76 27 151t86.5 146t145 125t213.5 87t281 33q112 0 224.5 -21t215.5 -64t183 -103t127.5 -145.5t47.5 -183.5q0 -95 -24 -178t-64.5 -144.5
t-93 -115.5t-110.5 -98.5t-116 -87t-110.5 -86.5t-93 -91t-64.5 -107.5t-24 -129.5h-150q0 163 33 293.5t79.5 215.5t93 162t79.5 172t33 206q0 107 -26 188.5t-69 128t-93 69t-104 22.5zM528 230q0 128 91 218.5t219 90.5t218.5 -90.5t90.5 -218.5t-90.5 -219t-218.5 -91
t-219 91t-91 219z" />
    <glyph glyph-name="at" unicode="@" horiz-adv-x="3230" 
d="M2383 325q0 -76 22.5 -135t60 -93.5t81 -52t90.5 -17.5q156 0 269 175q118 184 142 483q29 349 -88 679q-141 398 -452 626q-347 256 -858 256q-207 0 -391.5 -41.5t-331 -116.5t-269 -179t-210 -228t-148.5 -264.5t-90 -288.5t-29 -300q0 -145 27 -286t82 -273t134 -249
t189 -213.5t241 -166t295 -108t346 -38.5q405 0 694 190q3 2 18 13.5t25.5 16t21.5 4.5q20 0 35 -15t15 -35q0 -11 -4.5 -20.5t-15.5 -19t-18 -14.5t-22 -14t-18 -11q-306 -195 -731 -195q-234 0 -439 55.5t-360.5 155t-278 234.5t-201 295.5t-119 336t-40.5 359.5
q0 161 32 319.5t98.5 308.5t161.5 283t228 244t292 191.5t358.5 125t422.5 44.5q613 0 1015 -344q297 -254 430 -652q116 -346 76 -697q-36 -320 -190 -520q-171 -210 -411 -214q-134 0 -245.5 29.5t-190.5 79t-139.5 120.5t-97.5 148.5t-59 167.5q0 25 -17 25q-7 0 -12 -6
q-31 -122 -83.5 -223t-126.5 -179.5t-175 -122.5t-218 -44q-138 0 -245 98t-161.5 255.5t-78.5 347t6.5 379.5t92 347.5t178 255.5t264.5 98q176 0 304.5 -110t201.5 -296v334h615v-1298zM1414 776q-5 -219 37 -387t112 -168q58 0 104.5 81t71.5 206t29 268v90
q-5 193 -45.5 329t-103.5 136q-58 0 -104.5 -81t-71.5 -206t-29 -268z" />
    <glyph glyph-name="A" unicode="A" horiz-adv-x="2078" 
d="M-13 0v10q36 6 79 31t97.5 80.5t107 134.5t108.5 204.5t102 278.5l337 1131q-76 185 -143 258h868q-19 -45 -19 -140q0 -244 111 -690l126 -503q67 -268 154 -490.5t163 -304.5h-868q19 47 19 143q0 234 -95 622h-538l-8 -26q-60 -194 -60 -343q0 -334 308 -387v-9h-849z
M622 856h490l-111 442q-56 224 -127 425z" />
    <glyph glyph-name="B" unicode="B" horiz-adv-x="1916" 
d="M190 1298q0 284 -30 515t-87 315h227q108 0 395 33q332 37 476 37q109 0 199.5 -14t154 -37.5t112.5 -58.5t79 -73.5t48.5 -85.5t25.5 -91.5t7 -95.5q0 -168 -133 -299t-344 -167q-24 0 -24 -16q0 -7 6.5 -13t17.5 -6q157 0 288 -83t203 -216.5t72 -284.5
q0 -352 -220.5 -538t-602.5 -186q-101 0 -377 32q-282 34 -394 34h-216q55 82 86 305.5t31 490.5v503zM806 1296q189 43 300.5 155t111.5 285q0 80 -19 144.5t-50 106t-73.5 69.5t-87 39.5t-93.5 11.5q-46 0 -89 -13v-798zM1229 625q0 138 -49 263t-147.5 215.5
t-227.5 113.5v-1173q30 -10 62 -10q95 0 179 84t133.5 220.5t49.5 286.5z" />
    <glyph glyph-name="C" unicode="C" horiz-adv-x="1808" 
d="M63 1054q0 125 17 244.5t53 233.5t89 213t130 182t171 142.5t216 92.5t261 33q142 0 346 -33q224 -35 379 -35l-126 -687q-53 324 -165 495.5t-242 171.5q-412 0 -412 -1050q0 -181 28.5 -330.5t85.5 -262.5t149.5 -176t213.5 -63q164 0 285 150t148 386h30
q0 -137 -26.5 -259.5t-84 -230t-141.5 -185t-205.5 -122.5t-268.5 -45q-195 0 -354 64.5t-264.5 173t-177.5 256t-103.5 307.5t-31.5 334z" />
    <glyph glyph-name="D" unicode="D" horiz-adv-x="1941" 
d="M73 2129q98 0 377 30q360 40 545 40q184 0 333 -55t250.5 -151.5t169.5 -232t99 -292.5t31 -338q0 -185 -32 -356.5t-102 -326t-171 -268.5t-249.5 -181t-328.5 -67q-154 0 -444 34q-320 37 -478 37q55 83 86 305t31 490v502q0 283 -30 514.5t-87 315.5zM805 46
q42 -14 81 -14q58 0 105.5 29.5t81 84.5t59.5 120.5t41.5 151.5t26 162.5t15.5 167.5t6.5 153.5t1.5 132.5v225q0 839 -323 839q-46 0 -95 -16v-2036z" />
    <glyph glyph-name="E" unicode="E" horiz-adv-x="1650" 
d="M805 83h16q93 0 177 20.5t162 67t141 116t111 172.5t74 232l101 -691h-1514q55 83 86 305t31 490v503q0 283 -30 514.5t-87 315.5h1514l-101 -691q-26 129 -74 232t-111 172.5t-141 116t-162 67t-177 20.5h-16v-858q90 15 169 43.5t134.5 64t99 74.5t70.5 78t42 70.5
t19 56.5v-895q-9 32 -28.5 72t-62 94t-99.5 101t-147 88.5t-197 60.5v-1012z" />
    <glyph glyph-name="F" unicode="F" horiz-adv-x="1620" 
d="M922 0h-849q55 83 86 305t31 490v503q0 283 -30 514.5t-87 315.5h1514l-101 -691q-26 129 -74 232t-111 172.5t-141 116t-162 67t-177 20.5h-16v-858q90 15 169 43.5t134.5 64t99 74.5t70.5 78t42 70.5t19 56.5v-895q-9 32 -28.5 72t-62 94t-99.5 101t-147 88.5
t-197 60.5v-300q0 -268 31 -490t86 -305z" />
    <glyph glyph-name="G" unicode="G" horiz-adv-x="1872" 
d="M63 1054q0 125 17 244.5t53 233.5t89 213t130 182t171 142.5t216 92.5t261 33q142 0 346 -33q224 -35 379 -35l-126 -687q-53 324 -165 495.5t-242 171.5q-412 0 -412 -1050q0 -181 28.5 -330.5t85 -262.5t148 -176t210.5 -63q43 0 79 9v154q0 283 -30 514.5t-87 315.5
h613q-57 -84 -87 -315.5t-30 -514.5v-388h-186q-51 0 -238 -37l-45 -9q-165 -35 -247 -35q-195 0 -354 64.5t-264.5 173t-177.5 256t-103.5 307.5t-31.5 334z" />
    <glyph glyph-name="H" unicode="H" horiz-adv-x="2048" 
d="M922 2128q-57 -84 -87 -315.5t-30 -514.5v-72h438v72q0 283 -30 514.5t-87 315.5h849q-57 -84 -87 -315.5t-30 -514.5v-503q0 -268 31 -490t86 -305h-849q55 83 86 305t31 490v340h-438v-340q0 -268 31 -490t86 -305h-849q55 83 86 305t31 490v503q0 283 -30 514.5
t-87 315.5h849z" />
    <glyph glyph-name="I" unicode="I" horiz-adv-x="995" 
d="M922 2128q-57 -84 -87 -315.5t-30 -514.5v-503q0 -268 31 -490t86 -305h-849q55 83 86 305t31 490v503q0 283 -30 514.5t-87 315.5h849z" />
    <glyph glyph-name="J" unicode="J" horiz-adv-x="1720" 
d="M744 11q79 0 122 57.5t63.5 202t20.5 412.5v615q0 283 -30 514.5t-87 315.5h814q-57 -84 -87 -315.5t-30 -514.5v-428q0 -128 -9 -231.5t-33 -204.5t-62.5 -177t-100.5 -141.5t-145 -107.5t-196.5 -65.5t-254.5 -23.5q-148 0 -269 25t-202 66.5t-136.5 97t-80 115.5
t-24.5 123q0 84 44 146.5t110.5 92t142.5 29.5q77 0 142.5 -30t109.5 -95t44 -155q0 -70 -43 -135q-31 -47 -31 -77q0 -53 56 -82t152 -29z" />
    <glyph glyph-name="K" unicode="K" horiz-adv-x="2051" 
d="M805 793q0 -267 31 -488.5t86 -304.5h-849q55 83 86 305t31 490v503q0 283 -30 514.5t-87 315.5h849q-57 -84 -87 -315.5t-30 -514.5v-291l187 236l52 64q191 236 191 478q0 122 -49.5 214t-126.5 128h1031q-48 -7 -123 -49t-179.5 -122.5t-246.5 -223t-296 -325.5
l301 -530q168 -295 335.5 -546.5t264.5 -330.5h-963q5 22 5 55q0 252 -276 740l-68 120l-39 -49v-73z" />
    <glyph glyph-name="L" unicode="L" horiz-adv-x="1609" 
d="M922 2128q-55 -83 -86 -305t-31 -490v-1250h16q93 0 177 20.5t162 67t141 116t111 172.5t74 232l101 -691h-1514q57 84 87 315.5t30 514.5v503q0 268 -31 490t-86 305h849z" />
    <glyph glyph-name="M" unicode="M" horiz-adv-x="2505" 
d="M257 1888q-95 170 -169 240h774l489 -1227l410 1228h671q-57 -84 -87 -316t-30 -515v-503q0 -268 31 -490t86 -305h-849q55 83 86 305t31 490v832l-551 -1655h-87l-680 1655v-888q0 -316 115.5 -504t352.5 -226l-1 -9h-849v10q35 6 70 31t73 80.5t67 134.5t47.5 204.5
t18.5 278.5v1109z" />
    <glyph glyph-name="N" unicode="N" horiz-adv-x="1934" 
d="M28 0v10q35 6 70 31t73 80.5t67 134.5t47.5 204.5t18.5 278.5v1008q-191 289 -304 381h824l729 -1315v576q0 316 -115.5 504t-353.5 226l1 9h849v-10q-35 -6 -70 -31t-73 -80.5t-67 -134.5t-47.5 -204.5t-18.5 -278.5v-1416h-336l-913 1613v-847q0 -316 115.5 -504
t353.5 -226l-1 -9h-849z" />
    <glyph glyph-name="O" unicode="O" 
d="M993 -81q-195 0 -353.5 64.5t-264 173t-177.5 256t-103.5 308.5t-31.5 336q0 146 23 283.5t70 266t123.5 234.5t177 186t238.5 124t300 44q195 0 353.5 -64.5t264 -173t177.5 -256t103.5 -308.5t31.5 -336q0 -146 -23 -283.5t-70 -266t-123.5 -234.5t-177 -186
t-238.5 -124t-300 -44zM1004 2103q-73 0 -126.5 -155t-78.5 -390t-25 -509q0 -272 24.5 -502.5t78.5 -383t128 -152.5q73 0 126 153t77.5 385t24.5 508q0 270 -25 503t-78.5 388t-125.5 155z" />
    <glyph glyph-name="P" unicode="P" horiz-adv-x="1877" 
d="M73 2128q102 0 372 30q374 41 559 41q428 0 619 -142t191 -451q0 -173 -57 -308.5t-176 -236t-315 -154t-461 -53.5v-59q0 -268 31 -490t86 -305h-849q55 83 86 305t31 490v503q0 283 -30 514.5t-87 315.5zM1171 1580q0 231 -76.5 374.5t-207.5 143.5q-37 0 -82 -14
v-1136q76 0 139 37.5t104.5 99.5t69.5 144.5t40.5 170.5t12.5 180z" />
    <glyph glyph-name="Q" unicode="Q" horiz-adv-x="2013" 
d="M63 1055q0 147 23 284.5t70 266.5t123.5 235t177 186t238.5 124t300 44q195 0 353.5 -64.5t264 -173t177.5 -256t103.5 -308t31.5 -334.5q0 -176 -34 -337t-101 -304t-178 -255.5t-256 -176.5l-590 -262l96 -53q73 -41 109.5 -59.5t93.5 -35.5t110 -17q65 0 116.5 48.5
t51.5 108.5q0 55 -47 95q111 104 268 104q139 0 239 -86.5t100 -237.5q0 -77 -28.5 -148t-82.5 -128.5t-141.5 -91.5t-196.5 -34q-62 0 -121.5 15t-102 34t-94.5 56t-81 61t-79 70q-45 41 -69.5 61.5t-67 52t-75 47t-77 27.5t-89.5 12q-32 0 -104 -19l-13 -3
q-74 -19 -120 -19q-84 0 -131 49.5t-47 116.5q0 68 47 118.5t127 50.5q43 0 73 -14t67 -43q29 -22 45.5 -32.5t48.5 -22t67 -11.5q61 0 129 30l209 93q-161 0 -298.5 43.5t-238 122t-177.5 184t-124.5 234t-71 266.5t-23.5 286zM1004 2103q-73 0 -126.5 -155t-78.5 -390
t-25 -509q0 -272 24.5 -502.5t78.5 -383t128 -152.5q73 0 126 153t77.5 385t24.5 508q0 270 -25 503t-78.5 388t-125.5 155z" />
    <glyph glyph-name="R" unicode="R" horiz-adv-x="1908" 
d="M73 2128q102 0 372 30q374 41 558 41q428 0 619.5 -141.5t191.5 -447.5q0 -452 -539 -577q183 -76 259 -238l42 -89q113 -239 234.5 -434.5t207.5 -271.5h-849q3 15 3 34q0 100 -70.5 309t-182.5 452l-83 179h-31v-179q0 -268 31 -490t86 -305h-849q55 83 86 305t31 490
v503q0 283 -30 514.5t-87 315.5zM1171 1580q0 231 -76.5 374.5t-207.5 143.5q-37 0 -82 -14v-1016q78 0 139.5 25t103.5 69.5t70 109t40.5 141t12.5 167.5z" />
    <glyph glyph-name="S" unicode="S" horiz-adv-x="1714" 
d="M720 1q59 0 120 27.5t112.5 76.5t84.5 127t33 168q0 38 -13 75t-31 67t-54 65t-64 59t-81 59t-85.5 55t-94.5 58q-214 129 -308 205q-223 179 -261 387q-8 47 -8 95q0 132 47.5 243.5t127.5 189t186 132t223.5 80t240.5 25.5q135 0 333 -33q215 -35 365 -35l-120 -687
q-19 122 -44.5 217t-68 183.5t-99 146t-138.5 91.5t-186 34q-50 0 -94 -7.5t-88 -26t-75.5 -48t-51 -77.5t-19.5 -109q0 -33 11.5 -64t27 -55.5t48 -53.5t57 -48t73 -48t77 -44.5t87.5 -47.5q216 -116 316 -189q250 -183 317 -425q27 -98 27 -208q0 -137 -46 -257t-126 -208
t-185.5 -151.5t-226 -95t-246.5 -31.5q-132 0 -362 40q-242 42 -395 42l151 940q18 -111 28.5 -174.5t35.5 -176t48.5 -181.5t63.5 -155.5t84.5 -134.5t108 -82.5t137.5 -34.5z" />
    <glyph glyph-name="T" unicode="T" horiz-adv-x="1865" 
d="M63 2128h1739l-101 -728q-30 160 -96.5 305.5t-164.5 242t-200 96.5v-1249q0 -268 31 -490t86 -305h-849q55 83 86 305t31 490v1249q-102 0 -200 -96.5t-164.5 -242t-96.5 -305.5z" />
    <glyph glyph-name="U" unicode="U" horiz-adv-x="1978" 
d="M770 676q0 -261 26.5 -409t74.5 -202t128 -54q81 0 124.5 57.5t64 201.5t20.5 413v615q0 283 -30 514.5t-87 315.5h814q-57 -84 -87 -315.5t-30 -514.5v-428q0 -128 -9 -231.5t-33 -204.5t-63 -177t-100.5 -141.5t-144.5 -107.5t-197 -65.5t-256 -23.5q-141 0 -253.5 23
t-195 64.5t-143.5 107t-100 141.5t-62 176.5t-32 204.5t-9 233v429q0 283 -30 514.5t-87 315.5h814q-57 -84 -87 -315.5t-30 -514.5v-622z" />
    <glyph glyph-name="V" unicode="V" horiz-adv-x="2072" 
d="M1506 1389q42 170 42 305q0 370 -325 425v9h849v-10q-36 -6 -77.5 -31t-93.5 -80.5t-100.5 -134.5t-99 -204.5t-88.5 -278.5l-290 -1156q-26 -105 -26 -147q0 -57 28 -86h-690q14 39 14 106q0 233 -145 724l-149 503q-78 265 -176.5 488.5t-178.5 306.5h849
q-14 -39 -14 -108q0 -233 126 -657l158 -533q67 -222 147 -425z" />
    <glyph glyph-name="W" unicode="W" horiz-adv-x="3032" 
d="M2359 0h-654q14 36 14 107q0 243 -131 688l-138 468l-315 -1263h-512q14 36 14 106q0 244 -131 689l-148 503q-83 284 -181 515t-179 315h849q-14 -39 -14 -109q0 -118 38.5 -311.5t101.5 -409.5l148 -503l61 -192l209 852q-77 238 -159 419.5t-152 253.5h849
q-14 -39 -14 -109q0 -118 38.5 -311.5t101.5 -409.5l148 -503l61 -192l193 786q46 189 46 313q0 175 -82 282.5t-247 134.5v9h849v-10q-36 -6 -77.5 -31t-93.5 -80.5t-101 -134.5t-99 -204.5t-88 -278.5l-139 -558q-90 -362 -90 -616q0 -129 24 -215z" />
    <glyph glyph-name="X" unicode="X" horiz-adv-x="2039" 
d="M870 795l-50 88l-44 -64q-137 -199 -137 -410q0 -145 63 -256.5t156 -152.5h-1031q48 7 120 50t169.5 125.5t225 228.5t261.5 335l166 234l-183 325q-161 285 -321.5 516t-263.5 314h903v-6q0 -105 59.5 -252t135.5 -280l136 -240q110 182 110 369q0 144 -62.5 255
t-156.5 152h1031q-48 -7 -119.5 -50t-169 -125.5t-225 -228.5t-261.5 -335l-93 -131l215 -379q168 -295 335.5 -546.5t264.5 -330.5h-963q5 22 5 55q0 252 -276 740z" />
    <glyph glyph-name="Y" unicode="Y" horiz-adv-x="2278" 
d="M744 1014l-159 282q-159 283 -320 514.5t-265 315.5h903v-6q0 -105 59.5 -252t135.5 -280l193 -339l38 56q136 202 136 411q0 145 -62.5 256.5t-155.5 151.5h1031q-48 -7 -120 -50t-169 -125.5t-224.5 -228.5t-261.5 -335l-144 -200v-390q0 -268 31 -490t86 -305h-849
q55 83 86 305t31 490v219z" />
    <glyph glyph-name="Z" unicode="Z" horiz-adv-x="1644" 
d="M12 0q85 82 197.5 304.5t211.5 490.5l463 1249h-156q-102 0 -200 -96.5t-164.5 -242t-96.5 -305.5l-101 728h1474q-86 -83 -199.5 -312.5t-220.5 -517.5l-455 -1214h283q102 0 200 96.5t164.5 242t96.5 305.5l101 -728h-1598z" />
    <glyph glyph-name="bracketleft" unicode="[" horiz-adv-x="677" 
d="M74 2387h588v-160h-235v-2718h235v-160h-588v3038z" />
    <glyph glyph-name="backslash" unicode="\" horiz-adv-x="1235" 
d="M1231 0h-97l-1130 2324h97z" />
    <glyph glyph-name="bracketright" unicode="]" horiz-adv-x="676" 
d="M603 2387v-3038h-588v160h235v2718h-235v160h588z" />
    <glyph glyph-name="asciicircum" unicode="^" horiz-adv-x="1472" 
d="M29 957l637 1250h140l637 -1250h-263l-440 885h-14l-443 -885h-254z" />
    <glyph glyph-name="underscore" unicode="_" horiz-adv-x="1409" 
d="M1335 -526v-181h-1261v181h1261z" />
    <glyph glyph-name="grave" unicode="`" horiz-adv-x="574" 
d="M549 2049l-42 -37q-5 -4 -10 -4q-3 0 -9 4l-400 278q-59 41 -66 101t29.5 103.5t92.5 43.5q91 0 158 -100l247 -371q9 -9 0 -18z" />
    <glyph glyph-name="a" unicode="a" horiz-adv-x="1756" 
d="M1703 162q-37 -112 -137 -177t-215 -65q-63 0 -118.5 21t-100.5 62t-71.5 110t-26.5 157v182q0 12 -5.5 18.5t-12.5 5.5q-17 -2 -17 -24v-28q-4 -122 -49 -220.5t-116 -159t-157.5 -92.5t-179.5 -32q-71 0 -138.5 18.5t-126.5 56.5t-103.5 91.5t-70 129t-25.5 163.5
q0 92 27 178t85 163.5t141.5 135t204 91.5t265.5 34q140 0 207 -9v386q0 139 -52 203t-129 64q-66 0 -118 -40t-52 -93q0 -30 31 -77q43 -65 43 -135q0 -90 -44 -155t-109.5 -95t-142.5 -30q-76 0 -142.5 29.5t-110.5 92t-44 146.5q0 63 24.5 123t80 115.5t136.5 97
t202 66.5t269 25q122 0 230 -16.5t209.5 -56.5t174 -101.5t116 -158t43.5 -218.5v-752q0 -210 125 -230zM963 624v279q-77 0 -138.5 -32.5t-97 -85.5t-54 -115t-18.5 -126q0 -96 37 -163t100 -67q69 0 120 80.5t51 229.5z" />
    <glyph glyph-name="b" unicode="b" horiz-adv-x="1887" 
d="M762 445l-6 24q-4 7 -12 7h-2q-17 -2 -17 -24v-452h-544v1423q0 282 -30.5 514t-87.5 316h732v-1000q76 206 219.5 324.5t347.5 118.5q118 0 213 -70t155 -189.5t92 -270.5t32 -319q0 -175 -34.5 -337.5t-100 -296t-173 -214t-240.5 -80.5q-104 0 -194 40.5t-157 113
t-115.5 166.5t-77.5 206zM1154 842q0 105 -10 203t-28 176t-47 125t-64 47q-58 0 -106 -81t-73.5 -208t-25.5 -270q0 -105 10 -203t28 -176t47 -125t64 -47q58 0 106 81t73.5 208t25.5 270z" />
    <glyph glyph-name="c" unicode="c" horiz-adv-x="1646" 
d="M963 1695q134 0 244 -32t180 -82t118.5 -114t68.5 -125t20 -118q0 -118 -84 -199.5t-220 -81.5q-132 0 -210.5 79.5t-78.5 215.5q0 81 46 159q28 48 28 90q0 46 -24 76t-48 39t-44 9q-39 0 -71.5 -26.5t-55 -75t-40 -105.5t-27.5 -128t-17 -132.5t-10 -129t-4 -107
t-1 -77.5q0 -138 25.5 -250t67.5 -185.5t99.5 -123t119 -71t127.5 -21.5q115 0 216 63.5t157 167.5q0 -93 -35.5 -173t-97.5 -137.5t-144.5 -99t-177 -61.5t-194.5 -20q-165 0 -306.5 50.5t-242.5 136.5t-172.5 199.5t-106.5 242t-35 261.5q0 136 36 264t112 241t184 197.5
t262 134t336 49.5z" />
    <glyph glyph-name="d" unicode="d" horiz-adv-x="1883" 
d="M1088 1423q0 283 -30 514.5t-87 315.5h732v-1423q0 -283 30 -514.5t87 -315.5h-662v479q0 25 -17 25q-6 0 -8 -2q-30 -124 -82.5 -227.5t-126.5 -184t-176.5 -126t-221.5 -45.5q-118 0 -214 72.5t-155.5 194.5t-91 273.5t-31.5 317.5q0 138 21.5 269.5t66.5 249
t108.5 205.5t154 140t197.5 52q176 0 304.5 -109.5t201.5 -295.5v135zM734 788q0 -105 10 -203t28 -176t47 -125t64 -47q58 0 106 80.5t73.5 207t25.5 267.5v90q0 189 -42.5 327t-106.5 138q-58 0 -106 -81t-73.5 -208t-25.5 -270z" />
    <glyph glyph-name="e" unicode="e" horiz-adv-x="1676" 
d="M755 595q20 -91 53.5 -164t84 -130.5t123 -89t162.5 -31.5q116 0 216.5 63.5t156.5 166.5q0 -92 -35.5 -172t-97.5 -138t-144.5 -99t-177 -61.5t-194.5 -20.5q-165 0 -307 50.5t-244 136.5t-174.5 200t-108 242.5t-35.5 262.5t36 262t109 241t174.5 198t243 134t304.5 49
q142 0 262 -32.5t204 -87.5t143 -129t87 -156t28 -169q0 -106 -43 -203.5t-123 -175.5t-209 -125t-287 -47q-135 0 -207 25zM742 667q38 -10 74 -10q66 0 116 38t77.5 104t41 144.5t13.5 169.5q0 184 -45.5 341t-98.5 157q-42 0 -87 -103t-76 -273.5t-31 -342.5
q0 -119 16 -225z" />
    <glyph glyph-name="f" unicode="f" horiz-adv-x="1014" 
d="M914 0h-851q55 83 86.5 305.5t31.5 489.5v723h-116v107h116v290q0 99 28 182.5t76 142t112 99t135.5 60t147.5 19.5q91 0 163 -28t116 -75t67 -104.5t23 -119.5q0 -79 -28 -142.5t-75 -102t-103.5 -58.5t-116.5 -20q-109 0 -186 60t-77 164q0 12 -5.5 18.5t-12.5 5.5
q-17 -2 -17 -24q0 -176 97 -271.5t240 -95.5h244v-107h-213v-723q0 -267 31.5 -489.5t86.5 -305.5z" />
    <glyph glyph-name="g" unicode="g" horiz-adv-x="1832" 
d="M312 198q154 0 304.5 55t238.5 150q-169 8 -306 49.5t-228.5 104.5t-153.5 147t-89 174.5t-27 188.5q0 96 33 186t104 170.5t173 140.5t250.5 95t326.5 35h98q17 79 44.5 159t72.5 166.5t100 152t131 108t161 42.5q99 0 171 -46.5t105 -116t33 -151.5t-33.5 -152.5
t-105.5 -117.5t-169 -47q-120 0 -198 68q-86 74 -150 74q-51 0 -66 -51l-28 -96q165 -23 296.5 -84t214 -146t126 -184.5t43.5 -204.5q0 -104 -38 -203t-104 -179.5t-154.5 -152.5t-189 -127t-208 -97.5t-211 -68.5t-199.5 -36q-18 0 -18 -18t19 -18h360q295 0 476.5 -127.5
t181.5 -323.5q0 -106 -56.5 -208t-158.5 -184t-260 -132.5t-344 -50.5q-154 0 -283 29.5t-216 78t-147 113t-87.5 133t-27.5 138.5q0 133 94 225t254 92q136 0 218 -70.5t82 -201.5q0 -56 -15.5 -103t-49.5 -113q-37 -73 -47 -101q-8 -24 -8 -39q0 -40 36.5 -63t96.5 -23
q107 0 170 102t63 248q0 115 -26 203.5t-74.5 147.5t-108 96t-137.5 60q-64 19 -142 19q-108 0 -213 -35v121zM930 1640q-44 0 -77.5 -52.5t-50.5 -124t-28 -161t-13.5 -146.5t-2.5 -98q0 -118 8.5 -219.5t27 -188.5t51 -137.5t76.5 -50.5q38 0 69 38.5t49.5 102.5t32 134
t19.5 145.5t8.5 124t2.5 81.5q0 110 -11 208t-31.5 175.5t-54 123t-75.5 45.5z" />
    <glyph glyph-name="h" unicode="h" horiz-adv-x="1924" 
d="M805 0h-732q57 84 87 316.5t30 515.5v591q0 283 -30 514.5t-87 315.5h732v-974q77 201 219 316.5t343 115.5q106 0 185.5 -29t127 -75t76.5 -114t39 -135t10 -148q0 -99 -19 -268q-12 -96 -12 -147q0 -268 31 -490t86 -305h-849q55 83 86 305t31 490v43q0 107 -10 205.5
t-28 177t-47 125.5t-64 47q-58 0 -106 -80.5t-73.5 -207t-25.5 -267.5v-838z" />
    <glyph glyph-name="i" unicode="i" horiz-adv-x="965" 
d="M133 2094q0 134 95.5 229t230.5 95q134 0 228.5 -95t94.5 -229t-95 -229.5t-228 -95.5q-135 0 -230.5 95.5t-95.5 229.5zM795 806q0 -280 30 -501t87 -305h-849q57 84 87 305t30 501q0 282 -30 508.5t-87 310.5h732v-819z" />
    <glyph glyph-name="j" unicode="j" horiz-adv-x="854" 
d="M113 2094q0 134 95.5 229t230.5 95q134 0 228.5 -95t94.5 -229t-95 -229.5t-228 -95.5q-135 0 -230.5 95.5t-95.5 229.5zM771 1625v-1915q0 -99 -28 -182.5t-76 -142t-112 -99t-135.5 -60t-147.5 -19.5q-91 0 -163 28t-116 75t-67 104.5t-23 119.5q0 79 28 142.5t75 102
t103.5 58.5t116.5 20q109 0 186 -60t77 -164q0 -12 5.5 -18.5t12.5 -5.5q17 2 17 24q0 176 -97 271t-240 95h-31v831q0 267 -31.5 489.5t-86.5 305.5h733z" />
    <glyph glyph-name="k" unicode="k" horiz-adv-x="1803" 
d="M807 800q42 186 103.5 338.5t129.5 254.5t145 172t150.5 101t146.5 31h8q70 0 127 -26t92 -69t53.5 -96.5t18.5 -112.5q0 -126 -79 -219t-219 -93q-57 0 -103.5 8t-83.5 25t-55.5 28t-46.5 31q-48 34 -69 34q-41 0 -86.5 -56t-86.5 -159q79 25 170 25q155 0 283.5 -66.5
t148.5 -164.5q54 -270 127 -485t143 -301h-800q19 37 19 131q0 182 -85 670q-6 31 -33 31t-33 -31l-25 -123q-43 -213 -62 -337v-341h-732q55 83 86 305t31 490v628q0 283 -30 514.5t-87 315.5h734v-1453z" />
    <glyph glyph-name="l" unicode="l" horiz-adv-x="995" 
d="M805 2253v-1458q0 -268 31 -490t86 -305h-849q55 83 86 305t31 490v628q0 283 -30 514.5t-87 315.5h732z" />
    <glyph glyph-name="m" unicode="m" horiz-adv-x="2905" 
d="M795 838v-838h-732q57 84 87 305t30 501q0 282 -30 508.5t-87 310.5h732v-346q77 201 219 316.5t343 115.5q89 0 159.5 -20.5t117 -54.5t79.5 -83.5t50 -103t25 -117.5q81 178 217 278.5t323 100.5q106 0 185.5 -29t127 -75t76.5 -114t39 -135t10 -148q0 -99 -19 -268
q-12 -96 -12 -147q0 -268 31 -490t86 -305h-849q55 83 86 305t31 490v43q0 107 -10 205.5t-28 177t-47 125.5t-64 47q-47 0 -85 -47.5t-60 -116.5t-37 -155t-20 -155t-5 -124q0 -268 31 -490t86 -305h-849q55 83 86 305t31 490v43q0 107 -10 205.5t-28 177t-47 125.5t-64 47
q-58 0 -106 -80.5t-73.5 -207t-25.5 -267.5z" />
    <glyph glyph-name="n" unicode="n" horiz-adv-x="1934" 
d="M795 838v-838h-732q57 84 87 305t30 501q0 282 -30 508.5t-87 310.5h732v-346q77 201 219 316.5t343 115.5q106 0 185.5 -29t127 -75t76.5 -114t39 -135t10 -148q0 -99 -19 -268q-12 -96 -12 -147q0 -268 31 -490t86 -305h-849q55 83 86 305t31 490v43q0 107 -10 205.5
t-28 177t-47 125.5t-64 47q-58 0 -106 -80.5t-73.5 -207t-25.5 -267.5z" />
    <glyph glyph-name="o" unicode="o" horiz-adv-x="1817" 
d="M915 -81q-165 0 -308.5 50t-247 136t-178.5 199t-111.5 242t-36.5 262q0 134 37.5 263t112.5 242t179 198t247 134.5t306 49.5t304 -49.5t243.5 -134.5t176 -198t109.5 -241.5t36 -263.5q0 -134 -35.5 -262t-108.5 -241.5t-175 -199.5t-244 -136t-306 -50zM918 1610
q-55 0 -98.5 -110.5t-65 -282t-21.5 -367.5q0 -222 15.5 -404t54 -310t96.5 -128t102 124t65 311.5t21 403.5q0 199 -17.5 367.5t-57 282t-94.5 113.5z" />
    <glyph glyph-name="p" unicode="p" horiz-adv-x="1877" 
d="M715 167q0 -268 31 -490t86 -305h-779q55 83 86 305t31 490v628q0 283 -30 514.5t-87 315.5h732v-372q76 206 219.5 324.5t347.5 118.5q118 0 213 -70t155 -189.5t92 -270.5t32 -319q0 -175 -34.5 -337.5t-100 -296t-173 -214t-240.5 -80.5q-104 0 -194 40.5t-157 113
t-115.5 166.5t-77.5 206l-6 24q-4 7 -12 7h-2q-17 -2 -17 -24v-285zM1144 842q0 105 -10 203t-28 176t-47 125t-64 47q-58 0 -106 -81t-73.5 -208t-25.5 -270q0 -105 10 -203t28 -176t47 -125t64 -47q58 0 106 81t73.5 208t25.5 270z" />
    <glyph glyph-name="q" unicode="q" horiz-adv-x="1800" 
d="M582 1695q176 0 304.5 -110t201.5 -296v334h615v-1421q0 -283 30 -514.5t87 -315.5h-779q57 84 87 315.5t30 514.5v262q0 25 -17 25q-7 0 -12 -6q-31 -122 -83.5 -223t-126.5 -179.5t-175 -122.5t-218 -44q-118 0 -214 73t-155.5 195t-91 274.5t-31.5 318.5
q0 139 21.5 270.5t66.5 249.5t108.5 207t154 141t197.5 52zM734 772q0 -105 10 -203t28 -176t47 -125t64 -47q58 0 106 80.5t73.5 207t25.5 267.5v90q0 189 -42.5 327t-106.5 138q-58 0 -106 -81t-73.5 -208t-25.5 -270z" />
    <glyph glyph-name="r" unicode="r" horiz-adv-x="1691" 
d="M1007 1393q-62 0 -111 -81t-75 -207t-26 -267v-32q0 -280 30 -501t87 -305h-849q57 84 87 305t30 501q0 282 -30 508.5t-87 310.5h732v-346q77 201 219 316.5t343 115.5q141 0 228 -90.5t87 -219.5q0 -135 -92.5 -229t-222.5 -94q-122 0 -190.5 59t-96.5 178
q-7 29 -11.5 42t-17.5 24.5t-34 11.5z" />
    <glyph glyph-name="s" unicode="s" horiz-adv-x="1588" 
d="M615 233q-63 -92 -63 -140q0 -35 35.5 -56t88.5 -21q41 0 81 13.5t75.5 40t57.5 72t22 103.5q0 71 -50 146t-141 129l-326 194q-137 82 -227.5 214t-90.5 263q0 100 44.5 184.5t120 143t175.5 99.5t210.5 60t225.5 19q128 0 244.5 -24.5t208.5 -70t146.5 -117.5
t54.5 -161q0 -96 -81 -163.5t-213 -67.5q-126 0 -199.5 64.5t-73.5 180.5q0 35 9 58.5t35 52.5q25 27 25 56q0 57 -56 89.5t-134 32.5q-59 0 -110.5 -18t-87 -59t-35.5 -98q0 -64 44 -129.5t127 -112.5l418 -235q80 -45 138 -89t112 -105.5t82 -141.5t28 -177
q0 -107 -46.5 -198t-125 -154t-183 -107t-219.5 -64.5t-235 -20.5q-132 0 -252 26t-214.5 74t-150.5 125t-56 171q0 65 27 117.5t72 84.5t99.5 48.5t114.5 16.5q108 0 189 -50.5t92 -142.5q3 -11 3 -35q0 -68 -35 -120z" />
    <glyph glyph-name="t" unicode="t" horiz-adv-x="934" 
d="M147 270v1248h-114v107q120 0 227 26.5t199 81t158.5 145t97.5 209.5h47v-462h130v-107h-130v-1126q0 -210 125 -230q-19 -100 -139 -171.5t-260 -71.5q-68 0 -127 19.5t-108 59.5t-77.5 110t-28.5 162z" />
    <glyph glyph-name="u" unicode="u" horiz-adv-x="1904" 
d="M785 1625v-838q0 -107 10 -205.5t28 -177t47 -125.5t64 -47q58 0 106 80.5t73.5 207t25.5 267.5v32q0 280 -30 501t-87 305h732v-795q0 -283 30 -514.5t87 -315.5h-662v456q0 26 -18 26q-7 0 -12 -7q-42 -166 -120 -289.5t-202 -197.5t-280 -74q-106 0 -185.5 29t-127 75
t-76.5 114t-39 135t-10 148q0 99 19 268q12 96 12 147q0 268 -31 490t-86 305h732z" />
    <glyph glyph-name="v" unicode="v" horiz-adv-x="1685" 
d="M1383 1053l-110 -7q-132 0 -226.5 95.5t-94.5 229.5t95.5 229t230.5 95q103 0 182.5 -38.5t128.5 -107.5t73.5 -159t24.5 -199q0 -113 -25.5 -236t-76.5 -246t-122 -239t-167 -216t-206 -174.5t-245 -117.5t-278 -43q-106 0 -185.5 29t-127 75t-76.5 114t-39 135t-10 148
q0 99 19 268q12 96 12 147q0 267 -31 487t-86 303h732v-1002q0 -204 57.5 -298t158.5 -94q76 0 162.5 65.5t157.5 163.5t126.5 207t80.5 201q12 46 12 74q0 111 -147 111z" />
    <glyph glyph-name="w" unicode="w" horiz-adv-x="2656" 
d="M2354 1053l-110 -7q-132 0 -226.5 95.5t-94.5 229.5t95.5 229t230.5 95q102 0 181 -39t128 -109t73.5 -161.5t24.5 -201.5q0 -113 -25 -235.5t-75.5 -245t-120.5 -237.5t-165.5 -214.5t-205.5 -173.5t-245.5 -116.5t-280.5 -42.5q-382 0 -431 375q-81 -178 -217 -279
t-323 -101q-106 0 -185.5 29t-127 75t-76.5 114t-39 135t-10 148q0 99 19 268q12 96 12 147q0 268 -31 490t-86 305h732v-838q0 -107 10 -205t29 -177t50 -126t70 -47q54 0 99.5 87.5t71.5 226.5l14 140q12 98 12 149q0 267 -31 487t-86 303h732v-998q0 -204 57.5 -298
t158.5 -94q76 0 162.5 65t157.5 162t126.5 205.5t80.5 200.5q12 46 12 74q0 111 -147 111z" />
    <glyph glyph-name="x" unicode="x" horiz-adv-x="1849" 
d="M1183 917l57 -122q123 -263 268 -453t341 -342h-921l-296 650l-46 -81q-83 -147 -83 -286q0 -93 38 -167t108 -117h-720q300 232 489 493l176 263l-18 40q-120 268 -270 504.5t-253 325.5h857l231 -602l18 32q82 145 82 286q0 93 -37.5 167.5t-107.5 116.5h720
q-300 -232 -489 -493z" />
    <glyph glyph-name="y" unicode="y" horiz-adv-x="1837" 
d="M785 1625v-838q0 -107 10 -205.5t28 -177t47 -125.5t64 -47q58 0 106 80.5t73.5 207t25.5 267.5v32q0 280 -30 501t-87 305h732v-1811q0 -674 -729 -674q-148 0 -267.5 25t-195.5 65.5t-127 96t-72.5 113t-21.5 119.5q0 130 88.5 203t208.5 73q77 0 142.5 -30t109.5 -95
t44 -155q0 -70 -43 -135q-31 -46 -31 -77q0 -53 52 -93t118 -40q179 0 179 337v909q0 26 -18 26q-7 0 -12 -7q-42 -166 -120 -289.5t-202 -197.5t-280 -74q-106 0 -185.5 29t-127 75t-76.5 114t-39 135t-10 148q0 99 19 268q12 96 12 147q0 268 -31 490t-86 305h732z" />
    <glyph glyph-name="z" unicode="z" horiz-adv-x="1883" 
d="M816 26q145 -41 292 -41q104 0 168.5 25.5t64.5 78.5q0 39 -29 54q-71 37 -108 105.5t-37 147.5q0 126 86.5 219.5t235.5 93.5q86 0 153.5 -28t107 -74t59.5 -100.5t20 -113.5q0 -221 -189 -349.5t-507 -128.5q-177 0 -431 42q-265 43 -436 43h-213q67 59 157 194.5
t221 357.5l599 1021q-215 53 -372 53q-113 0 -113 -84q0 -26 11.5 -50.5t23 -39t34.5 -37.5q48 -49 69.5 -89t21.5 -98q0 -116 -81.5 -189.5t-205.5 -73.5q-142 0 -225 97t-83 234q0 77 29 149.5t85.5 133.5t153 98t218.5 37q188 0 471 -48q242 -41 400 -41h342
q-67 -58 -156.5 -193t-221.5 -359z" />
    <glyph glyph-name="braceleft" unicode="{" horiz-adv-x="1126" 
d="M10 819v82q95 0 171.5 60t124 161.5t72.5 228t25 265.5q0 188 54.5 337t150.5 242.5t222.5 142.5t274.5 49v-82q-94 0 -170.5 -59t-124 -158t-73 -222t-25.5 -256q0 -292 -121.5 -484.5t-329.5 -265.5q208 -73 329.5 -265.5t121.5 -484.5q0 -133 25.5 -256t73 -222
t124 -158t170.5 -59v-82q-148 0 -274.5 49t-222.5 142.5t-150.5 242.5t-54.5 337q0 139 -25 265.5t-72.5 228t-124 161.5t-171.5 60z" />
    <glyph glyph-name="bar" unicode="|" horiz-adv-x="388" 
d="M316 -667h-244v3011h244v-3011z" />
    <glyph glyph-name="braceright" unicode="}" horiz-adv-x="1126" 
d="M1116 819q-95 0 -171.5 -60t-124 -161.5t-72.5 -228t-25 -265.5q0 -188 -54.5 -337t-150.5 -242.5t-222.5 -142.5t-274.5 -49v82q94 0 170.5 59t124 158t73 222t25.5 256q0 292 121.5 484.5t329.5 265.5q-208 73 -329.5 265.5t-121.5 484.5q0 133 -25.5 256t-73 222
t-124 158t-170.5 59v82q148 0 274.5 -49t222.5 -142.5t150.5 -242.5t54.5 -337q0 -139 25 -265.5t72.5 -228t124 -161.5t171.5 -60v-82z" />
    <glyph glyph-name="asciitilde" unicode="~" horiz-adv-x="1234" 
d="M1088 1445h82q0 -49 -4 -97t-14.5 -107t-31.5 -108.5t-50.5 -92t-76.5 -67t-106 -24.5q-56 0 -136 27.5t-148 60.5t-149.5 60.5t-140.5 27.5q-77 0 -124 -42t-47 -134h-78q0 243 73 370t201 127q57 0 140.5 -28t155 -61.5t153 -61.5t135.5 -28q77 0 121.5 44t44.5 134z
" />
    <glyph glyph-name="exclamdown" unicode="&#xa1;" horiz-adv-x="834" 
d="M789 2007q0 -154 -109.5 -263t-263.5 -109q-153 0 -262 109t-109 263t109 263t262 109q154 0 263.5 -109t109.5 -263zM355 1554h120q0 -131 11 -239.5t35.5 -203.5t41.5 -146t51 -141q37 -97 55 -151.5t35.5 -152.5t17.5 -202q0 -148 -91 -231t-216 -83t-216 83t-91 231
q0 104 17.5 202t35.5 152.5t55 151.5q34 90 51 141t41.5 146t35.5 203.5t11 239.5z" />
    <glyph glyph-name="cent" unicode="&#xa2;" horiz-adv-x="1667" 
d="M799 0v234q-142 18 -263.5 76t-208 144t-148 194.5t-91.5 228.5t-30 245q0 151 47 291.5t136.5 259.5t233 203t324.5 113v348h244v-335q122 -6 222 -41t164.5 -84.5t108.5 -112t62.5 -121.5t18.5 -115q0 -115 -84.5 -196t-221.5 -81q-130 0 -208.5 78t-78.5 207
q0 54 11.5 94t25.5 59t25.5 44.5t11.5 52.5q0 38 -13.5 66t-33.5 41.5t-37.5 19.5t-31.5 6q-39 0 -71.5 -26.5t-55 -75t-40 -105.5t-27.5 -128t-17 -132.5t-10 -129t-4 -107t-1 -77.5q0 -138 25.5 -250t67.5 -185.5t99.5 -123t119 -71t127.5 -21.5q115 0 216 63.5t157 167.5
q0 -102 -42 -187.5t-115.5 -145t-167.5 -98t-202 -52.5v-235h-244z" />
    <glyph glyph-name="sterling" unicode="&#xa3;" horiz-adv-x="2129" 
d="M199 1096v143h176q7 529 232 792t652 263q150 0 278.5 -34t226 -100t153 -170t55.5 -236q0 -141 -86 -238.5t-231 -97.5q-134 0 -234.5 81t-100.5 205q0 101 54 176q53 72 53 136q0 186 -168 186q-38 0 -75 -18t-72.5 -57.5t-62 -96.5t-42.5 -142t-16 -186v-463h609v-143
h-609v-19q0 -236 -34.5 -446.5t-113 -374t-189.5 -207.5q71 -4 212 -14t232 -15.5t132 -5.5q120 0 176 102q50 91 25 206q-26 118 -116 176q-59 37 -134 37q0 83 30.5 150.5t81.5 109.5t115 64.5t133 22.5q195 0 308 -136q99 -119 97 -289q-2 -180 -116 -321
q-146 -179 -414 -211q-53 -6 -110 -6q-126 0 -531.5 40t-568.5 40h-171v50q61 9 112 41.5t86.5 79t63 112t44 131t27 147t15 149t4.5 146.5t-1.5 130.5t-4.5 110.5h-182z" />
    <glyph glyph-name="currency" unicode="&#xa4;" horiz-adv-x="1754" 
d="M1687 496l-113 -121q-11 -12 -23 -12q-13 0 -25 12l-296 279q-63 -46 -168 -71t-201 -25q-92 0 -189.5 25.5t-168.5 80.5l-282 -292q-9 -9 -19 -9q-11 0 -23 12l-113 128q-18 20 3 41l283 272q-55 57 -93.5 152t-41.5 196q13 251 145 392l-286 255q-33 30 -7 58l117 124
q9 9 18 9q10 0 24 -12l303 -286q57 39 163.5 66t211.5 27q191 0 327 -93l289 283q10 10 19 10t19 -10l114 -114q10 -10 12 -22.5t-5 -18.5l-276 -259q58 -65 94.5 -172.5t36.5 -202.5q0 -111 -35 -214t-99 -172l289 -278q17 -15 -4 -38zM878 799q166 0 253.5 102.5
t87.5 275.5q0 164 -88.5 271.5t-245.5 107.5q-113 0 -193.5 -53t-117.5 -137t-37 -189q0 -155 94.5 -266.5t246.5 -111.5z" />
    <glyph glyph-name="yen" unicode="&#xa5;" horiz-adv-x="2325" 
d="M539 864v157h230l-155 275q-159 283 -320 514.5t-265 315.5h903q-13 -122 195 -538l193 -339l38 56q73 107 107 219t29.5 206t-33 175.5t-77.5 137.5t-108 81h1031q-48 -7 -120 -50t-169 -125.5t-224.5 -228.5t-261.5 -335l-144 -200v-164h250v-157h-250v-69
q0 -9 0.5 -28t0.5 -28h249v-157h-244q11 -206 39.5 -361.5t71.5 -220.5h-849q43 65 71.5 220.5t39.5 361.5h-228v157h233q0 9 0.5 28t0.5 28v69h-234z" />
    <glyph glyph-name="brokenbar" unicode="&#xa6;" horiz-adv-x="388" 
d="M316 1097h-244v1247h244v-1247zM72 580h244v-1247h-244v1247z" />
    <glyph glyph-name="section" unicode="&#xa7;" horiz-adv-x="1779" 
d="M58 -799l139 736q15 -81 30.5 -147.5t40.5 -144t54.5 -136.5t71.5 -116.5t92 -95t116.5 -60.5t144.5 -23q62 0 126 24.5t118 68.5t88.5 113t34.5 150q0 27 -8.5 52.5t-20 47.5t-35.5 47t-43.5 42.5t-56.5 42t-61.5 40t-71 40.5t-72.5 38.5l-78 40.5q-63 33 -96 50
t-92.5 51t-93.5 56.5t-83.5 58.5t-78 65.5t-62.5 70t-51.5 79.5t-30 86t-12.5 96q0 181 110 312t296 204q-90 51 -156.5 100t-126.5 111.5t-91.5 137t-31.5 158.5q0 117 49.5 216.5t133.5 169t196.5 118t236.5 71.5t255 23q129 0 341 -29q222 -32 382 -32l-126 -613
q-20 109 -46.5 193.5t-71.5 163.5t-104 130.5t-145.5 82t-195.5 30.5q-61 0 -121 -19.5t-109.5 -55.5t-80 -93t-30.5 -126q0 -35 9 -68.5t22 -61t39.5 -56.5t47.5 -49.5t61 -47t66.5 -42.5t76.5 -41.5t77 -39t83 -39.5q96 -46 146 -71.5t133.5 -73t128.5 -90t94.5 -101
t71 -128t21.5 -149.5q0 -173 -105 -302t-289 -205q89 -47 155 -93t125 -107.5t90 -139.5t31 -170q0 -149 -82.5 -269t-218 -193t-297.5 -111.5t-333 -38.5q-132 0 -344 29q-222 32 -382 32zM1047 391q67 88 67 202q0 33 -12.5 65t-31 58.5t-53 56.5t-65 51.5t-81 51
t-86 48.5t-94.5 50q-60 -73 -60 -169q0 -57 23 -109t58 -91t93.5 -79.5t111.5 -69t130 -65.5z" />
    <glyph glyph-name="dieresis" unicode="&#xa8;" horiz-adv-x="974" 
d="M733 2360q73 0 124.5 -51.5t51.5 -124.5t-51.5 -124.5t-124.5 -51.5q-71 0 -123.5 53t-52.5 123q0 72 52 124t124 52zM239 2360q75 0 125.5 -50.5t50.5 -125.5q0 -73 -51.5 -124.5t-124.5 -51.5q-72 0 -123 52t-51 124t51 124t123 52z" />
    <glyph glyph-name="copyright" unicode="&#xa9;" horiz-adv-x="1632" 
d="M55 1109q0 155 60.5 296t162 242.5t242.5 162t296 60.5t296 -60.5t242.5 -162t162 -242.5t60.5 -296t-60.5 -296t-162 -243t-242.5 -162.5t-296 -60.5t-296 60.5t-242.5 162.5t-162 243t-60.5 296zM144 1115q0 -137 53 -261.5t143 -214.5t214.5 -143.5t261.5 -53.5
q182 0 336.5 90t244.5 245t90 338q0 182 -90 336.5t-244.5 244.5t-336.5 90t-337 -90t-245 -244.5t-90 -336.5zM968 742q70 0 126.5 38.5t74.5 99.5h19q0 -91 -56 -159.5t-141.5 -101.5t-185.5 -33q-107 0 -193.5 29.5t-142.5 79.5t-93.5 119t-53.5 143t-16 157
q0 102 34 196.5t98.5 171t169.5 122.5t236 46q98 0 173.5 -23t117 -60.5t62 -79.5t20.5 -85q0 -69 -50 -118t-131 -49q-77 0 -123.5 47t-46.5 124q0 41 11 68t22 44.5t11 37.5q0 37 -32 37q-61 0 -107 -54.5t-68 -139.5t-22 -186q0 -125 25 -219.5t67.5 -147.5t91.5 -78.5
t103 -25.5z" />
    <glyph glyph-name="ordfeminine" unicode="&#xaa;" horiz-adv-x="1003" 
d="M1017 1529q-23 -66 -81.5 -104.5t-127.5 -38.5q-78 0 -132.5 53t-54.5 155v107q0 14 -11 14q-10 -2 -10 -14v-15q-5 -142 -93 -221t-205 -79q-113 0 -194 73t-81 202q0 68 26.5 129.5t77 112.5t135.5 81.5t193 30.5q88 0 120 -6v229q0 82 -31 120.5t-76 38.5
q-39 0 -70.5 -23t-31.5 -51q0 -22 22 -56.5t22 -76.5q0 -77 -52 -120t-123 -43q-72 0 -124 43t-52 120q0 46 24.5 88.5t73 79t133 58.5t193.5 22q91 0 168.5 -16.5t144 -53t105 -102t38.5 -155.5v-445q0 -124 74 -137zM579 1803v166q-89 0 -136 -64.5t-47 -148.5
q0 -57 22 -96.5t59 -39.5q41 0 71.5 47.5t30.5 135.5z" />
    <glyph glyph-name="guillemotleft" unicode="&#xab;" horiz-adv-x="1868" 
d="M1011 0h-134l-849 816l857 815h126l-414 -815zM1810 0h-134l-849 816l857 815h126l-414 -815z" />
    <glyph glyph-name="logicalnot" unicode="&#xac;" horiz-adv-x="1631" 
d="M5 1501v181h1551v-559h-181v378h-1370z" />
    <glyph glyph-name="registered" unicode="&#xae;" horiz-adv-x="1632" 
d="M55 1588q0 155 60.5 296t162 242.5t242.5 162t296 60.5t296 -60.5t242.5 -162t162 -242.5t60.5 -296t-60.5 -296t-162 -243t-242.5 -162.5t-296 -60.5t-296 60.5t-242.5 162.5t-162 243t-60.5 296zM144 1594q0 -137 53 -261.5t143 -214.5t214.5 -143.5t261.5 -53.5
q182 0 336.5 90t244.5 245t90 338q0 182 -90 336.5t-244.5 244.5t-336.5 90t-337 -90t-245 -244.5t-90 -336.5zM1037 1662l65 -171q41 -106 88.5 -195.5t82.5 -123.5h-340q9 34 -14.5 127t-65.5 199l-41 104q-21 0 -32 -1v-109q0 -109 12.5 -198t34.5 -122h-343
q22 33 34.5 122t12.5 198v202q0 114 -12 206.5t-35 126.5q38 0 170 33.5t202 33.5q151 0 227 -63.5t76 -165.5q0 -51 -28 -107t-94 -96zM916 1877q0 74 -27 124.5t-77 50.5q-17 0 -32 -5v-407q64 16 100 85.5t36 151.5z" />
    <glyph glyph-name="macron" unicode="&#xaf;" horiz-adv-x="1409" 
d="M1335 2066v-181h-1261v181h1261z" />
    <glyph glyph-name="degree" unicode="&#xb0;" horiz-adv-x="1280" 
d="M639 2382q119 0 228 -47t187 -126t124.5 -187t46.5 -226q0 -160 -78 -294.5t-213 -212t-295 -77.5q-159 0 -293.5 78t-212.5 212.5t-78 293.5t79 294t213.5 213.5t291.5 78.5zM638 2145q-144 0 -246.5 -102.5t-102.5 -246.5q0 -142 103.5 -245.5t245.5 -103.5
q148 0 248.5 100.5t100.5 248.5q0 144 -102.5 246.5t-246.5 102.5z" />
    <glyph glyph-name="plusminus" unicode="&#xb1;" horiz-adv-x="982" 
d="M613 1269h334v-244h-334v-334h-244v334h-334v244h334v334h244v-334zM35 618h912v-244h-912v244z" />
    <glyph glyph-name="twosuperior" unicode="&#xb2;" horiz-adv-x="1041" 
d="M68 2009q0 64 21.5 117t60.5 91t92.5 64.5t117.5 39t136 12.5q92 -1 177 -23t154 -64t110 -109.5t41 -150.5q0 -85 -37.5 -161t-98.5 -133t-135.5 -108t-153 -94.5t-146.5 -83t-120 -83.5t-69 -87h452q206 0 284 218h25l-64 -498h-853q0 100 33 198t85.5 179t116.5 160.5
t128 154.5t116.5 147.5t85.5 152.5t33 158q0 85 -34.5 128t-98.5 43q-55 0 -93.5 -29t-38.5 -82q0 -38 32 -81q32 -46 32 -106q0 -75 -60 -123.5t-141 -48.5q-87 0 -138.5 58.5t-51.5 143.5z" />
    <glyph glyph-name="threesuperior" unicode="&#xb3;" horiz-adv-x="1098" 
d="M494 965q68 0 112.5 93.5t44.5 217.5q0 68 -16.5 130t-49 114.5t-89.5 83.5t-131 31v71q75 0 134.5 32t94 83.5t52.5 112t18 122.5q0 93 -36.5 156.5t-100.5 63.5q-52 0 -80.5 -35t-28.5 -74q0 -38 32 -81t32 -106q0 -74 -60.5 -122.5t-140.5 -48.5q-87 0 -138.5 58.5
t-51.5 142.5q0 58 27 113.5t79 103.5t142 77.5t204 29.5q84 0 163 -22t144 -64t104 -109.5t39 -151.5q0 -99 -55 -179.5t-161 -128.5q130 -58 197 -155.5t67 -206.5q0 -79 -35.5 -151.5t-100.5 -130.5t-168 -93t-228 -35q-114 0 -204 29.5t-142 77t-79 103t-27 113.5
q0 100 58 152.5t140 52.5q78 0 136 -47.5t58 -127.5q0 -61 -33 -105q-32 -45 -32 -82q0 -38 29 -73t81 -35z" />
    <glyph glyph-name="acute" unicode="&#xb4;" horiz-adv-x="578" 
d="M64 2012l-37 30q-5 5 -5 12.5t5 12.5l251 371q34 50 69.5 75t89.5 25q41 0 72 -27.5t42.5 -65.5t-4.5 -83t-61 -77l-398 -273q-6 -4 -12 -4q-8 0 -12 4z" />
    <glyph glyph-name="paragraph" unicode="&#xb6;" horiz-adv-x="1660" 
d="M1239 2135h-284v-2682h-91v1352q-178 0 -327.5 43.5t-265.5 130t-181.5 228.5t-65.5 327q0 127 32 231.5t87 178t135.5 129.5t168.5 89.5t196 54.5t208.5 28.5t215.5 7.5h558v-68h-68q-227 0 -227 -317v-2415h-91v2682z" />
    <glyph glyph-name="periodcentered" unicode="&#xb7;" horiz-adv-x="727" 
d="M54 1405q0 128 91 218.5t219 90.5t218.5 -91t90.5 -218q0 -128 -90.5 -219t-218.5 -91t-219 91t-91 219z" />
    <glyph glyph-name="cedilla" unicode="&#xb8;" horiz-adv-x="607" 
d="M531 25l-178 -209q94 -22 153.5 -80.5t59.5 -127.5q0 -86 -74.5 -152t-186 -98.5t-236.5 -32.5q-32 0 -44.5 14.5t-12.5 43.5q0 24 23 32t68 8q52 0 102.5 17t87 53.5t36.5 85.5q0 108 -185 144l237 302h150z" />
    <glyph glyph-name="onesuperior" unicode="&#xb9;" horiz-adv-x="603" 
d="M436 2337h50v-904q1 -162 19.5 -295t50.5 -182h-509q32 49 50.5 182t19.5 295v302q0 169 -18 308.5t-52 190.5z" />
    <glyph glyph-name="ordmasculine" unicode="&#xba;" horiz-adv-x="1163" 
d="M70 1626q0 173 39.5 309.5t109 222.5t161.5 130.5t200 44.5t200.5 -45t163 -131t111 -223.5t40.5 -310.5q0 -176 -41 -315t-113 -225t-164 -131t-198 -45q-109 0 -201.5 47t-161 136t-107.5 226.5t-39 309.5zM581 962q59 0 95 209t36 470q0 163 -14.5 306t-45 237
t-69.5 94q-40 0 -69.5 -94.5t-43.5 -236t-14 -301.5q0 -296 34.5 -490t90.5 -194z" />
    <glyph glyph-name="guillemotright" unicode="&#xbb;" horiz-adv-x="1868" 
d="M1846 816l-849 -816h-134l414 816l-414 815h126zM1047 816l-849 -816h-134l414 816l-414 815h126z" />
    <glyph glyph-name="onequarter" unicode="&#xbc;" horiz-adv-x="2255" 
d="M445 2333h50v-904q0 -160 18.5 -294t51.5 -183h-509q33 49 51.5 183t18.5 294v302q0 169 -18 308.5t-52 190.5zM1399 2324h97l-1129 -2324h-97zM1387 999q-27 -5 -54 -5q-110 0 -170 67.5t-60 159.5q0 93 61 160t174 67q73 0 126.5 -30.5t81.5 -82t41 -108.5t13 -121
q0 -95 -27 -186.5t-78 -174.5t-105.5 -150.5t-127.5 -141.5h492v399q0 172 -18 310.5t-52 188.5h440v-898h94v-96h-91q14 -278 67 -357h-510q55 82 67 357h-653v77q68 58 138.5 131t144 175.5t98.5 184.5q7 24 7 36q0 43 -56 43q-16 0 -43 -5z" />
    <glyph glyph-name="onehalf" unicode="&#xbd;" horiz-adv-x="1956" 
d="M444 2333h50v-904q1 -162 19.5 -295t50.5 -182h-509q32 49 50.5 182t19.5 295v302q0 169 -18 308.5t-52 190.5zM1359 2324h97l-1128 -2324h-97zM1004 1053q0 64 21.5 117t60.5 91t92.5 64.5t117.5 39t136 12.5q92 -1 177 -23t154 -64t110 -109.5t41 -150.5
q0 -85 -37.5 -161t-98.5 -133t-135.5 -108t-153 -94.5t-146.5 -83t-120 -83.5t-69 -87h452q206 0 284 218h25l-64 -498h-853q0 100 33 198t85.5 179t116.5 160.5t128 154.5t116.5 147.5t85.5 152.5t33 158q0 85 -34.5 128t-98.5 43q-55 0 -93.5 -29t-38.5 -82q0 -38 32 -81
q32 -46 32 -106q0 -75 -60 -123.5t-141 -48.5q-87 0 -138.5 58.5t-51.5 143.5z" />
    <glyph glyph-name="threequarters" unicode="&#xbe;" horiz-adv-x="2508" 
d="M471 963q74 0 120 92.5t46 216.5q0 55 -10 106t-32 97.5t-54.5 81.5t-81 55.5t-108.5 20.5v71q75 0 134.5 32t94 83.5t52.5 112t18 122.5q0 93 -37 156.5t-103 63.5q-50 0 -78 -35t-28 -74q0 -38 30 -78q34 -46 34 -103q0 -78 -60 -127.5t-141 -49.5q-87 0 -138.5 58.5
t-51.5 142.5q0 58 27 113.5t79 103.5t142 77.5t204 29.5q84 0 163 -22t144 -64t104 -109.5t39 -151.5q0 -99 -55 -179.5t-161 -128.5q130 -58 197 -155.5t67 -206.5q0 -79 -35.5 -151.5t-100.5 -130.5t-167.5 -93t-227.5 -35q-115 0 -204.5 29.5t-142 78t-79.5 105.5
t-27 118q0 95 58.5 146t139.5 51q78 0 136 -47.5t58 -127.5q0 -60 -35 -109q-30 -40 -30 -78q0 -37 27 -72.5t74 -35.5zM605 0h-97l1128 2324h97zM1634 999q-27 -5 -54 -5q-110 0 -170 67.5t-60 159.5q0 93 61 160t174 67q73 0 126.5 -30.5t81.5 -82t41 -108.5t13 -121
q0 -95 -27 -186.5t-78 -174.5t-105.5 -150.5t-127.5 -141.5h492v399q0 172 -18 310.5t-52 188.5h440v-898h94v-96h-91q14 -278 67 -357h-510q55 82 67 357h-653v77q68 58 138.5 131t144 175.5t98.5 184.5q7 24 7 36q0 43 -56 43q-16 0 -43 -5z" />
    <glyph glyph-name="questiondown" unicode="&#xbf;" horiz-adv-x="1621" 
d="M1172 2012q0 -154 -109.5 -263t-263.5 -109q-153 0 -262 109t-109 263t109 263t262 109q154 0 263.5 -109t109.5 -263zM854 102q90 0 138.5 58.5t48.5 123.5q0 64 -50 132q-57 79 -57 173q0 129 100 211t235 82q145 0 231 -97.5t86 -237.5q0 -77 -27 -152t-86.5 -146
t-145 -125t-213.5 -87t-281 -33q-112 0 -224.5 21t-215.5 64t-183 103t-127.5 145.5t-47.5 183.5q0 53 8 102t19 89t33.5 81t40.5 70t51 64.5t54.5 56.5t61 53.5t61 48.5t63.5 47q64 47 95.5 72t80 70.5t72 82.5t42 90t18.5 111h150q0 -92 -11.5 -175.5t-26 -140.5t-43 -122
t-46.5 -98.5t-53 -93.5q-36 -61 -53.5 -95.5t-41 -91t-33.5 -114.5t-10 -126q0 -104 26 -184t68.5 -125.5t91.5 -68t101 -22.5z" />
    <glyph glyph-name="Agrave" unicode="&#xc0;" horiz-adv-x="2078" 
d="M1148 2329l-42 -37q-5 -4 -10 -4q-3 0 -9 4l-400 278q-59 41 -66 101t29.5 103.5t92.5 43.5q91 0 158 -100l247 -371q9 -9 0 -18zM-13 0v10q36 6 79 31t97.5 80.5t107 134.5t108.5 204.5t102 278.5l337 1131q-76 185 -143 258h868q-19 -45 -19 -140q0 -244 111 -690
l126 -503q67 -268 154 -490.5t163 -304.5h-868q19 47 19 143q0 234 -95 622h-538l-8 -26q-60 -194 -60 -343q0 -334 308 -387v-9h-849zM622 856h490l-111 442q-56 224 -127 425z" />
    <glyph glyph-name="Aacute" unicode="&#xc1;" horiz-adv-x="2078" 
d="M1088 2292l-37 30q-5 5 -5 12.5t5 12.5l251 371q34 50 69.5 75t89.5 25q41 0 72 -27.5t42.5 -65.5t-4.5 -83t-61 -77l-398 -273q-6 -4 -12 -4q-8 0 -12 4zM-13 0v10q36 6 79 31t97.5 80.5t107 134.5t108.5 204.5t102 278.5l337 1131q-76 185 -143 258h868
q-19 -45 -19 -140q0 -244 111 -690l126 -503q67 -268 154 -490.5t163 -304.5h-868q19 47 19 143q0 234 -95 622h-538l-8 -26q-60 -194 -60 -343q0 -334 308 -387v-9h-849zM622 856h490l-111 442q-56 224 -127 425z" />
    <glyph glyph-name="Acircumflex" unicode="&#xc2;" horiz-adv-x="2078" 
d="M1102 2570l-311 -197q-14 -9 -21 -9q-2 0 -10 2l-24 31q-11 13 4 31l329 422q27 25 38 25q17 0 38 -33l343 -416q13 -17 3 -29l-24 -24q-6 -10 -13 -10q-4 0 -12 3zM-13 0v10q36 6 79 31t97.5 80.5t107 134.5t108.5 204.5t102 278.5l337 1131q-76 185 -143 258h868
q-19 -45 -19 -140q0 -244 111 -690l126 -503q67 -268 154 -490.5t163 -304.5h-868q19 47 19 143q0 234 -95 622h-538l-8 -26q-60 -194 -60 -343q0 -334 308 -387v-9h-849zM622 856h490l-111 442q-56 224 -127 425z" />
    <glyph glyph-name="Atilde" unicode="&#xc3;" horiz-adv-x="2078" 
d="M1469 2741h56q14 0 14 -17q0 -1 -1 -2v-18l-1 -2v-6q-18 -105 -86.5 -186.5t-167.5 -81.5q-82 0 -203 41l-31 10q-115 36 -174 36q-41 0 -75.5 -30.5t-42.5 -90.5q0 -13 -18 -13h-59q-13 0 -13 32q0 64 31 134.5t90.5 123t129.5 52.5q75 0 221 -48q134 -44 192 -44
q56 0 81.5 23.5t37.5 64.5q3 13 6.5 17.5t12.5 4.5zM-13 0v10q36 6 79 31t97.5 80.5t107 134.5t108.5 204.5t102 278.5l337 1131q-76 185 -143 258h868q-19 -45 -19 -140q0 -244 111 -690l126 -503q67 -268 154 -490.5t163 -304.5h-868q19 47 19 143q0 234 -95 622h-538
l-8 -26q-60 -194 -60 -343q0 -334 308 -387v-9h-849zM622 856h490l-111 442q-56 224 -127 425z" />
    <glyph glyph-name="Adieresis" unicode="&#xc4;" horiz-adv-x="2078" 
d="M1348 2640q73 0 124.5 -51.5t51.5 -124.5t-51.5 -124.5t-124.5 -51.5q-70 0 -123 53t-53 123q0 72 52 124t124 52zM854 2640q75 0 125.5 -50.5t50.5 -125.5q0 -73 -51.5 -124.5t-124.5 -51.5q-72 0 -123 52t-51 124t51 124t123 52zM-13 0v10q36 6 79 31t97.5 80.5
t107 134.5t108.5 204.5t102 278.5l337 1131q-76 185 -143 258h868q-19 -45 -19 -140q0 -244 111 -690l126 -503q67 -268 154 -490.5t163 -304.5h-868q19 47 19 143q0 234 -95 622h-538l-8 -26q-60 -194 -60 -343q0 -334 308 -387v-9h-849zM622 856h490l-111 442
q-56 224 -127 425z" />
    <glyph glyph-name="Aring" unicode="&#xc5;" horiz-adv-x="2078" 
d="M1112 2812q142 0 234 -65.5t92 -162.5q6 -81 -42.5 -143t-129.5 -93.5t-178 -31.5q-144 0 -235 67t-91 170q0 113 101.5 186t248.5 73zM1106 2712q-63 0 -102 -40.5t-39 -106.5q0 -71 36 -113t98 -42q63 0 103.5 42t40.5 118q0 68 -39 105t-98 37zM-13 0v10q36 6 79 31
t97.5 80.5t107 134.5t108.5 204.5t102 278.5l337 1131q-76 185 -143 258h868q-19 -45 -19 -140q0 -244 111 -690l126 -503q67 -268 154 -490.5t163 -304.5h-868q19 47 19 143q0 234 -95 622h-538l-8 -26q-60 -194 -60 -343q0 -334 308 -387v-9h-849zM622 856h490l-111 442
q-56 224 -127 425z" />
    <glyph glyph-name="AE" unicode="&#xc6;" horiz-adv-x="2658" 
d="M-13 0v10q36 6 79 31t97.5 80.5t107 134.5t108.5 204.5t102 278.5l337 1131q-76 185 -143 258h1920l-101 -691q-26 129 -74 232t-111 172.5t-141 116t-162 67t-177 20.5h-16v-858q90 15 169 43.5t134.5 64t99 74.5t70.5 78t42 70.5t19 56.5v-895q-9 32 -28.5 72t-62 94
t-99.5 101t-147 88.5t-197 60.5v-1012h16q93 0 177 20.5t162 67t141 116t111 172.5t74 232l101 -691h-1514q54 80 84.5 293t32.5 472h-602l-8 -26q-62 -207 -60.5 -360t79 -248.5t229.5 -121.5v-9h-849zM728 1220l-106 -364h576v1133q-262 -55 -470 -769z" />
    <glyph glyph-name="Ccedilla" unicode="&#xc7;" horiz-adv-x="1808" 
d="M63 1063q0 145 23.5 281t71 264t125 234t178.5 185.5t239 123.5t300 44q138 0 353 -34t372 -34l-126 -687q-53 324 -165 495.5t-242 171.5q-412 0 -412 -1050q0 -181 28.5 -330.5t85.5 -262.5t149.5 -176t213.5 -63q164 0 285 150t148 386h30q0 -131 -24.5 -249
t-77 -222.5t-129 -182.5t-187 -127.5t-244.5 -58.5l-90 -105q94 -22 153.5 -80.5t59.5 -127.5q0 -86 -74.5 -152t-186 -98.5t-236.5 -32.5q-32 0 -44.5 14.5t-12.5 43.5q0 24 23 32t68 8q52 0 102.5 17t87 53.5t36.5 85.5q0 108 -185 144l156 199q-178 13 -323 83t-242 179
t-163 253.5t-95 300.5t-29 325z" />
    <glyph glyph-name="Egrave" unicode="&#xc8;" horiz-adv-x="1650" 
d="M841 2329l-42 -37q-5 -4 -10 -4q-3 0 -9 4l-400 278q-59 41 -66 101t29.5 103.5t92.5 43.5q91 0 158 -100l247 -371q9 -9 0 -18zM805 83h16q93 0 177 20.5t162 67t141 116t111 172.5t74 232l101 -691h-1514q55 83 86 305t31 490v503q0 283 -30 514.5t-87 315.5h1514
l-101 -691q-26 129 -74 232t-111 172.5t-141 116t-162 67t-177 20.5h-16v-858q90 15 169 43.5t134.5 64t99 74.5t70.5 78t42 70.5t19 56.5v-895q-9 32 -28.5 72t-62 94t-99.5 101t-147 88.5t-197 60.5v-1012z" />
    <glyph glyph-name="Eacute" unicode="&#xc9;" horiz-adv-x="1650" 
d="M781 2292l-37 30q-4 5 -4 12.5t4 12.5l251 371q34 50 69.5 75t89.5 25q41 0 72 -27.5t42.5 -65.5t-4.5 -83t-61 -77l-398 -273q-6 -4 -12 -4q-8 0 -12 4zM805 83h16q93 0 177 20.5t162 67t141 116t111 172.5t74 232l101 -691h-1514q55 83 86 305t31 490v503
q0 283 -30 514.5t-87 315.5h1514l-101 -691q-26 129 -74 232t-111 172.5t-141 116t-162 67t-177 20.5h-16v-858q90 15 169 43.5t134.5 64t99 74.5t70.5 78t42 70.5t19 56.5v-895q-9 32 -28.5 72t-62 94t-99.5 101t-147 88.5t-197 60.5v-1012z" />
    <glyph glyph-name="Ecircumflex" unicode="&#xca;" horiz-adv-x="1650" 
d="M795 2570l-311 -197q-14 -9 -21 -9q-2 0 -10 2l-24 31q-11 13 4 31l329 422q27 25 38 25q17 0 38 -33l343 -416q13 -17 3 -29l-24 -24q-6 -10 -13 -10q-5 0 -12 3zM805 83h16q93 0 177 20.5t162 67t141 116t111 172.5t74 232l101 -691h-1514q55 83 86 305t31 490v503
q0 283 -30 514.5t-87 315.5h1514l-101 -691q-26 129 -74 232t-111 172.5t-141 116t-162 67t-177 20.5h-16v-858q90 15 169 43.5t134.5 64t99 74.5t70.5 78t42 70.5t19 56.5v-895q-9 32 -28.5 72t-62 94t-99.5 101t-147 88.5t-197 60.5v-1012z" />
    <glyph glyph-name="Edieresis" unicode="&#xcb;" horiz-adv-x="1650" 
d="M1041 2640q73 0 124.5 -51.5t51.5 -124.5t-51.5 -124.5t-124.5 -51.5q-71 0 -123.5 53t-52.5 123q0 72 52 124t124 52zM547 2640q75 0 125.5 -50.5t50.5 -125.5q0 -73 -51.5 -124.5t-124.5 -51.5q-72 0 -123 52t-51 124t51 124t123 52zM805 83h16q93 0 177 20.5t162 67
t141 116t111 172.5t74 232l101 -691h-1514q55 83 86 305t31 490v503q0 283 -30 514.5t-87 315.5h1514l-101 -691q-26 129 -74 232t-111 172.5t-141 116t-162 67t-177 20.5h-16v-858q90 15 169 43.5t134.5 64t99 74.5t70.5 78t42 70.5t19 56.5v-895q-9 32 -28.5 72t-62 94
t-99.5 101t-147 88.5t-197 60.5v-1012z" />
    <glyph glyph-name="Igrave" unicode="&#xcc;" horiz-adv-x="995" 
d="M487 2329l-42 -37q-5 -4 -10 -4q-3 0 -9 4l-400 278q-59 41 -66 101t29.5 103.5t92.5 43.5q91 0 158 -100l247 -371q9 -9 0 -18zM922 2128q-57 -84 -87 -315.5t-30 -514.5v-503q0 -268 31 -490t86 -305h-849q55 83 86 305t31 490v503q0 283 -30 514.5t-87 315.5h849z" />
    <glyph glyph-name="Iacute" unicode="&#xcd;" horiz-adv-x="995" 
d="M427 2292l-37 30q-4 5 -4 12.5t4 12.5l251 371q34 50 69.5 75t89.5 25q41 0 72 -27.5t42.5 -65.5t-4.5 -83t-61 -77l-398 -273q-6 -4 -12 -4q-8 0 -12 4zM922 2128q-57 -84 -87 -315.5t-30 -514.5v-503q0 -268 31 -490t86 -305h-849q55 83 86 305t31 490v503
q0 283 -30 514.5t-87 315.5h849z" />
    <glyph glyph-name="Icircumflex" unicode="&#xce;" horiz-adv-x="995" 
d="M441 2570l-311 -197q-14 -9 -21 -9q-2 0 -10 2l-24 31q-11 13 4 31l329 422q27 25 38 25q17 0 38 -33l343 -416q13 -17 3 -29l-24 -24q-6 -10 -13 -10q-5 0 -12 3zM922 2128q-57 -84 -87 -315.5t-30 -514.5v-503q0 -268 31 -490t86 -305h-849q55 83 86 305t31 490v503
q0 283 -30 514.5t-87 315.5h849z" />
    <glyph glyph-name="Idieresis" unicode="&#xcf;" horiz-adv-x="995" 
d="M687 2640q73 0 124.5 -51.5t51.5 -124.5t-51.5 -124.5t-124.5 -51.5q-71 0 -123.5 53t-52.5 123q0 72 52 124t124 52zM193 2640q75 0 125.5 -50.5t50.5 -125.5q0 -73 -51.5 -124.5t-124.5 -51.5q-72 0 -123 52t-51 124t51 124t123 52zM922 2128q-57 -84 -87 -315.5
t-30 -514.5v-503q0 -268 31 -490t86 -305h-849q55 83 86 305t31 490v503q0 283 -30 514.5t-87 315.5h849z" />
    <glyph glyph-name="Eth" unicode="&#xd0;" horiz-adv-x="1941" 
d="M73 2129q102 0 372 30q371 40 550 40q184 0 333 -55t250.5 -151.5t169.5 -232t99 -292.5t31 -338q0 -185 -32 -356.5t-102 -326t-171 -268.5t-249.5 -181t-328.5 -67q-151 0 -447 34q-310 36 -475 36q55 83 86 305t31 490v163h-143v244h143v96q0 283 -30 514.5t-87 315.5
zM805 45q41 -14 82 -14q51 0 94.5 24.5t75.5 65.5t57.5 101.5t42.5 123.5t29.5 142t19.5 146.5t11 147t5 134.5t1 116v177q0 889 -327 889q-43 0 -91 -16v-879h171v-244h-171v-914z" />
    <glyph glyph-name="Ntilde" unicode="&#xd1;" horiz-adv-x="1934" 
d="M1268 2741h56q14 0 14 -17q0 -1 -1 -2v-18l-1 -2v-6q-18 -105 -86.5 -186.5t-167.5 -81.5q-82 0 -203 41l-31 10q-115 36 -174 36q-41 0 -75.5 -30.5t-42.5 -90.5q0 -13 -18 -13h-59q-13 0 -13 32q0 64 31 134.5t90.5 123t129.5 52.5q75 0 221 -48q134 -44 192 -44
q56 0 81.5 23.5t37.5 64.5q3 13 6.5 17.5t12.5 4.5zM28 0v10q35 6 70 31t73 80.5t67 134.5t47.5 204.5t18.5 278.5v1008q-191 289 -304 381h824l729 -1315v576q0 316 -115.5 504t-353.5 226l1 9h849v-10q-35 -6 -70 -31t-73 -80.5t-67 -134.5t-47.5 -204.5t-18.5 -278.5
v-1416h-336l-913 1613v-847q0 -316 115.5 -504t353.5 -226l-1 -9h-849z" />
    <glyph glyph-name="Ograve" unicode="&#xd2;" 
d="M997 2329l-42 -37q-5 -4 -10 -4q-3 0 -9 4l-400 278q-59 41 -66 101t29.5 103.5t92.5 43.5q91 0 158 -100l247 -371q9 -9 0 -18zM993 -81q-195 0 -353.5 64.5t-264 173t-177.5 256t-103.5 308.5t-31.5 336q0 146 23 283.5t70 266t123.5 234.5t177 186t238.5 124t300 44
q195 0 353.5 -64.5t264 -173t177.5 -256t103.5 -308.5t31.5 -336q0 -146 -23 -283.5t-70 -266t-123.5 -234.5t-177 -186t-238.5 -124t-300 -44zM1004 2103q-73 0 -126.5 -155t-78.5 -390t-25 -509q0 -272 24.5 -502.5t78.5 -383t128 -152.5q73 0 126 153t77.5 385t24.5 508
q0 270 -25 503t-78.5 388t-125.5 155z" />
    <glyph glyph-name="Oacute" unicode="&#xd3;" 
d="M937 2292l-37 30q-4 5 -4 12.5t4 12.5l251 371q34 50 69.5 75t89.5 25q41 0 72 -27.5t42.5 -65.5t-4.5 -83t-61 -77l-398 -273q-6 -4 -12 -4q-8 0 -12 4zM993 -81q-195 0 -353.5 64.5t-264 173t-177.5 256t-103.5 308.5t-31.5 336q0 146 23 283.5t70 266t123.5 234.5
t177 186t238.5 124t300 44q195 0 353.5 -64.5t264 -173t177.5 -256t103.5 -308.5t31.5 -336q0 -146 -23 -283.5t-70 -266t-123.5 -234.5t-177 -186t-238.5 -124t-300 -44zM1004 2103q-73 0 -126.5 -155t-78.5 -390t-25 -509q0 -272 24.5 -502.5t78.5 -383t128 -152.5
q73 0 126 153t77.5 385t24.5 508q0 270 -25 503t-78.5 388t-125.5 155z" />
    <glyph glyph-name="Ocircumflex" unicode="&#xd4;" 
d="M951 2570l-311 -197q-14 -9 -21 -9q-2 0 -10 2l-24 31q-11 13 4 31l329 422q27 25 38 25q17 0 38 -33l343 -416q13 -17 3 -29l-24 -24q-6 -10 -13 -10q-5 0 -12 3zM993 -81q-195 0 -353.5 64.5t-264 173t-177.5 256t-103.5 308.5t-31.5 336q0 146 23 283.5t70 266
t123.5 234.5t177 186t238.5 124t300 44q195 0 353.5 -64.5t264 -173t177.5 -256t103.5 -308.5t31.5 -336q0 -146 -23 -283.5t-70 -266t-123.5 -234.5t-177 -186t-238.5 -124t-300 -44zM1004 2103q-73 0 -126.5 -155t-78.5 -390t-25 -509q0 -272 24.5 -502.5t78.5 -383
t128 -152.5q73 0 126 153t77.5 385t24.5 508q0 270 -25 503t-78.5 388t-125.5 155z" />
    <glyph glyph-name="Otilde" unicode="&#xd5;" 
d="M1318 2741h56q14 0 14 -17q0 -1 -1 -2v-18l-1 -2v-6q-18 -105 -86.5 -186.5t-167.5 -81.5q-82 0 -203 41l-31 10q-115 36 -174 36q-41 0 -75.5 -30.5t-42.5 -90.5q0 -13 -18 -13h-59q-13 0 -13 32q0 64 31 134.5t90.5 123t129.5 52.5q75 0 221 -48q134 -44 192 -44
q56 0 81.5 23.5t37.5 64.5q3 13 6.5 17.5t12.5 4.5zM993 -81q-195 0 -353.5 64.5t-264 173t-177.5 256t-103.5 308.5t-31.5 336q0 146 23 283.5t70 266t123.5 234.5t177 186t238.5 124t300 44q195 0 353.5 -64.5t264 -173t177.5 -256t103.5 -308.5t31.5 -336
q0 -146 -23 -283.5t-70 -266t-123.5 -234.5t-177 -186t-238.5 -124t-300 -44zM1004 2103q-73 0 -126.5 -155t-78.5 -390t-25 -509q0 -272 24.5 -502.5t78.5 -383t128 -152.5q73 0 126 153t77.5 385t24.5 508q0 270 -25 503t-78.5 388t-125.5 155z" />
    <glyph glyph-name="Odieresis" unicode="&#xd6;" 
d="M1197 2640q73 0 124.5 -51.5t51.5 -124.5t-51.5 -124.5t-124.5 -51.5q-71 0 -123.5 53t-52.5 123q0 72 52 124t124 52zM703 2640q75 0 125.5 -50.5t50.5 -125.5q0 -73 -51.5 -124.5t-124.5 -51.5q-72 0 -123 52t-51 124t51 124t123 52zM993 -81q-195 0 -353.5 64.5
t-264 173t-177.5 256t-103.5 308.5t-31.5 336q0 146 23 283.5t70 266t123.5 234.5t177 186t238.5 124t300 44q195 0 353.5 -64.5t264 -173t177.5 -256t103.5 -308.5t31.5 -336q0 -146 -23 -283.5t-70 -266t-123.5 -234.5t-177 -186t-238.5 -124t-300 -44zM1004 2103
q-73 0 -126.5 -155t-78.5 -390t-25 -509q0 -272 24.5 -502.5t78.5 -383t128 -152.5q73 0 126 153t77.5 385t24.5 508q0 270 -25 503t-78.5 388t-125.5 155z" />
    <glyph glyph-name="multiply" unicode="&#xd7;" horiz-adv-x="928" 
d="M637 1147l236 -236l-173 -173l-236 236l-236 -236l-173 173l236 236l-236 236l173 173l236 -236l236 236l173 -173z" />
    <glyph glyph-name="Oslash" unicode="&#xd8;" 
d="M994 -81q-339 0 -566 190l-73 -109h-119l119 179q-148 158 -220 390t-72 494q0 145 23 281t70 264t123.5 234t177 185.5t238 123.5t299.5 44q347 0 576 -199l89 132h119l-136 -203q143 -159 213 -388t70 -486q0 -145 -23 -281t-70 -264t-123.5 -234t-177 -185.5
t-238 -123.5t-299.5 -44zM1004 2103q-73 0 -126.5 -155t-78.5 -387.5t-25 -503.5q0 -144 5 -244l437 653q-24 284 -78.5 460.5t-133.5 176.5zM790 650q16 -187 43.5 -326.5t72 -226t99.5 -86.5q73 0 126 153t77.5 385t24.5 508q0 125 -6 247z" />
    <glyph glyph-name="Ugrave" unicode="&#xd9;" horiz-adv-x="1978" 
d="M1025 2329l-42 -37q-5 -4 -10 -4q-3 0 -9 4l-400 278q-59 41 -66 101t29.5 103.5t92.5 43.5q91 0 158 -100l247 -371q9 -9 0 -18zM770 676q0 -261 26.5 -409t74.5 -202t128 -54q81 0 124.5 57.5t64 201.5t20.5 413v615q0 283 -30 514.5t-87 315.5h814q-57 -84 -87 -315.5
t-30 -514.5v-428q0 -128 -9 -231.5t-33 -204.5t-63 -177t-100.5 -141.5t-144.5 -107.5t-197 -65.5t-256 -23.5q-141 0 -253.5 23t-195 64.5t-143.5 107t-100 141.5t-62 176.5t-32 204.5t-9 233v429q0 283 -30 514.5t-87 315.5h814q-57 -84 -87 -315.5t-30 -514.5v-622z" />
    <glyph glyph-name="Uacute" unicode="&#xda;" horiz-adv-x="1978" 
d="M965 2292l-37 30q-4 5 -4 12.5t4 12.5l251 371q34 50 69.5 75t89.5 25q41 0 72 -27.5t42.5 -65.5t-4.5 -83t-61 -77l-398 -273q-6 -4 -12 -4q-8 0 -12 4zM770 676q0 -261 26.5 -409t74.5 -202t128 -54q81 0 124.5 57.5t64 201.5t20.5 413v615q0 283 -30 514.5t-87 315.5
h814q-57 -84 -87 -315.5t-30 -514.5v-428q0 -128 -9 -231.5t-33 -204.5t-63 -177t-100.5 -141.5t-144.5 -107.5t-197 -65.5t-256 -23.5q-141 0 -253.5 23t-195 64.5t-143.5 107t-100 141.5t-62 176.5t-32 204.5t-9 233v429q0 283 -30 514.5t-87 315.5h814
q-57 -84 -87 -315.5t-30 -514.5v-622z" />
    <glyph glyph-name="Ucircumflex" unicode="&#xdb;" horiz-adv-x="1978" 
d="M979 2570l-311 -197q-14 -9 -21 -9q-2 0 -10 2l-24 31q-11 13 4 31l329 422q27 25 38 25q17 0 38 -33l343 -416q13 -17 3 -29l-24 -24q-6 -10 -13 -10q-5 0 -12 3zM770 676q0 -261 26.5 -409t74.5 -202t128 -54q81 0 124.5 57.5t64 201.5t20.5 413v615q0 283 -30 514.5
t-87 315.5h814q-57 -84 -87 -315.5t-30 -514.5v-428q0 -128 -9 -231.5t-33 -204.5t-63 -177t-100.5 -141.5t-144.5 -107.5t-197 -65.5t-256 -23.5q-141 0 -253.5 23t-195 64.5t-143.5 107t-100 141.5t-62 176.5t-32 204.5t-9 233v429q0 283 -30 514.5t-87 315.5h814
q-57 -84 -87 -315.5t-30 -514.5v-622z" />
    <glyph glyph-name="Udieresis" unicode="&#xdc;" horiz-adv-x="1978" 
d="M1225 2640q73 0 124.5 -51.5t51.5 -124.5t-51.5 -124.5t-124.5 -51.5q-71 0 -123.5 53t-52.5 123q0 72 52 124t124 52zM731 2640q75 0 125.5 -50.5t50.5 -125.5q0 -73 -51.5 -124.5t-124.5 -51.5q-72 0 -123 52t-51 124t51 124t123 52zM770 676q0 -261 26.5 -409
t74.5 -202t128 -54q81 0 124.5 57.5t64 201.5t20.5 413v615q0 283 -30 514.5t-87 315.5h814q-57 -84 -87 -315.5t-30 -514.5v-428q0 -128 -9 -231.5t-33 -204.5t-63 -177t-100.5 -141.5t-144.5 -107.5t-197 -65.5t-256 -23.5q-141 0 -253.5 23t-195 64.5t-143.5 107
t-100 141.5t-62 176.5t-32 204.5t-9 233v429q0 283 -30 514.5t-87 315.5h814q-57 -84 -87 -315.5t-30 -514.5v-622z" />
    <glyph glyph-name="Yacute" unicode="&#xdd;" horiz-adv-x="2278" 
d="M1088 2292l-37 30q-5 5 -5 12.5t5 12.5l251 371q34 50 69.5 75t89.5 25q41 0 72 -27.5t42.5 -65.5t-4.5 -83t-61 -77l-398 -273q-6 -4 -12 -4q-8 0 -12 4zM744 1014l-159 282q-159 283 -320 514.5t-265 315.5h903v-6q0 -105 59.5 -252t135.5 -280l193 -339l38 56
q136 202 136 411q0 145 -62.5 256.5t-155.5 151.5h1031q-48 -7 -120 -50t-169 -125.5t-224.5 -228.5t-261.5 -335l-144 -200v-390q0 -268 31 -490t86 -305h-849q55 83 86 305t31 490v219z" />
    <glyph glyph-name="Thorn" unicode="&#xde;" horiz-adv-x="1891" 
d="M915 2253q-64 -94 -96 -396q93 8 173 8q182 0 330 -39.5t247 -107t165.5 -159.5t96 -192.5t29.5 -211.5q0 -113 -30.5 -218.5t-98.5 -202t-166.5 -168t-244 -113.5t-322.5 -42q-82 0 -185 10q31 -317 100 -421h-849q55 83 86 305t31 490v628q0 283 -30 514.5t-87 315.5
h851zM805 515q45 -8 79 -8q333 0 333 574v104q0 44 -1.5 82.5t-9 100.5t-20 112t-38 105t-59.5 92t-87.5 61.5t-119.5 24.5q-33 0 -72 -6q-11 -145 -11 -246v-885z" />
    <glyph glyph-name="germandbls" unicode="&#xdf;" horiz-adv-x="1905" 
d="M1238 16q28 0 51 38.5t23 68.5q0 39 -16 87.5t-36 93t-36 128.5t-16 186v341q0 167 -71 241t-213 74v104q67 0 110 17.5t64.5 55t29 81.5t7.5 112v228q0 178 -56 254t-141 76q-40 0 -74 -16.5t-63.5 -53t-46 -105.5t-16.5 -164v-1863h-717q55 82 86 305t31 490v954
q0 111 41 202.5t113.5 155t172 107.5t214.5 64.5t243 20.5q155 0 285 -32.5t219.5 -86.5t151.5 -126t91 -149t29 -156q0 -163 -104.5 -276.5t-287.5 -113.5q-27 0 -27 -17.5t27 -17.5q159 0 284 -87t193 -241t68 -347q0 -160 -36.5 -288t-96.5 -210.5t-141.5 -138
t-166 -78.5t-174.5 -23q-103 0 -184.5 24.5t-129.5 64t-72.5 86t-24.5 94.5q0 84 55.5 131t131.5 47t131 -47t55 -131q0 -13 -4 -41q-7 -44 6 -83.5t38 -39.5z" />
    <glyph glyph-name="agrave" unicode="&#xe0;" horiz-adv-x="1759" 
d="M873 1871l-42 -37q-5 -4 -10 -4q-3 0 -9 4l-400 278q-59 41 -66 101t29.5 103.5t92.5 43.5q91 0 158 -100l247 -371q9 -9 0 -18zM1703 162q-37 -112 -137 -177t-215 -65q-63 0 -118.5 21t-100.5 62t-71.5 110t-26.5 157v182q0 12 -5.5 18.5t-12.5 5.5q-17 -2 -17 -24v-28
q-4 -122 -49 -220.5t-116 -159t-157.5 -92.5t-179.5 -32q-71 0 -138.5 18.5t-126.5 56.5t-103.5 91.5t-70 129t-25.5 163.5q0 92 27 178t85 163.5t141.5 135t204 91.5t265.5 34q140 0 207 -9v386q0 139 -52 203t-129 64q-66 0 -118 -40t-52 -93q0 -30 31 -77q43 -65 43 -135
q0 -90 -44 -155t-109.5 -95t-142.5 -30q-76 0 -142.5 29.5t-110.5 92t-44 146.5q0 63 24.5 123t80 115.5t136.5 97t202 66.5t269 25q122 0 230 -16.5t209.5 -56.5t174 -101.5t116 -158t43.5 -218.5v-752q0 -210 125 -230zM963 624v279q-77 0 -138.5 -32.5t-97 -85.5
t-54 -115t-18.5 -126q0 -96 37 -163t100 -67q69 0 120 80.5t51 229.5z" />
    <glyph glyph-name="aacute" unicode="&#xe1;" horiz-adv-x="1759" 
d="M813 1834l-37 30q-4 5 -4 12.5t4 12.5l251 371q34 50 69.5 75t89.5 25q41 0 72 -27.5t42.5 -65.5t-4.5 -83t-61 -77l-398 -273q-6 -4 -12 -4q-8 0 -12 4zM1703 162q-37 -112 -137 -177t-215 -65q-63 0 -118.5 21t-100.5 62t-71.5 110t-26.5 157v182q0 12 -5.5 18.5
t-12.5 5.5q-17 -2 -17 -24v-28q-4 -122 -49 -220.5t-116 -159t-157.5 -92.5t-179.5 -32q-71 0 -138.5 18.5t-126.5 56.5t-103.5 91.5t-70 129t-25.5 163.5q0 92 27 178t85 163.5t141.5 135t204 91.5t265.5 34q140 0 207 -9v386q0 139 -52 203t-129 64q-66 0 -118 -40
t-52 -93q0 -30 31 -77q43 -65 43 -135q0 -90 -44 -155t-109.5 -95t-142.5 -30q-76 0 -142.5 29.5t-110.5 92t-44 146.5q0 63 24.5 123t80 115.5t136.5 97t202 66.5t269 25q122 0 230 -16.5t209.5 -56.5t174 -101.5t116 -158t43.5 -218.5v-752q0 -210 125 -230zM963 624v279
q-77 0 -138.5 -32.5t-97 -85.5t-54 -115t-18.5 -126q0 -96 37 -163t100 -67q69 0 120 80.5t51 229.5z" />
    <glyph glyph-name="acircumflex" unicode="&#xe2;" horiz-adv-x="1759" 
d="M827 2112l-311 -197q-14 -9 -21 -9q-2 0 -10 2l-24 31q-11 13 4 31l329 422q27 25 38 25q17 0 38 -33l343 -416q13 -17 3 -29l-24 -24q-6 -10 -13 -10q-5 0 -12 3zM1703 162q-37 -112 -137 -177t-215 -65q-63 0 -118.5 21t-100.5 62t-71.5 110t-26.5 157v182
q0 12 -5.5 18.5t-12.5 5.5q-17 -2 -17 -24v-28q-4 -122 -49 -220.5t-116 -159t-157.5 -92.5t-179.5 -32q-71 0 -138.5 18.5t-126.5 56.5t-103.5 91.5t-70 129t-25.5 163.5q0 92 27 178t85 163.5t141.5 135t204 91.5t265.5 34q140 0 207 -9v386q0 139 -52 203t-129 64
q-66 0 -118 -40t-52 -93q0 -30 31 -77q43 -65 43 -135q0 -90 -44 -155t-109.5 -95t-142.5 -30q-76 0 -142.5 29.5t-110.5 92t-44 146.5q0 63 24.5 123t80 115.5t136.5 97t202 66.5t269 25q122 0 230 -16.5t209.5 -56.5t174 -101.5t116 -158t43.5 -218.5v-752
q0 -210 125 -230zM963 624v279q-77 0 -138.5 -32.5t-97 -85.5t-54 -115t-18.5 -126q0 -96 37 -163t100 -67q69 0 120 80.5t51 229.5z" />
    <glyph glyph-name="atilde" unicode="&#xe3;" horiz-adv-x="1759" 
d="M1194 2283h56q14 0 14 -17q0 -1 -1 -2v-18l-1 -2v-6q-18 -105 -86.5 -186.5t-167.5 -81.5q-82 0 -203 41l-31 10q-115 36 -174 36q-41 0 -75.5 -30.5t-42.5 -90.5q0 -13 -18 -13h-59q-13 0 -13 32q0 64 31 134.5t90.5 123t129.5 52.5q75 0 221 -48q134 -44 192 -44
q56 0 81.5 23.5t37.5 64.5q3 13 6.5 17.5t12.5 4.5zM1703 162q-37 -112 -137 -177t-215 -65q-63 0 -118.5 21t-100.5 62t-71.5 110t-26.5 157v182q0 12 -5.5 18.5t-12.5 5.5q-17 -2 -17 -24v-28q-4 -122 -49 -220.5t-116 -159t-157.5 -92.5t-179.5 -32q-71 0 -138.5 18.5
t-126.5 56.5t-103.5 91.5t-70 129t-25.5 163.5q0 92 27 178t85 163.5t141.5 135t204 91.5t265.5 34q140 0 207 -9v386q0 139 -52 203t-129 64q-66 0 -118 -40t-52 -93q0 -30 31 -77q43 -65 43 -135q0 -90 -44 -155t-109.5 -95t-142.5 -30q-76 0 -142.5 29.5t-110.5 92
t-44 146.5q0 63 24.5 123t80 115.5t136.5 97t202 66.5t269 25q122 0 230 -16.5t209.5 -56.5t174 -101.5t116 -158t43.5 -218.5v-752q0 -210 125 -230zM963 624v279q-77 0 -138.5 -32.5t-97 -85.5t-54 -115t-18.5 -126q0 -96 37 -163t100 -67q69 0 120 80.5t51 229.5z" />
    <glyph glyph-name="adieresis" unicode="&#xe4;" horiz-adv-x="1759" 
d="M1073 2182q73 0 124.5 -51.5t51.5 -124.5t-51.5 -124.5t-124.5 -51.5q-71 0 -123.5 53t-52.5 123q0 72 52 124t124 52zM579 2182q75 0 125.5 -50.5t50.5 -125.5q0 -73 -51.5 -124.5t-124.5 -51.5q-72 0 -123 52t-51 124t51 124t123 52zM1703 162q-37 -112 -137 -177
t-215 -65q-63 0 -118.5 21t-100.5 62t-71.5 110t-26.5 157v182q0 12 -5.5 18.5t-12.5 5.5q-17 -2 -17 -24v-28q-4 -122 -49 -220.5t-116 -159t-157.5 -92.5t-179.5 -32q-71 0 -138.5 18.5t-126.5 56.5t-103.5 91.5t-70 129t-25.5 163.5q0 92 27 178t85 163.5t141.5 135
t204 91.5t265.5 34q140 0 207 -9v386q0 139 -52 203t-129 64q-66 0 -118 -40t-52 -93q0 -30 31 -77q43 -65 43 -135q0 -90 -44 -155t-109.5 -95t-142.5 -30q-76 0 -142.5 29.5t-110.5 92t-44 146.5q0 63 24.5 123t80 115.5t136.5 97t202 66.5t269 25q122 0 230 -16.5
t209.5 -56.5t174 -101.5t116 -158t43.5 -218.5v-752q0 -210 125 -230zM963 624v279q-77 0 -138.5 -32.5t-97 -85.5t-54 -115t-18.5 -126q0 -96 37 -163t100 -67q69 0 120 80.5t51 229.5z" />
    <glyph glyph-name="aring" unicode="&#xe5;" horiz-adv-x="1759" 
d="M837 2354q142 0 234 -65.5t92 -162.5q6 -81 -42.5 -143t-129.5 -93.5t-178 -31.5q-144 0 -235 67t-91 170q0 113 101.5 186t248.5 73zM831 2254q-63 0 -102 -40.5t-39 -106.5q0 -71 36 -113t98 -42q63 0 103.5 42t40.5 118q0 68 -39 105t-98 37zM1703 162
q-37 -112 -137 -177t-215 -65q-63 0 -118.5 21t-100.5 62t-71.5 110t-26.5 157v182q0 12 -5.5 18.5t-12.5 5.5q-17 -2 -17 -24v-28q-4 -122 -49 -220.5t-116 -159t-157.5 -92.5t-179.5 -32q-71 0 -138.5 18.5t-126.5 56.5t-103.5 91.5t-70 129t-25.5 163.5q0 92 27 178
t85 163.5t141.5 135t204 91.5t265.5 34q140 0 207 -9v386q0 139 -52 203t-129 64q-66 0 -118 -40t-52 -93q0 -30 31 -77q43 -65 43 -135q0 -90 -44 -155t-109.5 -95t-142.5 -30q-76 0 -142.5 29.5t-110.5 92t-44 146.5q0 63 24.5 123t80 115.5t136.5 97t202 66.5t269 25
q122 0 230 -16.5t209.5 -56.5t174 -101.5t116 -158t43.5 -218.5v-752q0 -210 125 -230zM963 624v279q-77 0 -138.5 -32.5t-97 -85.5t-54 -115t-18.5 -126q0 -96 37 -163t100 -67q69 0 120 80.5t51 229.5z" />
    <glyph glyph-name="ae" unicode="&#xe6;" horiz-adv-x="2606" 
d="M2108 180q116 0 216.5 63.5t156.5 166.5q0 -92 -35.5 -172t-97.5 -138t-144.5 -99t-177 -61.5t-194.5 -20.5q-290 0 -498.5 143t-295.5 374l-6 16q-7 19 -19 19q-14 0 -14 -19v-26q0 -99 -29 -183t-78 -142.5t-114 -100t-136 -61t-145 -19.5q-71 0 -138.5 18.5
t-126.5 56.5t-103.5 91.5t-70 129t-25.5 163.5q0 92 27 178t85 163.5t141.5 135t204 91.5t265.5 34q140 0 207 -9v385q0 139 -52.5 203.5t-128.5 64.5q-65 0 -117.5 -40.5t-52.5 -93.5q0 -31 31 -77q43 -65 43 -134q0 -90 -44 -155t-109.5 -95t-142.5 -30q-76 0 -142.5 29.5
t-110.5 92t-44 146.5q0 63 24.5 123t80 115.5t136.5 97t202 66.5t269 25q351 0 552 -131q204 131 473 131q142 0 262 -32.5t204 -87.5t143 -129t87 -156t28 -169q0 -106 -43 -203.5t-123 -175.5t-209 -125t-287 -47q-114 0 -216 34q19 -110 64.5 -194.5t106.5 -133
t126.5 -72.5t134.5 -24zM1667 674q37 -17 80 -17q81 0 143 54t96.5 143t51.5 189.5t17 208.5q0 27 -1.5 62t-8.5 92t-18 101t-33 77t-51 33q-63 0 -118.5 -95.5t-89 -234t-53 -280t-19.5 -246.5zM963 624v279q-77 0 -138.5 -32.5t-97 -85.5t-54 -115t-18.5 -126
q0 -96 37 -163t100 -67q69 0 120 80.5t51 229.5z" />
    <glyph glyph-name="ccedilla" unicode="&#xe7;" horiz-adv-x="1646" 
d="M963 1695q134 0 244 -32t180 -82t118.5 -114t68.5 -125t20 -118q0 -118 -84 -199.5t-220 -81.5q-132 0 -210.5 79.5t-78.5 215.5q0 81 46 159q28 48 28 90q0 46 -24 76t-48 39t-44 9q-39 0 -71.5 -26.5t-55 -75t-40 -105.5t-27.5 -128t-17 -132.5t-10 -129t-4 -107
t-1 -77.5q0 -138 25.5 -250t67.5 -185.5t99.5 -123t119 -71t127.5 -21.5q115 0 216 63.5t157 167.5q0 -85 -30.5 -160t-83 -130.5t-124.5 -97.5t-155 -66.5t-174 -32.5l-91 -107q94 -22 153.5 -80.5t59.5 -127.5q0 -86 -74.5 -152t-186 -98.5t-236.5 -32.5q-32 0 -44.5 14.5
t-12.5 43.5q0 24 23 32t68 8q52 0 102.5 17t87 53.5t36.5 85.5q0 108 -185 144l155 198q-153 9 -284 64t-224.5 141t-160.5 197t-99 234.5t-32 251.5q0 136 36 264t112 241t184 197.5t262 134t336 49.5z" />
    <glyph glyph-name="egrave" unicode="&#xe8;" horiz-adv-x="1676" 
d="M938 1871l-42 -37q-5 -4 -10 -4q-3 0 -9 4l-400 278q-59 41 -66 101t29.5 103.5t92.5 43.5q91 0 158 -100l247 -371q9 -9 0 -18zM755 595q20 -91 53.5 -164t84 -130.5t123 -89t162.5 -31.5q116 0 216.5 63.5t156.5 166.5q0 -92 -35.5 -172t-97.5 -138t-144.5 -99
t-177 -61.5t-194.5 -20.5q-165 0 -307 50.5t-244 136.5t-174.5 200t-108 242.5t-35.5 262.5t36 262t109 241t174.5 198t243 134t304.5 49q142 0 262 -32.5t204 -87.5t143 -129t87 -156t28 -169q0 -106 -43 -203.5t-123 -175.5t-209 -125t-287 -47q-135 0 -207 25zM742 667
q38 -10 74 -10q66 0 116 38t77.5 104t41 144.5t13.5 169.5q0 184 -45.5 341t-98.5 157q-42 0 -87 -103t-76 -273.5t-31 -342.5q0 -119 16 -225z" />
    <glyph glyph-name="eacute" unicode="&#xe9;" horiz-adv-x="1676" 
d="M878 1834l-37 30q-5 5 -5 12.5t5 12.5l251 371q34 50 69.5 75t89.5 25q41 0 72 -27.5t42.5 -65.5t-4.5 -83t-61 -77l-398 -273q-6 -4 -12 -4q-8 0 -12 4zM755 595q20 -91 53.5 -164t84 -130.5t123 -89t162.5 -31.5q116 0 216.5 63.5t156.5 166.5q0 -92 -35.5 -172
t-97.5 -138t-144.5 -99t-177 -61.5t-194.5 -20.5q-165 0 -307 50.5t-244 136.5t-174.5 200t-108 242.5t-35.5 262.5t36 262t109 241t174.5 198t243 134t304.5 49q142 0 262 -32.5t204 -87.5t143 -129t87 -156t28 -169q0 -106 -43 -203.5t-123 -175.5t-209 -125t-287 -47
q-135 0 -207 25zM742 667q38 -10 74 -10q66 0 116 38t77.5 104t41 144.5t13.5 169.5q0 184 -45.5 341t-98.5 157q-42 0 -87 -103t-76 -273.5t-31 -342.5q0 -119 16 -225z" />
    <glyph glyph-name="ecircumflex" unicode="&#xea;" horiz-adv-x="1676" 
d="M892 2112l-311 -197q-14 -9 -21 -9q-2 0 -10 2l-24 31q-11 13 4 31l329 422q27 25 38 25q17 0 38 -33l343 -416q13 -17 3 -29l-24 -24q-6 -10 -13 -10q-4 0 -12 3zM755 595q20 -91 53.5 -164t84 -130.5t123 -89t162.5 -31.5q116 0 216.5 63.5t156.5 166.5
q0 -92 -35.5 -172t-97.5 -138t-144.5 -99t-177 -61.5t-194.5 -20.5q-165 0 -307 50.5t-244 136.5t-174.5 200t-108 242.5t-35.5 262.5t36 262t109 241t174.5 198t243 134t304.5 49q142 0 262 -32.5t204 -87.5t143 -129t87 -156t28 -169q0 -106 -43 -203.5t-123 -175.5
t-209 -125t-287 -47q-135 0 -207 25zM742 667q38 -10 74 -10q66 0 116 38t77.5 104t41 144.5t13.5 169.5q0 184 -45.5 341t-98.5 157q-42 0 -87 -103t-76 -273.5t-31 -342.5q0 -119 16 -225z" />
    <glyph glyph-name="edieresis" unicode="&#xeb;" horiz-adv-x="1676" 
d="M1138 2182q73 0 124.5 -51.5t51.5 -124.5t-51.5 -124.5t-124.5 -51.5q-70 0 -123 53t-53 123q0 72 52 124t124 52zM644 2182q75 0 125.5 -50.5t50.5 -125.5q0 -73 -51.5 -124.5t-124.5 -51.5q-72 0 -123 52t-51 124t51 124t123 52zM755 595q20 -91 53.5 -164t84 -130.5
t123 -89t162.5 -31.5q116 0 216.5 63.5t156.5 166.5q0 -92 -35.5 -172t-97.5 -138t-144.5 -99t-177 -61.5t-194.5 -20.5q-165 0 -307 50.5t-244 136.5t-174.5 200t-108 242.5t-35.5 262.5t36 262t109 241t174.5 198t243 134t304.5 49q142 0 262 -32.5t204 -87.5t143 -129
t87 -156t28 -169q0 -106 -43 -203.5t-123 -175.5t-209 -125t-287 -47q-135 0 -207 25zM742 667q38 -10 74 -10q66 0 116 38t77.5 104t41 144.5t13.5 169.5q0 184 -45.5 341t-98.5 157q-42 0 -87 -103t-76 -273.5t-31 -342.5q0 -119 16 -225z" />
    <glyph glyph-name="igrave" unicode="&#xec;" horiz-adv-x="837" 
d="M681 2049l-42 -37q-5 -4 -10 -4q-3 0 -9 4l-400 278q-59 41 -66 101t29.5 103.5t92.5 43.5q91 0 158 -100l247 -371q9 -9 0 -18zM772 1625v-819q0 -280 30 -501t87 -305h-849q57 84 87 305t30 501q0 282 -30 508.5t-87 310.5h732z" />
    <glyph glyph-name="iacute" unicode="&#xed;" horiz-adv-x="837" 
d="M193 2012l-37 30q-4 5 -4 12.5t4 12.5l251 371q34 50 69.5 75t89.5 25q41 0 72 -27.5t42.5 -65.5t-4.5 -83t-61 -77l-398 -273q-6 -4 -12 -4q-8 0 -12 4zM772 1625v-819q0 -280 30 -501t87 -305h-849q57 84 87 305t30 501q0 282 -30 508.5t-87 310.5h732z" />
    <glyph glyph-name="icircumflex" unicode="&#xee;" horiz-adv-x="837" 
d="M407 2290l-311 -197q-14 -9 -21 -9q-2 0 -10 2l-24 31q-11 13 4 31l329 422q27 25 38 25q17 0 38 -33l343 -416q13 -17 3 -29l-24 -24q-6 -10 -13 -10q-5 0 -12 3zM772 1625v-819q0 -280 30 -501t87 -305h-849q57 84 87 305t30 501q0 282 -30 508.5t-87 310.5h732z" />
    <glyph glyph-name="idieresis" unicode="&#xef;" horiz-adv-x="837" 
d="M664 2360q73 0 124.5 -51.5t51.5 -124.5t-51.5 -124.5t-124.5 -51.5q-70 0 -123 53t-53 123q0 72 52 124t124 52zM170 2360q75 0 125.5 -50.5t50.5 -125.5q0 -73 -51.5 -124.5t-124.5 -51.5q-72 0 -123 52t-51 124t51 124t123 52zM772 1625v-819q0 -280 30 -501t87 -305
h-849q57 84 87 305t30 501q0 282 -30 508.5t-87 310.5h732z" />
    <glyph glyph-name="eth" unicode="&#xf0;" horiz-adv-x="1710" 
d="M37 893q0 117 16 225t50 211.5t92 188t136 148.5t187.5 99.5t242.5 35.5q144 0 235 -87q0 135 -59 256l-376 -89l-27 115l334 79q-115 135 -284 135v157q349 0 607 -216l412 98l27 -115l-338 -80q178 -197 270 -479t92 -577q0 -159 -27 -301.5t-89 -271t-154 -222
t-230.5 -148.5t-309.5 -55q-159 0 -293 50t-227.5 135.5t-159 200t-96.5 242.5t-31 265zM670 926q0 -215 18 -398t58.5 -307.5t97.5 -124.5q56 0 96 124t58 307.5t18 398.5q0 202 -20 380v2q-21 181 -60 290t-93 109t-94.5 -114.5t-59.5 -289t-19 -377.5z" />
    <glyph glyph-name="ntilde" unicode="&#xf1;" horiz-adv-x="1934" 
d="M1357 2283h56q14 0 14 -17q0 -1 -1 -2v-18l-1 -2v-6q-18 -105 -86.5 -186.5t-167.5 -81.5q-82 0 -203 41l-31 10q-115 36 -174 36q-41 0 -75.5 -30.5t-42.5 -90.5q0 -13 -18 -13h-59q-13 0 -13 32q0 64 31 134.5t90.5 123t129.5 52.5q75 0 221 -48q134 -44 192 -44
q56 0 81.5 23.5t37.5 64.5q3 13 6.5 17.5t12.5 4.5zM795 838v-838h-732q57 84 87 305t30 501q0 282 -30 508.5t-87 310.5h732v-346q77 201 219 316.5t343 115.5q106 0 185.5 -29t127 -75t76.5 -114t39 -135t10 -148q0 -99 -19 -268q-12 -96 -12 -147q0 -268 31 -490t86 -305
h-849q55 83 86 305t31 490v43q0 107 -10 205.5t-28 177t-47 125.5t-64 47q-58 0 -106 -80.5t-73.5 -207t-25.5 -267.5z" />
    <glyph glyph-name="ograve" unicode="&#xf2;" horiz-adv-x="1817" 
d="M955 1871l-42 -37q-5 -4 -10 -4q-3 0 -9 4l-400 278q-59 41 -66 101t29.5 103.5t92.5 43.5q91 0 158 -100l247 -371q9 -9 0 -18zM915 -81q-165 0 -308.5 50t-247 136t-178.5 199t-111.5 242t-36.5 262q0 134 37.5 263t112.5 242t179 198t247 134.5t306 49.5t304 -49.5
t243.5 -134.5t176 -198t109.5 -241.5t36 -263.5q0 -134 -35.5 -262t-108.5 -241.5t-175 -199.5t-244 -136t-306 -50zM918 1610q-55 0 -98.5 -110.5t-65 -282t-21.5 -367.5q0 -222 15.5 -404t54 -310t96.5 -128t102 124t65 311.5t21 403.5q0 199 -17.5 367.5t-57 282
t-94.5 113.5z" />
    <glyph glyph-name="oacute" unicode="&#xf3;" horiz-adv-x="1817" 
d="M895 1834l-37 30q-4 5 -4 12.5t4 12.5l251 371q34 50 69.5 75t89.5 25q41 0 72 -27.5t42.5 -65.5t-4.5 -83t-61 -77l-398 -273q-6 -4 -12 -4q-8 0 -12 4zM915 -81q-165 0 -308.5 50t-247 136t-178.5 199t-111.5 242t-36.5 262q0 134 37.5 263t112.5 242t179 198
t247 134.5t306 49.5t304 -49.5t243.5 -134.5t176 -198t109.5 -241.5t36 -263.5q0 -134 -35.5 -262t-108.5 -241.5t-175 -199.5t-244 -136t-306 -50zM918 1610q-55 0 -98.5 -110.5t-65 -282t-21.5 -367.5q0 -222 15.5 -404t54 -310t96.5 -128t102 124t65 311.5t21 403.5
q0 199 -17.5 367.5t-57 282t-94.5 113.5z" />
    <glyph glyph-name="ocircumflex" unicode="&#xf4;" horiz-adv-x="1817" 
d="M909 2112l-311 -197q-14 -9 -21 -9q-2 0 -10 2l-24 31q-11 13 4 31l329 422q27 25 38 25q17 0 38 -33l343 -416q13 -17 3 -29l-24 -24q-6 -10 -13 -10q-5 0 -12 3zM915 -81q-165 0 -308.5 50t-247 136t-178.5 199t-111.5 242t-36.5 262q0 134 37.5 263t112.5 242t179 198
t247 134.5t306 49.5t304 -49.5t243.5 -134.5t176 -198t109.5 -241.5t36 -263.5q0 -134 -35.5 -262t-108.5 -241.5t-175 -199.5t-244 -136t-306 -50zM918 1610q-55 0 -98.5 -110.5t-65 -282t-21.5 -367.5q0 -222 15.5 -404t54 -310t96.5 -128t102 124t65 311.5t21 403.5
q0 199 -17.5 367.5t-57 282t-94.5 113.5z" />
    <glyph glyph-name="otilde" unicode="&#xf5;" horiz-adv-x="1817" 
d="M1276 2283h56q14 0 14 -17q0 -1 -1 -2v-18l-1 -2v-6q-18 -105 -86.5 -186.5t-167.5 -81.5q-82 0 -203 41l-31 10q-115 36 -174 36q-41 0 -75.5 -30.5t-42.5 -90.5q0 -13 -18 -13h-59q-13 0 -13 32q0 64 31 134.5t90.5 123t129.5 52.5q75 0 221 -48q134 -44 192 -44
q56 0 81.5 23.5t37.5 64.5q3 13 6.5 17.5t12.5 4.5zM915 -81q-165 0 -308.5 50t-247 136t-178.5 199t-111.5 242t-36.5 262q0 134 37.5 263t112.5 242t179 198t247 134.5t306 49.5t304 -49.5t243.5 -134.5t176 -198t109.5 -241.5t36 -263.5q0 -134 -35.5 -262t-108.5 -241.5
t-175 -199.5t-244 -136t-306 -50zM918 1610q-55 0 -98.5 -110.5t-65 -282t-21.5 -367.5q0 -222 15.5 -404t54 -310t96.5 -128t102 124t65 311.5t21 403.5q0 199 -17.5 367.5t-57 282t-94.5 113.5z" />
    <glyph glyph-name="odieresis" unicode="&#xf6;" horiz-adv-x="1817" 
d="M1155 2182q73 0 124.5 -51.5t51.5 -124.5t-51.5 -124.5t-124.5 -51.5q-71 0 -123.5 53t-52.5 123q0 72 52 124t124 52zM661 2182q75 0 125.5 -50.5t50.5 -125.5q0 -73 -51.5 -124.5t-124.5 -51.5q-72 0 -123 52t-51 124t51 124t123 52zM915 -81q-165 0 -308.5 50
t-247 136t-178.5 199t-111.5 242t-36.5 262q0 134 37.5 263t112.5 242t179 198t247 134.5t306 49.5t304 -49.5t243.5 -134.5t176 -198t109.5 -241.5t36 -263.5q0 -134 -35.5 -262t-108.5 -241.5t-175 -199.5t-244 -136t-306 -50zM918 1610q-55 0 -98.5 -110.5t-65 -282
t-21.5 -367.5q0 -222 15.5 -404t54 -310t96.5 -128t102 124t65 311.5t21 403.5q0 199 -17.5 367.5t-57 282t-94.5 113.5z" />
    <glyph glyph-name="divide" unicode="&#xf7;" horiz-adv-x="1167" 
d="M274 1405q0 128 91 218.5t219 90.5t218.5 -91t90.5 -218q0 -128 -90.5 -219t-218.5 -91t-219 91t-91 219zM27 748v244h1113v-244h-1113zM274 310q0 128 91 218.5t219 90.5t218.5 -90.5t90.5 -218.5t-90.5 -219t-218.5 -91t-219 91t-91 219z" />
    <glyph glyph-name="oslash" unicode="&#xf8;" horiz-adv-x="1817" 
d="M915 -81q-309 0 -534 170l-71 -89h-111l115 145q-136 127 -208.5 302.5t-72.5 364.5q0 133 37.5 261.5t112.5 240.5t179 197t247 134.5t306 49.5q291 0 509 -155l68 85h111l-111 -139q141 -125 216.5 -303t75.5 -371q0 -135 -35.5 -264t-108.5 -243t-175 -200t-244 -136
t-306 -50zM918 1611q-55 1 -96.5 -111t-63 -281.5t-25.5 -372.5q-2 -87 0 -175l345 433q-15 224 -56 365t-104 142zM1084 973l-346 -435q14 -232 55 -379.5t106 -148.5q44 -1 80 70t58.5 190t35 265t13.5 304q0 46 -2 134z" />
    <glyph glyph-name="ugrave" unicode="&#xf9;" horiz-adv-x="1904" 
d="M967 1871l-42 -37q-5 -4 -10 -4q-3 0 -9 4l-400 278q-59 41 -66 101t29.5 103.5t92.5 43.5q91 0 158 -100l247 -371q9 -9 0 -18zM785 1625v-838q0 -107 10 -205.5t28 -177t47 -125.5t64 -47q58 0 106 80.5t73.5 207t25.5 267.5v32q0 280 -30 501t-87 305h732v-795
q0 -283 30 -514.5t87 -315.5h-662v456q0 26 -18 26q-7 0 -12 -7q-42 -166 -120 -289.5t-202 -197.5t-280 -74q-106 0 -185.5 29t-127 75t-76.5 114t-39 135t-10 148q0 99 19 268q12 96 12 147q0 268 -31 490t-86 305h732z" />
    <glyph glyph-name="uacute" unicode="&#xfa;" horiz-adv-x="1904" 
d="M907 1834l-37 30q-4 5 -4 12.5t4 12.5l251 371q34 50 69.5 75t89.5 25q41 0 72 -27.5t42.5 -65.5t-4.5 -83t-61 -77l-398 -273q-6 -4 -12 -4q-8 0 -12 4zM785 1625v-838q0 -107 10 -205.5t28 -177t47 -125.5t64 -47q58 0 106 80.5t73.5 207t25.5 267.5v32q0 280 -30 501
t-87 305h732v-795q0 -283 30 -514.5t87 -315.5h-662v456q0 26 -18 26q-7 0 -12 -7q-42 -166 -120 -289.5t-202 -197.5t-280 -74q-106 0 -185.5 29t-127 75t-76.5 114t-39 135t-10 148q0 99 19 268q12 96 12 147q0 268 -31 490t-86 305h732z" />
    <glyph glyph-name="ucircumflex" unicode="&#xfb;" horiz-adv-x="1904" 
d="M921 2112l-311 -197q-14 -9 -21 -9q-2 0 -10 2l-24 31q-11 13 4 31l329 422q27 25 38 25q17 0 38 -33l343 -416q13 -17 3 -29l-24 -24q-6 -10 -13 -10q-5 0 -12 3zM785 1625v-838q0 -107 10 -205.5t28 -177t47 -125.5t64 -47q58 0 106 80.5t73.5 207t25.5 267.5v32
q0 280 -30 501t-87 305h732v-795q0 -283 30 -514.5t87 -315.5h-662v456q0 26 -18 26q-7 0 -12 -7q-42 -166 -120 -289.5t-202 -197.5t-280 -74q-106 0 -185.5 29t-127 75t-76.5 114t-39 135t-10 148q0 99 19 268q12 96 12 147q0 268 -31 490t-86 305h732z" />
    <glyph glyph-name="udieresis" unicode="&#xfc;" horiz-adv-x="1904" 
d="M1167 2182q73 0 124.5 -51.5t51.5 -124.5t-51.5 -124.5t-124.5 -51.5q-71 0 -123.5 53t-52.5 123q0 72 52 124t124 52zM673 2182q75 0 125.5 -50.5t50.5 -125.5q0 -73 -51.5 -124.5t-124.5 -51.5q-72 0 -123 52t-51 124t51 124t123 52zM785 1625v-838q0 -107 10 -205.5
t28 -177t47 -125.5t64 -47q58 0 106 80.5t73.5 207t25.5 267.5v32q0 280 -30 501t-87 305h732v-795q0 -283 30 -514.5t87 -315.5h-662v456q0 26 -18 26q-7 0 -12 -7q-42 -166 -120 -289.5t-202 -197.5t-280 -74q-106 0 -185.5 29t-127 75t-76.5 114t-39 135t-10 148
q0 99 19 268q12 96 12 147q0 268 -31 490t-86 305h732z" />
    <glyph glyph-name="yacute" unicode="&#xfd;" horiz-adv-x="1837" 
d="M693 2012l-37 30q-4 5 -4 12.5t4 12.5l251 371q34 50 69.5 75t89.5 25q41 0 72 -27.5t42.5 -65.5t-4.5 -83t-61 -77l-398 -273q-6 -4 -12 -4q-8 0 -12 4zM785 1625v-838q0 -107 10 -205.5t28 -177t47 -125.5t64 -47q58 0 106 80.5t73.5 207t25.5 267.5v32q0 280 -30 501
t-87 305h732v-1811q0 -674 -729 -674q-148 0 -267.5 25t-195.5 65.5t-127 96t-72.5 113t-21.5 119.5q0 130 88.5 203t208.5 73q77 0 142.5 -30t109.5 -95t44 -155q0 -70 -43 -135q-31 -46 -31 -77q0 -53 52 -93t118 -40q179 0 179 337v909q0 26 -18 26q-7 0 -12 -7
q-42 -166 -120 -289.5t-202 -197.5t-280 -74q-106 0 -185.5 29t-127 75t-76.5 114t-39 135t-10 148q0 99 19 268q12 96 12 147q0 268 -31 490t-86 305h732z" />
    <glyph glyph-name="thorn" unicode="&#xfe;" horiz-adv-x="1890" 
d="M1283 -81q-104 0 -194 41t-157.5 114t-116 168.5t-78.5 210.5l-1 2v1l-2 9v1l-1 2v1q-4 9 -14 7q-17 -2 -17 -24v-1120h-544l-1 2091q0 283 -30 514.5t-87 315.5h732v-1000q76 206 219.5 324.5t347.5 118.5q118 0 213 -70t155 -188.5t92 -268.5t32 -315
q0 -141 -21 -274.5t-65.5 -253.5t-108 -210.5t-154.5 -143.5t-199 -53zM1131 838q5 219 -37 387t-112 168q-58 0 -104.5 -81t-71.5 -206t-29 -268q-5 -219 37 -387t112 -168q58 0 104.5 81t71.5 206t29 268z" />
    <glyph glyph-name="ydieresis" unicode="&#xff;" horiz-adv-x="1837" 
d="M1165 2360q73 0 124.5 -51.5t51.5 -124.5t-51.5 -124.5t-124.5 -51.5q-71 0 -123.5 53t-52.5 123q0 72 52 124t124 52zM671 2360q75 0 125.5 -50.5t50.5 -125.5q0 -73 -51.5 -124.5t-124.5 -51.5q-72 0 -123 52t-51 124t51 124t123 52zM785 1625v-838q0 -107 10 -205.5
t28 -177t47 -125.5t64 -47q58 0 106 80.5t73.5 207t25.5 267.5v32q0 280 -30 501t-87 305h732v-1811q0 -674 -729 -674q-148 0 -267.5 25t-195.5 65.5t-127 96t-72.5 113t-21.5 119.5q0 130 88.5 203t208.5 73q77 0 142.5 -30t109.5 -95t44 -155q0 -70 -43 -135
q-31 -46 -31 -77q0 -53 52 -93t118 -40q179 0 179 337v909q0 26 -18 26q-7 0 -12 -7q-42 -166 -120 -289.5t-202 -197.5t-280 -74q-106 0 -185.5 29t-127 75t-76.5 114t-39 135t-10 148q0 99 19 268q12 96 12 147q0 268 -31 490t-86 305h732z" />
    <glyph glyph-name="Dcroat" unicode="&#x110;" horiz-adv-x="1941" 
d="M73 2129q102 0 372 30q371 40 550 40q184 0 333 -55t250.5 -151.5t169.5 -232t99 -292.5t31 -338q0 -185 -32 -356.5t-102 -326t-171 -268.5t-249.5 -181t-328.5 -67q-151 0 -447 34q-310 36 -475 36q55 83 86 305t31 490v163h-143v244h143v96q0 283 -30 514.5t-87 315.5
zM805 45q41 -14 82 -14q51 0 94.5 24.5t75.5 65.5t57.5 101.5t42.5 123.5t29.5 142t19.5 146.5t11 147t5 134.5t1 116v177q0 889 -327 889q-43 0 -91 -16v-879h171v-244h-171v-914z" />
    <glyph glyph-name="dcroat" unicode="&#x111;" horiz-adv-x="1883" 
d="M1088 1423q0 131 -8 270h-245v181h231q-31 285 -95 379h732v-379h248v-181h-248v-863q0 -283 30 -514.5t87 -315.5h-662v479q0 16 -8.5 22.5t-16.5 0.5q-30 -124 -82.5 -227.5t-126.5 -184t-176.5 -126t-221.5 -45.5q-138 0 -245 98t-161.5 254.5t-78.5 345.5t6.5 378
t92 345.5t178 254.5t264.5 98q176 0 304.5 -109.5t201.5 -295.5v135zM734 792q-5 -219 37 -387t112 -168q58 0 104.5 81t71.5 206t29 268v90q-5 193 -45.5 329t-103.5 136q-58 0 -104.5 -81t-71.5 -206t-29 -268z" />
    <glyph glyph-name="dotlessi" unicode="&#x131;" horiz-adv-x="837" 
d="M772 1625v-819q0 -280 30 -501t87 -305h-849q57 84 87 305t30 501q0 282 -30 508.5t-87 310.5h732z" />
    <glyph glyph-name="Lslash" unicode="&#x141;" horiz-adv-x="1609" 
d="M922 2128q-55 -83 -86 -305t-31 -490v-178h334v-181h-334v-891h16q93 0 177 20.5t162 67t141 116t111 172.5t74 232l101 -691h-1514q57 84 87 315.5t30 514.5v144h-190v181h190v178q0 268 -31 490t-86 305h849z" />
    <glyph glyph-name="lslash" unicode="&#x142;" horiz-adv-x="985" 
d="M805 2253v-1195h318v-181h-318v-82q0 -268 31 -490t86 -305h-849q55 83 86 305t31 490v82h-328v181h328v365q0 283 -30 514.5t-87 315.5h732z" />
    <glyph glyph-name="OE" unicode="&#x152;" horiz-adv-x="2779" 
d="M994 -81q-195 0 -354 64.5t-264.5 173.5t-177.5 257t-103.5 310t-31.5 339q0 145 23 281t70 264t123.5 234t177 185.5t238 123.5t299.5 44q53 0 247 -33.5t341 -33.5h1134l-101 -691q-26 129 -74 232t-111 172.5t-141 116t-162 67t-177 20.5h-16v-858q90 15 169 43.5
t134.5 64t99 74.5t70.5 78t42 70.5t19 56.5v-895q-9 32 -28.5 72t-62 94t-99.5 101t-147 88.5t-197 60.5v-1012h16q93 0 177 20.5t162 67t141 116t111 172.5t74 232l101 -691h-1121q-110 0 -209 -12.5t-157 -28t-122 -28t-113 -12.5zM1004 2103q-73 0 -126.5 -155
t-78.5 -387.5t-25 -503.5q0 -276 24.5 -508t78.5 -385t128 -153q73 0 126 153t77.5 385t24.5 508q0 270 -25 503t-78.5 388t-125.5 155z" />
    <glyph glyph-name="oe" unicode="&#x153;" horiz-adv-x="2726" 
d="M915 -81q-165 0 -308.5 50t-247 136t-178.5 200t-111.5 243t-36.5 264q0 133 37.5 261.5t112.5 240.5t179 197t247 134.5t306 49.5q298 0 517 -161q221 161 518 161q339 0 539 -176q151 -132 179 -324q28 -186 -72 -346q-110 -176 -330 -243q-116 -36 -254 -36
q-114 0 -216 34q19 -110 64.5 -194.5t106.5 -133t126.5 -72.5t134.5 -24q116 0 216.5 63.5t156.5 166.5q0 -92 -35.5 -172t-97.5 -138t-144.5 -99t-177 -61.5t-194.5 -20.5q-299 0 -518 162q-220 -162 -519 -162zM1787 674q37 -17 72 -17q63 0 115.5 32t87 86.5t60 125
t36.5 149t15.5 157t-2.5 150.5t-19 128.5t-31.5 92t-42.5 39.5q-63 11 -118.5 -70.5t-91.5 -212t-58 -267.5t-26 -252v-3q0 -29 -1 -44q0 -55 4 -94zM918 1611q-55 1 -96.5 -111t-63 -281.5t-25.5 -372.5q-5 -213 11 -398.5t56.5 -311t98.5 -126.5q40 -1 72 50.5t51 136.5
t32 176.5t19 190t8 156.5t2 94q0 37 -0.5 67.5t-2 103t-6 131.5t-12 136t-20 135.5t-29 111.5t-41 82t-54.5 30z" />
    <glyph glyph-name="Scaron" unicode="&#x160;" horiz-adv-x="1714" 
d="M864 2608l312 192q14 9 21 9q5 0 12 -3l24 -31q9 -13 -4 -30l-332 -423q-26 -24 -36 -24q-15 0 -39 31l-343 419q-14 15 -2 27l24 25q6 11 13 11q4 0 12 -5zM720 1q59 0 120 27.5t112.5 76.5t84.5 127t33 168q0 38 -13 75t-31 67t-54 65t-64 59t-81 59t-85.5 55t-94.5 58
q-214 129 -308 205q-223 179 -261 387q-8 47 -8 95q0 132 47.5 243.5t127.5 189t186 132t223.5 80t240.5 25.5q135 0 333 -33q215 -35 365 -35l-120 -687q-19 122 -44.5 217t-68 183.5t-99 146t-138.5 91.5t-186 34q-50 0 -94 -7.5t-88 -26t-75.5 -48t-51 -77.5t-19.5 -109
q0 -33 11.5 -64t27 -55.5t48 -53.5t57 -48t73 -48t77 -44.5t87.5 -47.5q216 -116 316 -189q250 -183 317 -425q27 -98 27 -208q0 -137 -46 -257t-126 -208t-185.5 -151.5t-226 -95t-246.5 -31.5q-132 0 -362 40q-242 42 -395 42l151 940q18 -111 28.5 -174.5t35.5 -176
t48.5 -181.5t63.5 -155.5t84.5 -134.5t108 -82.5t137.5 -34.5z" />
    <glyph glyph-name="scaron" unicode="&#x161;" horiz-adv-x="1588" 
d="M834 2150l312 192q14 9 21 9q5 0 12 -3l24 -31q9 -13 -4 -30l-332 -423q-26 -24 -36 -24q-15 0 -39 31l-343 419q-14 15 -2 27l24 25q6 11 13 11q4 0 12 -5zM615 233q-63 -92 -63 -140q0 -35 35.5 -56t88.5 -21q41 0 81 13.5t75.5 40t57.5 72t22 103.5q0 71 -50 146
t-141 129l-326 194q-137 82 -227.5 214t-90.5 263q0 100 44.5 184.5t120 143t175.5 99.5t210.5 60t225.5 19q128 0 244.5 -24.5t208.5 -70t146.5 -117.5t54.5 -161q0 -96 -81 -163.5t-213 -67.5q-126 0 -199.5 64.5t-73.5 180.5q0 35 9 58.5t35 52.5q25 27 25 56
q0 57 -56 89.5t-134 32.5q-59 0 -110.5 -18t-87 -59t-35.5 -98q0 -64 44 -129.5t127 -112.5l418 -235q80 -45 138 -89t112 -105.5t82 -141.5t28 -177q0 -107 -46.5 -198t-125 -154t-183 -107t-219.5 -64.5t-235 -20.5q-132 0 -252 26t-214.5 74t-150.5 125t-56 171
q0 65 27 117.5t72 84.5t99.5 48.5t114.5 16.5q108 0 189 -50.5t92 -142.5q3 -11 3 -35q0 -68 -35 -120z" />
    <glyph glyph-name="Ydieresis" unicode="&#x178;" horiz-adv-x="2278" 
d="M1348 2640q73 0 124.5 -51.5t51.5 -124.5t-51.5 -124.5t-124.5 -51.5q-70 0 -123 53t-53 123q0 72 52 124t124 52zM854 2640q75 0 125.5 -50.5t50.5 -125.5q0 -73 -51.5 -124.5t-124.5 -51.5q-72 0 -123 52t-51 124t51 124t123 52zM744 1014l-159 282
q-159 283 -320 514.5t-265 315.5h903v-6q0 -105 59.5 -252t135.5 -280l193 -339l38 56q136 202 136 411q0 145 -62.5 256.5t-155.5 151.5h1031q-48 -7 -120 -50t-169 -125.5t-224.5 -228.5t-261.5 -335l-144 -200v-390q0 -268 31 -490t86 -305h-849q55 83 86 305t31 490v219
z" />
    <glyph glyph-name="Zcaron" unicode="&#x17d;" horiz-adv-x="1644" 
d="M933 2608l312 192q14 9 21 9q4 0 12 -3l24 -31q9 -13 -4 -30l-332 -423q-26 -24 -36 -24q-15 0 -39 31l-343 419q-14 15 -2 27l24 25q6 11 13 11q4 0 12 -5zM12 0q85 82 197.5 304.5t211.5 490.5l463 1249h-156q-102 0 -200 -96.5t-164.5 -242t-96.5 -305.5l-101 728
h1474q-86 -83 -199.5 -312.5t-220.5 -517.5l-455 -1214h283q102 0 200 96.5t164.5 242t96.5 305.5l101 -728h-1598z" />
    <glyph glyph-name="zcaron" unicode="&#x17e;" horiz-adv-x="1883" 
d="M1064 2150l312 192q14 9 21 9q5 0 12 -3l24 -31q9 -13 -4 -30l-332 -423q-26 -24 -36 -24q-15 0 -39 31l-343 419q-14 15 -2 27l24 25q6 11 13 11q4 0 12 -5zM816 26q145 -41 292 -41q104 0 168.5 25.5t64.5 78.5q0 39 -29 54q-71 37 -108 105.5t-37 147.5
q0 126 86.5 219.5t235.5 93.5q86 0 153.5 -28t107 -74t59.5 -100.5t20 -113.5q0 -221 -189 -349.5t-507 -128.5q-177 0 -431 42q-265 43 -436 43h-213q67 59 157 194.5t221 357.5l599 1021q-215 53 -372 53q-113 0 -113 -84q0 -26 11.5 -50.5t23 -39t34.5 -37.5
q48 -49 69.5 -89t21.5 -98q0 -116 -81.5 -189.5t-205.5 -73.5q-142 0 -225 97t-83 234q0 77 29 149.5t85.5 133.5t153 98t218.5 37q188 0 471 -48q242 -41 400 -41h342q-67 -58 -156.5 -193t-221.5 -359z" />
    <glyph glyph-name="florin" unicode="&#x192;" horiz-adv-x="1275" 
d="M31 1489v96h297l11 130q46 514 335.5 778t798.5 264v-98q-51 0 -106.5 -16.5t-120 -62t-117.5 -114t-94 -184.5t-54 -261l-38 -436h312v-96h-321l-98 -1113q-46 -514 -335.5 -778t-798.5 -264v98q51 0 106.5 16.5t120 62t117.5 114t94 184.5t54 261l125 1419h-288z" />
    <glyph glyph-name="circumflex" unicode="&#x2c6;" horiz-adv-x="824" 
d="M401 2290l-311 -197q-14 -9 -21 -9q-2 0 -10 2l-24 31q-11 13 4 31l329 422q27 25 38 25q17 0 38 -33l343 -416q13 -17 3 -29l-24 -24q-6 -10 -13 -10q-5 0 -12 3z" />
    <glyph glyph-name="caron" unicode="&#x2c7;" horiz-adv-x="824" 
d="M422 2328l312 192q14 9 21 9q5 0 12 -3l24 -31q9 -13 -4 -30l-332 -423q-26 -24 -36 -24q-15 0 -39 31l-343 419q-14 15 -2 27l24 25q6 11 13 11q4 0 12 -5z" />
    <glyph glyph-name="breve" unicode="&#x2d8;" horiz-adv-x="883" 
d="M731 2505h96q0 -487 -390 -487q-381 0 -381 487h96q25 -118 99.5 -181t187.5 -63q116 0 190.5 63t101.5 181z" />
    <glyph glyph-name="dotaccent" unicode="&#x2d9;" horiz-adv-x="456" 
d="M228 2510q73 0 124.5 -51.5t51.5 -124.5t-51.5 -124.5t-124.5 -51.5q-70 0 -123 53t-53 123q0 71 52.5 123.5t123.5 52.5z" />
    <glyph glyph-name="ring" unicode="&#x2da;" horiz-adv-x="787" 
d="M405 2532q142 0 234 -65.5t92 -162.5q6 -81 -42.5 -143t-129.5 -93.5t-178 -31.5q-144 0 -235 67t-91 170q0 113 101.5 186t248.5 73zM399 2432q-63 0 -102 -40.5t-39 -106.5q0 -71 36 -113t98 -42q63 0 103.5 42t40.5 118q0 68 -39 105t-98 37z" />
    <glyph glyph-name="tilde" unicode="&#x2dc;" horiz-adv-x="974" 
d="M858 2461h56q14 0 14 -17q0 -1 -1 -2v-18l-1 -2v-6q-18 -105 -86.5 -186.5t-167.5 -81.5q-82 0 -203 41l-31 10q-115 36 -174 36q-41 0 -75.5 -30.5t-42.5 -90.5q0 -13 -18 -13h-59q-13 0 -13 32q0 64 31 134.5t90.5 123t129.5 52.5q75 0 221 -48q134 -44 192 -44
q56 0 81.5 23.5t37.5 64.5q3 13 6.5 17.5t12.5 4.5z" />
    <glyph glyph-name="hungarumlaut" unicode="&#x2dd;" horiz-adv-x="1103" 
d="M84 2012l-37 30q-5 5 -5 12.5t5 12.5l251 371q34 50 69.5 75t89.5 25q41 0 72.5 -27.5t42.5 -66t-4.5 -83.5t-61.5 -76l-398 -273q-6 -4 -12 -4q-8 0 -12 4zM569 2012l-37 30q-4 5 -4 12.5t4 12.5l251 371q34 50 69.5 75t89.5 25q41 0 72 -27.5t42.5 -65.5t-4.5 -83
t-61 -77l-398 -273q-6 -4 -12 -4q-8 0 -12 4z" />
    <glyph glyph-name="uni03BC" unicode="&#x3bc;" horiz-adv-x="1894" 
d="M419 11q2 -127 28 -235t50.5 -200t24.5 -182q0 -254 -220 -254q-214 0 -214 264q0 85 23 178t46 204t23 240v804q0 268 -31 490t-86 305h732v-838q0 -107 10 -205.5t28 -177t47 -125.5t64 -47q58 0 104.5 81t71.5 206t29 268v32q0 280 -30 501t-87 305h732v-795
q0 -283 30 -514.5t87 -315.5h-662v456q0 26 -18 26q-7 0 -12 -7q-30 -117 -79.5 -216.5t-118 -177t-160 -121.5t-194.5 -44q-129 0 -218 95z" />
    <glyph glyph-name="endash" unicode="&#x2013;" horiz-adv-x="1409" 
d="M1335 1058v-181h-1261v181h1261z" />
    <glyph glyph-name="emdash" unicode="&#x2014;" horiz-adv-x="2081" 
d="M75 877v181h1931v-181h-1931z" />
    <glyph glyph-name="quoteleft" unicode="&#x2018;" horiz-adv-x="692" 
d="M399 1765q121 0 208 -95.5t87 -218.5q0 -125 -91 -215t-219 -90q-83 0 -149 32t-106.5 88t-61.5 128.5t-21 156.5q0 116 38.5 233.5t107.5 216.5t178 161.5t238 62.5q36 0 36 -30q0 -19 -30 -46q-49 -46 -83 -82t-71 -86t-56.5 -104.5t-19.5 -111.5h15z" />
    <glyph glyph-name="quoteright" unicode="&#x2019;" horiz-adv-x="714" 
d="M340 1606q-121 0 -208 95.5t-87 218.5q0 125 91 215t219 90q83 0 149 -32t106.5 -88t61.5 -128.5t21 -156.5q0 -116 -38.5 -233.5t-107.5 -216.5t-178 -161.5t-238 -62.5q-36 0 -36 30q0 19 30 46q49 46 83 82t71 86t56.5 104.5t19.5 111.5h-15z" />
    <glyph glyph-name="quotesinglbase" unicode="&#x201a;" horiz-adv-x="748" 
d="M340 -81q-121 0 -208 95.5t-87 218.5q0 125 91 215t219 90q83 0 149 -32t106.5 -88t61.5 -128.5t21 -156.5q0 -116 -38.5 -233.5t-107.5 -216.5t-178 -161.5t-238 -62.5q-36 0 -36 30q0 19 30 46q49 46 83 82t71 86t56.5 104.5t19.5 111.5h-15z" />
    <glyph glyph-name="quotedblleft" unicode="&#x201c;" horiz-adv-x="1408" 
d="M1095 1765q121 0 208 -95.5t87 -218.5q0 -125 -91 -215t-219 -90q-83 0 -149 32t-106.5 88t-61.5 128.5t-21 156.5q0 116 38.5 233.5t107.5 216.5t178 161.5t238 62.5q36 0 36 -30q0 -19 -30 -46q-49 -46 -83 -82t-71 -86t-56.5 -104.5t-19.5 -111.5h15zM399 1765
q121 0 208 -95.5t87 -218.5q0 -125 -91 -215t-219 -90q-83 0 -149 32t-106.5 88t-61.5 128.5t-21 156.5q0 116 38.5 233.5t107.5 216.5t178 161.5t238 62.5q36 0 36 -30q0 -19 -30 -46q-49 -46 -83 -82t-71 -86t-56.5 -104.5t-19.5 -111.5h15z" />
    <glyph glyph-name="quotedblright" unicode="&#x201d;" horiz-adv-x="1425" 
d="M340 1606q-121 0 -208 95.5t-87 218.5q0 125 91 215t219 90q83 0 149 -32t106.5 -88t61.5 -128.5t21 -156.5q0 -116 -38.5 -233.5t-107.5 -216.5t-178 -161.5t-238 -62.5q-36 0 -36 30q0 19 30 46q49 46 83 82t71 86t56.5 104.5t19.5 111.5h-15zM1036 1606
q-121 0 -208 95.5t-87 218.5q0 125 91 215t219 90q83 0 149 -32t106.5 -88t61.5 -128.5t21 -156.5q0 -116 -38.5 -233.5t-107.5 -216.5t-178 -161.5t-238 -62.5q-36 0 -36 30q0 19 30 46q49 46 83 82t71 86t56.5 104.5t19.5 111.5h-15z" />
    <glyph glyph-name="quotedblbase" unicode="&#x201e;" horiz-adv-x="1412" 
d="M340 -81q-121 0 -208 95.5t-87 218.5q0 125 91 215t219 90q83 0 149 -32t106.5 -88t61.5 -128.5t21 -156.5q0 -116 -38.5 -233.5t-107.5 -216.5t-178 -161.5t-238 -62.5q-36 0 -36 30q0 19 30 46q49 46 83 82t71 86t56.5 104.5t19.5 111.5h-15zM1027 -81
q-121 0 -208 95.5t-87 218.5q0 125 91 215t219 90q83 0 149 -32t106.5 -88t61.5 -128.5t21 -156.5q0 -116 -38.5 -233.5t-107.5 -216.5t-178 -161.5t-238 -62.5q-36 0 -36 30q0 19 30 46q49 46 83 82t71 86t56.5 104.5t19.5 111.5h-15z" />
    <glyph glyph-name="dagger" unicode="&#x2020;" horiz-adv-x="1471" 
d="M774 -586v-160h-88v160q0 690 -61 1086q-39 272 -121 506q39 34 72 77q28 35 55 88q23 60 36 106q17 67 19 133q-86 -10 -117 -21q-69 -25 -169 -83q-106 -61 -176 -61q-89 0 -151 59q-61 58 -61 146q0 81 61 145q59 54 144 56q66 0 206 -71q145 -75 263 -93
q0 133 -92 331q-50 110 -67 163q-16 48 -16 103q0 110 66 180q65 69 151 69q94 0 160 -68q66 -69 66 -181q0 -39 -1 -51q-1 -19 -12 -58q-7 -28 -23 -61q-8 -19 -41 -85t-47 -101q-39 -96 -48 -154q-8 -45 -8 -87q5 1 27.5 3t35 3.5t32.5 6t35 11.5q40 12 159 82l99 51
q29 10 81 10q93 0 154 -60q62 -60 62 -147t-62 -141q-58 -58 -145 -58q-53 0 -94 14q-28 8 -139 72q-113 62 -245 76q23 -263 188 -404q-104 -310 -140 -587q-48 -359 -48 -1005z" />
    <glyph glyph-name="daggerdbl" unicode="&#x2021;" horiz-adv-x="1507" 
d="M30 1450q0 81 61 145q59 54 144 56q66 0 206 -71q145 -75 263 -93q0 133 -92 331q-50 110 -67 163q-16 48 -16 103q0 110 66 180q65 69 151 69q102 0 164 -72.5t62 -176.5q0 -94 -36 -170q-8 -19 -41 -85t-47 -101q-56 -139 -56 -241q5 1 27.5 3t35 3.5t32.5 6t35 11.5
q40 12 159 82l99 51q29 10 81 10q90 0 153 -59t63 -148q0 -87 -62 -141q-58 -58 -145 -58q-53 0 -94 14q-22 6 -139 72q-110 62 -245 76q23 -177 188 -272q-69 -54 -108.5 -124t-59.5 -198q14 -163 52.5 -243.5t120.5 -137.5q-85 -49 -132 -121.5t-50 -150.5q86 10 117 21
q69 25 169 83q106 61 176 61q90 0 151 -58t61 -147q0 -81 -61 -145q-59 -54 -144 -56q-66 0 -206 71q-145 75 -263 93q0 -133 92 -331q50 -110 67 -163q16 -48 16 -103q0 -109 -66 -180q-64 -69 -151 -69q-102 0 -164 72.5t-62 176.5q0 94 36 170q8 19 41 85t47 101
q56 139 56 241q-5 -1 -27.5 -3t-35 -3.5t-32.5 -6t-35 -11.5q-40 -12 -159 -82l-99 -51q-29 -10 -81 -10q-90 0 -153 59t-63 148q0 87 62 141q58 58 145 58q53 0 94 -14q22 -6 139 -72q110 -62 245 -76q-23 177 -188 272q69 54 108.5 124t59.5 198q-14 163 -52.5 243.5
t-120.5 137.5q85 49 132 121.5t50 150.5q-86 -10 -117 -21q-69 -25 -169 -83q-106 -61 -176 -61q-90 0 -151 58t-61 147z" />
    <glyph glyph-name="bullet" unicode="&#x2022;" horiz-adv-x="854" 
d="M54 1065q0 154 109.5 263t264.5 109q153 0 262.5 -109t109.5 -263t-109.5 -264t-262.5 -110q-155 0 -264.5 109.5t-109.5 264.5z" />
    <glyph glyph-name="ellipsis" unicode="&#x2026;" horiz-adv-x="2181" 
d="M54 230q0 128 91 218.5t219 90.5t218.5 -90.5t90.5 -218.5t-90.5 -219t-218.5 -91t-219 91t-91 219zM781 230q0 128 91 218.5t219 90.5q127 0 218 -90.5t91 -218.5t-90.5 -219t-218.5 -91t-219 91t-91 219zM1508 230q0 128 91 218.5t219 90.5t218.5 -90.5t90.5 -218.5
t-90.5 -219t-218.5 -91t-219 91t-91 219z" />
    <glyph glyph-name="perthousand" unicode="&#x2030;" horiz-adv-x="3380" 
d="M53 1625q0 173 39.5 309.5t109 222.5t161.5 130.5t200 44.5t200.5 -45t163 -131t111 -223.5t40.5 -310.5q0 -176 -41 -315t-113 -225t-164 -131t-198 -45q-109 0 -201.5 47t-161 136t-107.5 226.5t-39 309.5zM639 0h-97l1128 2324h97zM564 961q59 0 95 209t36 470
q0 163 -14.5 306t-45 237t-69.5 94q-40 0 -69.5 -94.5t-43.5 -236t-14 -301.5q0 -296 34.5 -490t90.5 -194zM1211 638q0 173 39.5 309.5t109 222.5t161.5 130.5t200 44.5t200.5 -45t163 -131t111 -223.5t40.5 -310.5q0 -176 -41 -315t-113 -225t-164 -131t-198 -45
q-109 0 -201.5 47t-161 136t-107.5 226.5t-39 309.5zM2324 638q0 173 39.5 309.5t109 222.5t161.5 130.5t200 44.5t200.5 -45t163 -131t111 -223.5t40.5 -310.5q0 -176 -41 -315t-113 -225t-164 -131t-198 -45q-109 0 -201.5 47t-161 136t-107.5 226.5t-39 309.5zM1722 -26
q59 0 95 209t36 470q0 163 -14.5 306t-45 237t-69.5 94q-40 0 -69.5 -94.5t-43.5 -236t-14 -301.5q0 -296 34.5 -490t90.5 -194zM2835 -26q59 0 95 209t36 470q0 163 -14.5 306t-45 237t-69.5 94q-40 0 -69.5 -94.5t-43.5 -236t-14 -301.5q0 -296 34.5 -490t90.5 -194z" />
    <glyph glyph-name="guilsinglleft" unicode="&#x2039;" horiz-adv-x="1035" 
d="M989 83h-134l-849 816l857 815h126l-414 -815z" />
    <glyph glyph-name="guilsinglright" unicode="&#x203a;" horiz-adv-x="1035" 
d="M1029 899l-849 -816h-134l414 816l-414 815h126z" />
    <glyph glyph-name="fraction" unicode="&#x2044;" horiz-adv-x="1233" 
d="M4 0l1128 2324h97l-1128 -2324h-97z" />
    <glyph glyph-name="Euro" unicode="&#x20ac;" horiz-adv-x="1927" 
d="M39 1269v244h246q42 180 126 335.5t205 276t287.5 190t358.5 69.5q125 0 230.5 -30t177.5 -79.5t122 -115t73 -135.5t23 -141q0 -146 -91.5 -247.5t-244.5 -101.5q-86 0 -158.5 33.5t-119 104t-46.5 167.5q76 0 135.5 21.5t94.5 57t53 78t18 88.5q0 82 -52 142t-138 60
q-87 0 -158 -41t-119 -111t-82 -169.5t-51.5 -210.5t-23.5 -241h498v-244h-499l9 -132h437v-244h-402q22 -109 53.5 -202t77 -175t101.5 -139.5t129.5 -90.5t157.5 -33q131 0 247 100l46 -40q-91 -147 -239.5 -230t-353.5 -83q-150 0 -282 46.5t-232 128.5t-178 195.5
t-128 244.5t-76 278h-232v244h209v132h-209z" />
    <glyph glyph-name="trademark" unicode="&#x2122;" horiz-adv-x="2286" 
d="M59 2217h925v-385h-30q0 78 -33 150t-96.5 120t-141.5 48v-608q0 -135 16 -247.5t44 -154.5h-431q28 42 43.5 154.5t15.5 247.5v611q-108 0 -195 -101t-87 -220h-30v385zM1464 1140l-246 694v-292q0 -323 52 -402h-251q29 43 47.5 157t18.5 245v273q0 323 -52 402h418
q-13 -42 12 -154t75 -248l86 -236l81 236q108 318 81 402h431q-28 -42 -44 -154.5t-16 -247.5v-273q0 -135 15.5 -247.5t43.5 -154.5h-430q28 42 43.5 154.5t15.5 247.5v298l-237 -700h-144z" />
    <glyph glyph-name="minus" unicode="&#x2212;" horiz-adv-x="1261" 
d="M74 1025v244h1113v-244h-1113z" />
    <glyph glyph-name="f_f" unicode="&#xfb00;" horiz-adv-x="2327" 
d="M1654 2239v-614h213v-107h-213v-723q0 -267 31.5 -489.5t86.5 -305.5h-851q55 83 86.5 305.5t31.5 489.5v723h-259v-723q0 -267 31.5 -489.5t86.5 -305.5h-851q55 83 86.5 305.5t31.5 489.5v723h-116v107h116v242q0 122 43.5 218.5t116 158t173.5 101.5t208.5 56.5
t229.5 16.5q228 0 394 -58q144 58 366 58q148 0 261 -25t181 -65t111.5 -96.5t59 -112.5t15.5 -120q0 -130 -88.5 -203t-208.5 -73t-208 73.5t-88 205.5q0 68 41 133q33 52 33 96q0 47 -23 82t-67 35q-62 0 -62 -81zM1039 2177q0 78 -36.5 124t-88.5 46q-65 0 -115 -69.5
t-50 -199.5v-453h290v552z" />
    <glyph glyph-name="C.alt" horiz-adv-x="1808" 
d="M1030 2195q148 0 268.5 -33t197.5 -85.5t129 -122t73.5 -139.5t21.5 -140q0 -130 -93 -203.5t-220 -73.5q-82 0 -152.5 29.5t-117.5 94t-47 153.5q0 54 12 96t29.5 69.5t35 52.5t29.5 56.5t12 69.5q0 88 -100 88q-73 0 -130.5 -59.5t-94 -158.5t-60 -237t-33.5 -284
t-10 -311q0 -181 28.5 -330.5t85.5 -262.5t149.5 -176t213.5 -63q164 0 285 150t148 386h30q0 -137 -26.5 -259.5t-84 -230t-141.5 -185t-205.5 -122.5t-268.5 -45q-195 0 -354 64.5t-264.5 173.5t-177.5 257t-103.5 310t-31.5 339q0 142 28.5 280.5t82.5 265t138 233.5
t188.5 185.5t240.5 123t289 44.5z" />
    <glyph glyph-name="G.alt" horiz-adv-x="1872" 
d="M1192 2107q-412 0 -412 -1050q0 -181 28.5 -330.5t85.5 -262.5t149.5 -176t213.5 -63q38 0 74 9v154q0 283 -30 514.5t-87 315.5h613q-57 -84 -87 -315.5t-30 -514.5v-388h-186q-52 0 -255 -40.5t-275 -40.5q-195 0 -354 64.5t-264.5 173.5t-177.5 257t-103.5 310
t-31.5 339q0 124 17 241.5t54.5 231t93.5 211.5t138 181t183 142t233.5 92t285.5 33q108 0 207 -16t194.5 -54.5t165.5 -96.5t112.5 -148.5t42.5 -204.5q0 -130 -93 -203.5t-220 -73.5q-82 0 -152.5 29.5t-117.5 94t-47 153.5q0 54 12 96t29.5 69.5t35 52.5t29.5 56.5
t12 69.5q0 42 -22.5 65t-63.5 23z" />
    <glyph glyph-name="S.alt" horiz-adv-x="1714" 
d="M808 -82q-148 0 -273 33t-208 87t-141.5 123.5t-84.5 140.5t-26 140q0 130 93 203.5t220 73.5q82 0 152.5 -29.5t117.5 -94t47 -153.5q0 -54 -12 -96t-29.5 -69.5t-35 -52.5t-29.5 -56.5t-12 -69.5q0 -39 60.5 -68t118.5 -29q122 0 213 109t91 290q0 65 -34 125
t-92 110.5t-133 100t-158 99t-166 102t-158 114.5t-133 130.5t-92 157t-34 186.5q0 132 47.5 243.5t127.5 189t186 132t223.5 80t240.5 25.5q64 0 129 -7t135 -23t132 -40t118 -62t96.5 -85t64.5 -112t24 -140q0 -117 -84 -183t-198 -66q-116 0 -201 65.5t-85 183.5
q0 59 16.5 104.5t36.5 69.5t36.5 59.5t16.5 76.5q0 24 -22 40.5t-57.5 23.5t-63 9.5t-54.5 2.5q-49 0 -93 -7.5t-87.5 -26t-75 -48t-51 -77.5t-19.5 -109t35 -114.5t94.5 -97.5t136.5 -87.5t162.5 -90.5t171.5 -99t164 -120.5t139 -148t98 -189t40 -236.5q4 -231 -100 -400
t-294.5 -256t-447.5 -87z" />
    <glyph glyph-name="a.alt" horiz-adv-x="1844" 
d="M1158 270v194q0 25 -17 25q-7 0 -12 -6q-31 -122 -83.5 -223t-126.5 -179.5t-175 -122.5t-218 -44q-138 0 -245 98t-161.5 255.5t-78.5 347t6.5 379.5t92 347.5t178 255.5t264.5 98q176 0 304.5 -110t201.5 -296v334h615v-1231q0 -210 125 -230q-37 -112 -137 -177
t-215 -65q-63 0 -118.5 21t-101 62t-72 110t-26.5 157zM734 776q-5 -219 37 -387t112 -168q58 0 104.5 81t71.5 206t29 268v90q-5 193 -45.5 329t-103.5 136q-58 0 -104.5 -81t-71.5 -206t-29 -268z" />
    <glyph glyph-name="f.alt" horiz-adv-x="1468" 
d="M796 2081v-456h213v-107h-213v-723q0 -267 31.5 -489.5t86.5 -305.5h-851q55 83 86.5 305.5t31.5 489.5v723h-116v107h116v242q0 124 31.5 219t87.5 157t139.5 102t180 56.5t216.5 16.5q148 0 262 -25t182 -65t111.5 -96.5t59 -112.5t15.5 -120q0 -130 -88.5 -203
t-208.5 -73t-208 73t-88 203q0 44 11.5 78.5t25.5 51.5t25.5 41.5t11.5 52.5q0 52 -22 88.5t-64 36.5q-25 0 -39 -9.5t-19.5 -32.5t-7 -58t-0.5 -89q1 -49 1 -78z" />
    <glyph glyph-name="g.alt" horiz-adv-x="1832" 
d="M1754 1623v-1809q0 -674 -729 -674q-148 0 -267.5 25t-195.5 65.5t-127 96t-72.5 113t-21.5 119.5q0 130 88.5 203t208.5 73t208 -73t88 -203q0 -44 -11.5 -78.5t-25.5 -51.5t-25.5 -41.5t-11.5 -52.5q0 -48 52.5 -86.5t117.5 -38.5q179 0 179 337v917q0 25 -17 25
q-8 0 -12 -6q-31 -122 -83.5 -223t-126.5 -179.5t-175 -122.5t-218 -44q-138 0 -245 98t-161.5 255.5t-78.5 347t6.5 379.5t92 347.5t178 255.5t264.5 98q176 0 304.5 -110t201.5 -296v334h615zM785 776q-5 -219 37 -387t112 -168q58 0 104.5 81t71.5 206t29 268v90
q-5 193 -45.5 329t-103.5 136q-58 0 -104.5 -81t-71.5 -206t-29 -268z" />
    <glyph glyph-name="j.alt" horiz-adv-x="854" 
d="M113 2094q0 134 95.5 229t230.5 95q134 0 228.5 -95t94.5 -229t-95 -229.5t-228 -95.5q-135 0 -230.5 95.5t-95.5 229.5zM771 1625v-1867q0 -124 -31.5 -219t-87.5 -157t-139.5 -102t-180 -56.5t-216.5 -16.5q-148 0 -262 25t-182 65t-111.5 96.5t-59 112.5t-15.5 120
q0 130 88.5 203t208.5 73t208 -73t88 -203q0 -44 -11.5 -78.5t-25.5 -51.5t-25.5 -41.5t-11.5 -52.5q0 -52 22 -88.5t64 -36.5q25 0 39 9.5t19.5 32.5t7 58t0.5 89q-1 49 -1 78v1286q0 267 -31.5 489.5t-86.5 305.5h733z" />
    <glyph glyph-name="A.ss01" horiz-adv-x="2310" 
d="M1442 0q19 47 19 143q0 234 -95 622l-31 124q-86 145 -231 221t-316 76q-114 0 -216.5 -41t-181.5 -116t-125.5 -189.5t-46.5 -252.5q0 -95 28.5 -175t89.5 -132t143 -52q89 0 89 62q0 52 -67 159q-55 88 -55 203q0 85 31.5 153.5t85 112t121 67t141.5 23.5q86 0 167 -31
t148 -90.5t107.5 -158t40.5 -221.5q0 -114 -35.5 -211t-96.5 -165.5t-143 -116.5t-175.5 -71t-192.5 -23q-149 0 -270 53t-197 142.5t-116.5 202t-40.5 235.5q0 154 63 291t168 233t246.5 151.5t295.5 55.5l80 -4l176 590q-76 185 -143 258h868q-19 -45 -19 -140
q0 -244 111 -690l126 -503q67 -268 154 -490.5t163 -304.5h-868zM973 1264q174 -40 308 -157l-48 191q-56 224 -127 425z" />
    <glyph glyph-name="B.ss01" horiz-adv-x="2095" 
d="M369 1110v188q0 284 -30 515t-87 315h227q108 0 395 33q332 37 475 37q110 0 200 -14t154 -37.5t113 -58.5t79 -73.5t48.5 -85.5t25.5 -91.5t7 -95.5q0 -168 -133 -299t-344 -167q-24 0 -24 -16q0 -7 6.5 -13t17.5 -6q157 0 288 -83t203 -216.5t72 -284.5
q0 -145 -42 -271.5t-116 -222t-174 -170.5t-218 -122.5t-245.5 -72t-258.5 -24.5q-150 0 -291 30.5t-265.5 94t-217.5 152.5t-147 213.5t-54 270.5q0 188 87 343t249 232zM985 1296q189 43 300.5 155t111.5 285q0 80 -19 144.5t-50 106t-73.5 69.5t-87 39.5t-93.5 11.5
q-46 0 -89 -13v-798zM984 1105q154 -76 235.5 -217.5t81.5 -302.5q0 -97 -30.5 -186t-87 -159.5t-146.5 -112.5t-200 -42q-74 0 -141.5 23.5t-121 67t-85 112t-31.5 153.5q0 115 55 203q67 107 67 159q0 62 -89 62q-82 0 -143 -52t-89.5 -132t-28.5 -175q0 -132 50 -242
t133 -181t187.5 -110t215.5 -39q90 0 174.5 25.5t161 80.5t133 134.5t90 195.5t33.5 255q0 138 -49 263t-147.5 215.5t-227.5 113.5v-112z" />
    <glyph glyph-name="C.ss01" horiz-adv-x="2203" 
d="M2052 -91l28 -13q-100 -149 -286 -229t-412 -80q-186 0 -353 38t-300 106.5t-244.5 163t-192 208.5t-137 243t-84.5 265.5t-30 277.5t23 278t77.5 266t128.5 243.5t183 209.5t235 163.5t289 106.5t341 38q136 0 264 -29t239 -88.5t194.5 -142.5t131 -198.5t47.5 -250.5
q0 -123 -40.5 -234.5t-117.5 -200.5t-200 -142t-275 -53q-156 0 -280.5 51t-200 136t-115 187.5t-39.5 212.5q0 98 30.5 187t87 159.5t146.5 112.5t200 42q100 0 184.5 -39t139.5 -121.5t55 -193.5q0 -117 -55 -205q-22 -35 -37 -63.5t-24 -59t-4.5 -51t26.5 -34t63 -13.5
q121 0 193 105t73 256q0 81 -21 160t-68 153.5t-114.5 131.5t-168 91t-221.5 34q-169 0 -307 -86.5t-226 -232t-135.5 -330.5t-49.5 -389q-1 -155 25 -307t77.5 -294.5t135 -263.5t190.5 -211.5t250 -142t307 -51.5q97 0 185 24t189 99z" />
    <glyph glyph-name="D.ss01" horiz-adv-x="2185" 
d="M434 1121v178q0 283 -30 514.5t-87 315.5q98 0 377 30q360 40 545 40q184 0 333 -55t250.5 -151.5t169.5 -232t99 -292t31 -336.5v-367q0 -173 -61.5 -330.5t-167 -276t-242 -206t-292 -133t-311.5 -45.5q-149 0 -290.5 30.5t-265.5 94t-217 152t-147 213.5t-54 270
q0 128 39.5 241t122 205t198.5 141zM1049 2082v-989q143 -79 218 -216t75 -291q0 -98 -30.5 -187t-87 -159.5t-146.5 -112.5t-200 -42q-74 0 -141.5 23.5t-121 67t-85 112t-31.5 153.5q0 115 55 203q67 107 67 159q0 62 -89 62q-82 0 -143 -52t-89.5 -132t-28.5 -175
q0 -132 50 -242t133 -181t187.5 -110t215.5 -39q91 0 177 25.5t165 80.5t138.5 134.5t94.5 195.5t35 255v581q0 892 -327 892q-43 0 -91 -16z" />
    <glyph glyph-name="E.ss01" horiz-adv-x="1650" 
d="M73 3q55 81 86 302.5t31 489.5v503q0 283 -30 514.5t-87 315.5h1514l-101 -691q-26 129 -74 232t-111 172.5t-141 116t-162 67t-177 20.5h-16v-858q90 15 169 43.5t134.5 64t99 74.5t70.5 78t42 70.5t19 56.5v-895q-9 32 -28.5 72t-62 94t-99.5 101t-147 88.5t-197 60.5
v-615q0 -128 -35.5 -249t-96.5 -157q78 -13 177 -40.5t169.5 -50.5t191.5 -65q175 -61 270 -91t237.5 -60.5t250.5 -30.5q225 0 368 120q81 -57 120.5 -137.5t39.5 -167.5q0 -81 -34 -157t-94.5 -135t-152.5 -94.5t-199 -35.5q-49 0 -97 7t-88 17t-84 30.5t-76 37
t-75.5 47.5t-69.5 51t-69.5 59t-66 59.5t-68.5 64.5q-72 69 -111 104.5t-114.5 98t-130 97t-139 78.5t-163.5 67t-181 39.5t-211 16.5h-200z" />
    <glyph glyph-name="F.ss01" horiz-adv-x="1427" 
d="M273 2128q109 0 211 14t181 33.5t163 56.5t139 66t129.5 81.5t113 82.5t110.5 88q83 67 125.5 99.5t120.5 83t137.5 75t143 43.5t170.5 19q107 0 199.5 -35.5t153.5 -94.5t95.5 -134.5t34.5 -155.5q0 -87 -41 -168t-122 -139q-200 188 -472 188q-89 0 -200.5 -21.5
t-187.5 -44t-211 -66.5q-131 -43 -202 -64.5t-184.5 -46t-206.5 -30.5q61 -36 96.5 -157t35.5 -249v-465q90 15 169 43.5t134.5 64t99 74.5t70.5 78t42 70.5t19 56.5v-895q-9 32 -28.5 72t-62 94t-99.5 101t-147 88.5t-197 60.5v-300q0 -268 31 -490t86 -305h-849
q55 83 86 305t31 490v503q0 283 -30 515t-87 315h200z" />
    <glyph glyph-name="G.ss01" horiz-adv-x="2170" 
d="M2004 -1h-353q-130 -32 -269 -32q-217 0 -408 51t-337 142.5t-262 215t-190 270.5t-113 308t-39 328q0 138 26 273t79.5 263t130.5 241t184 207.5t235 163t289 106.5t341 38q136 0 264 -29t239 -88t194.5 -142t131 -198t47.5 -249q0 -124 -41 -236t-118.5 -201.5
t-202.5 -142.5t-280 -53q-123 0 -227.5 33.5t-176.5 90.5t-123 133t-75 159.5t-24 170.5q0 98 30.5 187t87 159.5t146.5 112.5t200 42q74 0 141.5 -23.5t121 -67t85 -112t31.5 -153.5q0 -115 -55 -203q-67 -107 -67 -158q0 -63 90 -63q122 0 194.5 105t72.5 257
q0 81 -21 159.5t-68 153t-114.5 131.5t-168 91t-221.5 34q-136 0 -253.5 -56.5t-202.5 -155t-145.5 -231t-90.5 -286t-30 -317.5q0 -128 18 -254t56 -248t93 -231t133 -203t171.5 -163.5t212.5 -112t252 -49.5v121q0 283 -30 514.5t-87 315.5h613q-57 -84 -87 -315.5
t-30 -514.5v-289z" />
    <glyph glyph-name="H.ss01" horiz-adv-x="2245" 
d="M387 1173v125q0 283 -30 514.5t-87 315.5h849q-57 -84 -87 -315.5t-30 -514.5v-40q276 -73 427 -323l11 -33v396q0 283 -30 514.5t-87 315.5h849q-57 -84 -87 -315.5t-30 -514.5v-503q0 -268 31 -490t86 -305h-849q44 66 73 224.5t39 366.5q-15 145 -73.5 260.5
t-146 187.5t-195 109.5t-226.5 37.5q-114 0 -216.5 -41t-181.5 -116t-125.5 -189.5t-46.5 -252.5q0 -95 28.5 -175t89.5 -132t143 -52q89 0 89 62q0 52 -67 159q-55 88 -55 203q0 85 31.5 153.5t85 112t121 67t141.5 23.5q86 0 167 -31t148 -90.5t107.5 -158t40.5 -221.5
q0 -114 -35.5 -211t-96.5 -165.5t-143 -116.5t-175.5 -71t-192.5 -23q-120 0 -222.5 34.5t-175.5 95t-124.5 140.5t-76.5 172t-25 190q0 197 98 360t262 261z" />
    <glyph glyph-name="J.ss01" horiz-adv-x="2179" 
d="M845 -66q126 0 227 43t177.5 131t118 234t41.5 341v615q0 283 -30 514.5t-87 315.5h814q-57 -84 -87 -315.5t-30 -514.5v-428q0 -206 -60.5 -379t-162.5 -292.5t-238 -203t-285 -122.5t-305 -39q-136 0 -264 29t-239 88.5t-194.5 142.5t-131 198.5t-47.5 250.5
q0 123 40.5 234.5t117.5 200.5t200 142t275 53q156 0 280.5 -51t200 -136t115 -187.5t39.5 -212.5q0 -98 -30.5 -187t-87 -159.5t-146.5 -112.5t-200 -42q-100 0 -184.5 39t-139.5 121.5t-55 193.5q0 117 55 205q22 35 37 63.5t24 59t4.5 51t-26.5 34t-63 13.5
q-82 0 -142 -52t-88.5 -132t-28.5 -175q0 -132 50 -242t133 -181t187.5 -110t215.5 -39z" />
    <glyph glyph-name="K.ss01" horiz-adv-x="2051" 
d="M1304 1550l-82 -112l324 -561q175 -304 339.5 -551.5t260.5 -325.5h-963q23 115 -51 324t-220 471l-69 123l-38 -52v-73q1 -268 31.5 -489.5t85.5 -303.5h-849q55 82 85.5 304t31.5 491v503q0 283 -30 514.5t-87 315.5h849q-57 -84 -87 -315.5t-30 -514.5v-291l392 543
q95 132 208 262t246 255t263 220t264.5 153t246.5 58q100 0 181 -31.5t131 -84.5t76.5 -118t26.5 -136q0 -70 -26.5 -135t-76.5 -117.5t-131 -84t-181 -31.5q-49 0 -142 27t-206.5 54.5t-211.5 27.5q-328 0 -561 -319z" />
    <glyph glyph-name="L.ss01" horiz-adv-x="1114" 
d="M190 795v538q0 268 -31 490t-86 305h849q-55 -83 -86 -305t-31 -490v-853q0 -128 -35.5 -249t-96.5 -157q78 -13 177 -40.5t169.5 -50.5t191.5 -65q175 -61 270 -91t237.5 -60.5t250.5 -30.5q225 0 368 120q81 -57 120.5 -137.5t39.5 -167.5q0 -81 -34 -157t-94.5 -135
t-152.5 -94.5t-199 -35.5q-49 0 -97 7t-88 17t-84 30.5t-76 37t-75.5 47.5t-69.5 51t-69.5 59t-66 59.5t-68.5 64.5q-72 69 -111 104.5t-114.5 98t-130 97t-139 78.5t-163.5 67t-181 39.5t-211 16.5h-200q55 81 86 302.5t31 489.5z" />
    <glyph glyph-name="M.ss01" horiz-adv-x="2505" 
d="M276 1848q-86 183 -188 280h774l489 -1227l410 1228l671 -1q-57 -84 -87 -315.5t-30 -514.5v-503q1 -269 31.5 -491t85.5 -304h-849q55 82 85.5 304t31.5 491v832l-456 -1370l159 -280q61 -107 141.5 -176.5t159.5 -96.5t164 -27q129 0 238.5 57t145.5 131
q70 -49 110 -123.5t46.5 -154t-24 -160t-91.5 -144t-167 -103.5t-240 -40q-112 0 -217.5 47.5t-190 125.5t-163 188.5t-138 224.5t-112.5 246l-535 1326q-31 76 -150 329l3 -888q2 -655 467 -730l-1 -9h-849v10q35 6 70 31t73 80.5t67 134.5t47.5 204.5t18.5 278.5v1109z
" />
    <glyph glyph-name="N.ss01" horiz-adv-x="1934" 
d="M28 0v10q35 6 70 31t73 80.5t67 134.5t47.5 204.5t18.5 278.5v1008q-191 289 -304 381h824l729 -1315v576q0 316 -115.5 504t-353.5 226l1 9h849v-10q-35 -6 -70 -31t-73 -80.5t-67 -134.5t-47.5 -204.5t-18.5 -278.5v-1410q43 -82 126.5 -138t178.5 -80t197 -24
q124 0 221 35t126 95q82 -58 126 -136.5t44 -160.5q0 -64 -27 -120.5t-79 -101.5t-137 -71.5t-192 -26.5q-112 0 -222.5 38.5t-205.5 104t-186 158.5t-165.5 197t-142.5 225l-744 1325l-167 288v-847q0 -316 115.5 -504t353.5 -226l-1 -9h-849z" />
    <glyph glyph-name="O.ss01" 
d="M66 1158q-135 178 -135 412q0 172 77.5 322.5t205.5 252t293.5 159.5t340.5 58q110 0 218 -22.5t215.5 -72t202 -123t176 -180.5t140 -238.5t92 -304t33.5 -370.5q0 -145 -23 -281t-70 -264t-123.5 -234t-177 -185.5t-238 -123.5t-299.5 -44q-195 0 -354 64.5
t-264.5 173.5t-177.5 257t-103.5 310t-31.5 339q0 47 3 95zM775 942q5 -254 31.5 -459.5t78 -338.5t120.5 -133q73 0 125.5 153t76 384.5t23.5 508.5v328q0 156 -32 283.5t-86.5 213.5t-129.5 144.5t-157.5 85.5t-172.5 28q-94 0 -182.5 -22.5t-166.5 -69t-136.5 -112
t-92.5 -158t-34 -200.5q0 -82 17 -149t45 -110t64 -72.5t71.5 -42t71.5 -12.5q48 0 80.5 23t32.5 60q0 62 -59 156q-51 82 -51 193q0 100 53 174.5t135 110t180 35.5q68 0 134 -18t126 -57t105 -94.5t72 -136.5t27 -177q0 -197 -103 -332t-266 -187z" />
    <glyph glyph-name="P.ss01" horiz-adv-x="1877" 
d="M73 0q55 83 86 305t31 490v258q-132 43 -226 137t-139 214t-45 256q0 146 54 271t147.5 214t217.5 152.5t265.5 94t290.5 30.5q204 0 378.5 -45.5t298 -124t211 -182.5t129.5 -220.5t42 -239.5q0 -175 -57 -311t-176 -237t-315 -154.5t-461 -53.5v-59q0 -268 31 -490
t86 -305h-849zM805 948q76 0 139 37.5t104.5 99.5t69.5 144.5t40.5 170.5t12.5 180q0 131 -42.5 253t-118.5 217.5t-192 153t-252 57.5q-89 0 -175 -24.5t-161 -73t-132 -116.5t-89.5 -160.5t-32.5 -198.5q0 -95 28.5 -175t89.5 -132.5t143 -52.5q90 0 90 63q0 54 -66 158
q-56 89 -56 204q0 112 55 195t140 122.5t185 39.5q110 0 200 -42t147 -113t87.5 -160t30.5 -187q0 -140 -62.5 -268t-182.5 -211v-181z" />
    <glyph glyph-name="Q.ss01" horiz-adv-x="2013" 
d="M1356 -14l-590 -262q31 -16 108.5 -59.5t108.5 -58.5t86 -31t106 -16q46 0 87 26t63 63.5t16.5 83t-45.5 79.5q110 104 267 104q90 0 165.5 -36.5t125 -113.5t49.5 -181q0 -75 -28.5 -144.5t-82.5 -126t-142 -90.5t-196 -34q-83 0 -158.5 24.5t-133.5 63t-112.5 85
t-106 92.5t-103 84.5t-114 62.5t-128.5 24q-31 0 -111 -20.5t-120 -20.5q-50 0 -89.5 18.5t-60 48t-30 65t0 71.5t30 65.5t60 48t89.5 18.5q31 0 59.5 -12.5t52 -30.5t47.5 -36.5t57.5 -31t71.5 -12.5q56 0 132 30l210 93q-139 0 -260 32.5t-215 91t-170.5 141t-130 181.5
t-89.5 213.5t-52.5 235.5t-16.5 249q0 47 3 95q-135 178 -135 412q0 172 77.5 322.5t205.5 252t293.5 159.5t340.5 58q110 0 218 -22.5t215.5 -72t202 -123t176 -180.5t140 -238.5t92 -304t33.5 -370.5q0 -174 -33 -334t-100 -303.5t-178.5 -255.5t-257.5 -172zM775 942
q5 -254 31.5 -459.5t78 -338.5t120.5 -133q73 0 125.5 153t76 384.5t23.5 508.5v328q0 156 -32 283.5t-86.5 213.5t-129.5 144.5t-157.5 85.5t-172.5 28q-94 0 -182.5 -22.5t-166.5 -69t-136.5 -112t-92.5 -158t-34 -200.5q0 -82 17 -149t45 -110t64 -72.5t71.5 -42
t71.5 -12.5q48 0 80.5 23t32.5 60q0 62 -59 156q-51 82 -51 193q0 100 53 174.5t135 110t180 35.5q68 0 134 -18t126 -57t105 -94.5t72 -136.5t27 -177q0 -197 -103 -332t-266 -187z" />
    <glyph glyph-name="R.ss01" horiz-adv-x="1908" 
d="M73 0q55 82 85.5 304t31.5 491v258q-132 43 -226 136.5t-139 211.5t-45 250q0 148 54 275t147 217t217.5 153.5t265.5 94.5t291 31q204 0 378.5 -45.5t298 -124t211 -182.5t129.5 -220.5t42 -239.5q0 -515 -476 -680q165 -75 238 -229l42 -89q113 -239 234.5 -434.5
t207.5 -271.5h-453q-65 0 -123.5 21.5t-104 54t-91 87.5t-77.5 105.5t-70 126t-62 131.5t-60 138t-58 131l-72 154q-27 -1 -84 -1v-59q1 -269 31.5 -491t85.5 -304h-849zM805 948q76 0 139 37.5t104.5 99.5t69.5 144.5t40.5 170.5t12.5 180q0 131 -42.5 253t-119 217.5
t-192.5 153t-253 57.5q-112 0 -216.5 -39t-188 -110.5t-133.5 -181.5t-50 -242q0 -95 28.5 -175t89 -132.5t142.5 -52.5q41 0 63 13.5t26.5 34t-4.5 51t-23.5 59t-36.5 63.5q-56 89 -56 206q0 111 55 193.5t140 122t185 39.5q110 0 200 -42t147 -113t87.5 -160.5
t30.5 -187.5q-1 -140 -63.5 -267.5t-181.5 -210.5v-181z" />
    <glyph glyph-name="S.ss01" horiz-adv-x="1714" 
d="M1724 408q0 -173 -59.5 -334t-162.5 -284.5t-236 -216t-287.5 -141.5t-309.5 -49q-150 0 -291 30.5t-265 94.5t-217 153.5t-147 216t-54 274.5q0 123 41 234.5t118.5 200.5t202.5 142t280 53q123 0 227.5 -33.5t176.5 -90.5t123 -133t75 -159.5t24 -170.5
q0 -98 -30.5 -187t-87 -159.5t-146.5 -112.5t-200 -42q-74 0 -141.5 23.5t-121 67t-85 112t-31.5 153.5q0 115 55 203q67 107 67 159q0 62 -89 62q-82 0 -143 -52t-89.5 -132t-28.5 -175q0 -132 50 -242t133 -181t187.5 -110t215.5 -39q90 0 174.5 25.5t161 80.5t133 134.5
t90 195.5t33.5 255q0 61 -10.5 117t-25.5 101.5t-44.5 92.5t-54 80t-68.5 73.5t-73 64.5t-83 61t-83 56t-87 55q-95 59 -144 92t-123 94t-110.5 113.5t-65 129t-28.5 161.5q0 132 47.5 243.5t127.5 189t186 132t223.5 80t240.5 25.5q135 0 333 -33q215 -35 365 -35
l-120 -687q-19 122 -44.5 217t-68 183.5t-99 146t-138.5 91.5t-186 34q-50 0 -94 -7.5t-88 -26t-75.5 -48t-51 -77.5t-19.5 -109q0 -36 11.5 -70.5t27.5 -62t48.5 -59.5t58.5 -53.5t74.5 -54t79 -51.5t89.5 -54q94 -56 144 -87.5t139 -96t140 -116.5t116.5 -135t100.5 -166
t60.5 -194.5t25.5 -235.5z" />
    <glyph glyph-name="T.ss01" horiz-adv-x="1558" 
d="M625 2044q-102 0 -200 -96.5t-164.5 -242t-96.5 -305.5l-101 726h645q96 0 184 9t167 29.5t143.5 41t133.5 57t115 62.5t110.5 73t97.5 72.5t96 76.5q58 47 89 71t86 64t92.5 61.5t93 48.5t104 40.5t109 23.5t123.5 10q107 0 199.5 -35.5t153.5 -94.5t95.5 -134.5
t34.5 -155.5q0 -87 -41 -168t-122 -139q-200 188 -472 188q-89 0 -200.5 -21.5t-187.5 -44t-211 -66.5q-131 -43 -202 -64.5t-184.5 -46t-206.5 -30.5q61 -36 96.5 -157t35.5 -249v-853q0 -268 31 -490t86 -305h-849q55 83 86 305t31 490v1249z" />
    <glyph glyph-name="V.ss01" horiz-adv-x="2072" 
d="M1540 1550q28 116 57.5 218t69.5 209.5t83 194.5t98 165.5t115.5 131.5t134.5 84t155 31q100 0 181 -31.5t131 -84.5t76.5 -118t26.5 -136q0 -70 -26.5 -135t-76.5 -117.5t-131 -84t-181 -31.5q-61 0 -175.5 53t-167.5 53q-38 0 -71 -18.5t-66.5 -62.5t-65.5 -124.5
t-60 -196.5l-318 -1292q-19 -76 -26 -113.5t-3.5 -79.5t25.5 -65h-690q32 83 -7 313.5t-124 516.5l-149 503q-78 265 -176.5 488.5t-178.5 306.5h849q-30 -81 3 -293.5t109 -471.5l158 -533q67 -222 147 -425z" />
    <glyph glyph-name="W.ss01" horiz-adv-x="3032" 
d="M2600 1550l-175 -719q-138 -566 -66 -831h-654q31 83 -3.5 305t-113.5 490l-138 468l-315 -1263h-512q31 82 -3.5 304t-113.5 491l-148 503q-83 284 -181 515t-179 315h849q-32 -84 5.5 -316t120.5 -514l148 -503q21 -73 61 -192l193 786q8 30 16 66q-77 238 -159 419.5
t-152 253.5h849q-32 -84 5.5 -316t120.5 -514l148 -503q21 -73 61 -192l229 947q28 116 57.5 218t69.5 209.5t83 194.5t98 165.5t115.5 131.5t134.5 84t155 31q100 0 181 -31.5t131 -84.5t76.5 -118t26.5 -136q0 -70 -26.5 -135t-76.5 -117.5t-131 -84t-181 -31.5
q-61 0 -175.5 53t-167.5 53q-38 0 -71 -18.5t-66.5 -62.5t-65.5 -124.5t-60 -196.5z" />
    <glyph glyph-name="X.ss01" horiz-adv-x="2039" 
d="M1428 1550l-139 -294l215 -379q168 -295 335.5 -546.5t264.5 -330.5h-963q5 22 5 55q0 252 -276 740l-50 88l-44 -64q-137 -199 -137 -410q0 -145 63 -256.5t156 -152.5h-1031q48 7 120 50t169.5 125.5t225 228.5t261.5 335l166 234l-183 325q-161 285 -321.5 516
t-263.5 314h903v-6q0 -105 59.5 -252t135.5 -280l136 -240l86 200l48 116q42 102 67.5 162t77.5 169t93.5 177.5t104.5 154.5t122 135.5t134.5 84.5t152.5 35q100 0 181 -31.5t131 -84.5t76.5 -118t26.5 -136q0 -70 -26.5 -135t-76.5 -117.5t-131 -84t-181 -31.5
q-60 0 -167 45q-104 43 -159 43q-58 0 -111.5 -30.5t-120 -118.5t-135.5 -235z" />
    <glyph glyph-name="Y.ss01" horiz-adv-x="2278" 
d="M1291 1249l140 301q26 56 65.5 143.5t66 147.5t65.5 141.5t69 138t71.5 124t78 113.5t82.5 92t91.5 73t99.5 44t111 17q100 0 181 -31.5t131 -84.5t76.5 -118t26.5 -136q0 -70 -26.5 -135t-76.5 -117.5t-131 -84t-181 -31.5q-58 0 -164 43.5t-160 43.5
q-87 0 -175.5 -84.5t-193.5 -298.5l-179 -365v-390q1 -269 31.5 -491t85.5 -304h-849q55 82 85.5 304t31.5 491v219l-159 282q-159 283 -320 514.5t-265 315.5h903q-13 -122 195 -538z" />
    <glyph glyph-name="Z.ss01" horiz-adv-x="1644" 
d="M625 74q72 -13 166 -39.5t157.5 -48t182.5 -63.5q300 -105 465.5 -146t292.5 -41q229 0 372 120q81 -57 120.5 -137.5t39.5 -167.5q0 -81 -34 -157t-94.5 -135t-152.5 -94.5t-199 -35.5q-49 0 -97 7t-88 17t-84 30.5t-76 37t-75.5 47.5t-69.5 51t-69.5 59t-66 59.5
t-68.5 64.5q-72 69 -111 104.5t-114.5 98t-130 97t-139 78.5t-163.5 67t-181 39.5t-211 16.5h-200q87 81 203 302t221 490l463 1249h-156q-102 0 -200 -96.5t-164.5 -242t-96.5 -305.5l-101 728h1474q-86 -83 -199.5 -312.5t-220.5 -517.5l-306 -818q-50 -128 -132 -249
t-157 -157z" />
    <glyph glyph-name="E.alt" horiz-adv-x="1913" 
d="M14 358q0 167 68.5 322t212.5 283t344 194q22 0 24 17q1 7 -5.5 12.5t-18.5 5.5q-160 23 -276 161.5t-116 295.5q0 106 41.5 196t112.5 153.5t166 108.5t201.5 66.5t219.5 21.5q143 0 274 -34.5t237 -99.5t169.5 -170.5t63.5 -236.5q0 -141 -86 -238.5t-231 -97.5
q-134 0 -234.5 81t-100.5 205q0 101 54 176q53 72 53 136q0 84 -40.5 132.5t-98.5 48.5q-76 0 -134 -86.5t-58 -247.5q0 -76 17 -150.5t54 -144.5t90.5 -123t132.5 -85t173 -32h39v-94h-129q-126 0 -232.5 -34t-182 -94t-132.5 -137t-90.5 -167.5t-50 -181t-16.5 -181.5
q0 -310 175.5 -488.5t480.5 -178.5q94 0 182.5 22.5t166.5 69t136.5 112t92.5 158t34 200.5q0 82 -17 149t-45 110t-64 72.5t-71.5 42t-71.5 12.5q-48 0 -80.5 -23t-32.5 -60q0 -62 59 -156q51 -82 51 -193q0 -100 -53 -174.5t-135 -110t-180 -35.5q-68 0 -134 18t-126 57
t-105 94.5t-72 136.5t-27 177q0 105 31.5 195t86 154t127.5 109.5t156 67.5t171 22q95 0 186.5 -25.5t173.5 -79.5t143.5 -131t98 -187.5t36.5 -241.5q0 -150 -51 -277t-139.5 -217t-207 -154t-254.5 -94.5t-281 -30.5q-139 0 -273.5 33t-259 105t-218 175t-149.5 253.5
t-56 330.5z" />
    <glyph glyph-name="y.alt" horiz-adv-x="1837" 
d="M-325 -90q70 0 129 -23t100.5 -60t78 -82t67 -90t61 -82.5t68 -61.5t79.5 -25q49 0 84 2.5t81 11.5t82.5 25.5t80.5 46.5t83.5 73t83.5 105.5t88 143.5l-364 901q-110 272 -252 496.5t-247 333.5h894q-14 -75 48.5 -272.5t173.5 -454.5q2 -5 17 -40t38.5 -90t39.5 -91
l73 169q99 229 140 457.5t17 321.5h411q-59 -55 -140.5 -198t-145 -279.5t-158.5 -352.5l-349 -793q-72 -164 -154.5 -293t-190.5 -238t-236 -180.5t-291.5 -111t-355.5 -39.5q-95 0 -182.5 23t-161.5 69t-118.5 125t-44.5 181q0 154 109.5 263t263.5 109z" />
    <glyph glyph-name="v.alt" horiz-adv-x="1481" 
d="M-83 1625h765l346 -1334l127 504q42 168 59.5 343.5t10.5 301t-31 185.5h384q-78 -84 -166 -317t-156 -513q-66 -270 -89.5 -483t8.5 -312h-855q32 99 8.5 312t-89.5 483q-68 280 -156 513t-166 317z" />
    <glyph glyph-name="w.alt" horiz-adv-x="2341" 
d="M1120 0h-898q28 55 33.5 180.5t-7 282t-40.5 332.5q-45 281 -114 513.5t-139 316.5h765l234 -1334l96 504q43 230 40 459q-77 279 -155 371h765l234 -1334l96 504q46 274 38.5 504t-51.5 326h384q-73 -84 -146 -316.5t-124 -513.5q-49 -269 -59 -483t28 -312h-898
q28 55 33.5 180.5t-7 282t-40.5 332.5q-5 34 -17 102q-14 -68 -20 -102q-49 -269 -59 -483t28 -312z" />
    <glyph glyph-name="a.ss01" horiz-adv-x="3033" 
d="M1578 665q0 -145 32 -263.5t87 -199t130 -135.5t158 -80t173 -25q118 0 231.5 43.5t203.5 119.5t145.5 191.5t55.5 249.5q0 95 -28.5 175t-88.5 132t-142 52q-41 0 -63 -13.5t-26.5 -34t4.5 -51t24 -59t37 -63.5q55 -88 55 -205q0 -111 -55 -193.5t-139.5 -121.5
t-184.5 -39q-86 0 -167 31t-148 91t-107.5 158.5t-40.5 222.5q0 114 35.5 210.5t96 164.5t142 116t172.5 71t188 23q147 0 268.5 -49.5t199.5 -133t120.5 -191.5t42.5 -228q0 -225 -105 -401t-284 -271t-400 -95q-156 0 -296 65t-239 155q-54 -71 -142 -117.5t-172 -46.5
q-63 0 -118.5 21t-100.5 62t-71.5 110t-26.5 157v182q0 12 -5.5 18.5t-12.5 5.5q-17 -2 -17 -24v-26q-3 -99 -33.5 -183t-79 -142.5t-112 -100t-133.5 -61t-144 -19.5q-71 0 -138.5 18.5t-126.5 57t-103.5 92.5t-70 130.5t-25.5 165.5q0 91 27 176t85 162t142 134.5
t205.5 91t267.5 33.5q136 0 203 -9v386q0 139 -52 203t-129 64q-65 0 -117.5 -38.5t-52.5 -86.5q0 -28 11.5 -52.5t25.5 -41.5t25.5 -51.5t11.5 -78.5q0 -130 -88 -203t-208 -73t-208.5 73t-88.5 203q0 61 24.5 119.5t80.5 113t137 95.5t203 66t271 25q121 0 228.5 -16.5
t208 -56.5t173 -101.5t116 -158t43.5 -218.5v-479zM963 624v279q-77 0 -138.5 -32.5t-97 -85.5t-54 -115t-18.5 -126q0 -97 37 -163.5t101 -66.5q68 0 119 80.5t51 229.5z" />
    <glyph glyph-name="b.ss01" horiz-adv-x="3282" 
d="M1306 -81q-104 0 -194 41t-157.5 114t-116 168.5t-78.5 210.5l-1 2v1l-2 9v1l-1 2v1q-4 9 -14 7q-17 -2 -17 -24v-452h-544l-1 1423q0 283 -30 514.5t-87 315.5h732v-1000q76 206 219.5 324.5t347.5 118.5q118 0 213 -70t155 -188.5t92 -268.5t32 -315q0 -122 -14 -226
q4 -137 38 -249.5t89 -188.5t128.5 -128.5t154.5 -76t169 -23.5q118 0 231.5 43.5t203.5 119.5t145.5 191.5t55.5 249.5q0 95 -28.5 175t-88.5 132t-142 52q-41 0 -63 -13.5t-26.5 -34t4.5 -51t24 -59t37 -63.5q55 -88 55 -205q0 -111 -55 -193.5t-139.5 -121.5t-184.5 -39
q-86 0 -167 31t-148 91t-107.5 158.5t-40.5 222.5q0 114 35.5 210.5t96 164.5t142 116t172.5 71t188 23q147 0 268.5 -49.5t199.5 -133t120.5 -191.5t42.5 -228q0 -225 -105 -401t-284 -271t-400 -95q-80 0 -156.5 14t-159.5 51.5t-150 94.5t-123 150t-84 212
q-32 -103 -77 -186t-104.5 -147t-136 -99t-164.5 -35zM1154 838q5 219 -37 387t-112 168q-58 0 -104.5 -81t-71.5 -206t-29 -268q-5 -219 37 -387t112 -168q58 0 104.5 81t71.5 206t29 268z" />
    <glyph glyph-name="c.ss01" horiz-adv-x="1795" 
d="M33 814q0 174 56 322t151 251t221 176t266 107.5t286 34.5q152 0 291.5 -38t250 -108.5t176.5 -181t66 -244.5q0 -124 -53 -227t-160 -167t-250 -64q-93 0 -177.5 28t-152 80.5t-107.5 137.5t-40 190q0 92 30 165t79.5 117.5t110 67.5t124.5 23q116 0 199 -70.5
t83 -194.5q0 -85 -41 -150q-50 -81 -50 -119q0 -46 66 -46q91 0 142.5 78.5t51.5 188.5q0 116 -59 208.5t-152.5 141t-200.5 48.5q-76 0 -147 -25.5t-137 -82.5t-115 -141t-78.5 -210t-29.5 -280q0 -138 29 -250.5t76 -185.5t109 -122.5t126.5 -71t131.5 -21.5
q97 0 182.5 30t148 81t107 111.5t70.5 128.5q0 -122 -43.5 -224t-117.5 -172.5t-174 -119.5t-212 -72t-232 -23q-165 0 -310.5 50t-252 137t-184 200.5t-116 243.5t-38.5 264z" />
    <glyph glyph-name="d.ss01" horiz-adv-x="3143" 
d="M1820 0h-662v479q0 16 -8.5 22.5t-16.5 0.5q-30 -124 -82.5 -227.5t-126.5 -184t-176.5 -126t-221.5 -45.5q-138 0 -245 98t-161.5 254.5t-78.5 345.5t6.5 378t92 345.5t178 254.5t264.5 98q176 0 304.5 -109.5t201.5 -295.5v135q0 283 -30 514.5t-87 315.5h732l1 -1625
q0 -137 33 -249.5t88.5 -188.5t131 -128.5t158 -76t170.5 -23.5q118 0 231.5 43.5t203.5 119.5t145.5 191.5t55.5 249.5q0 95 -28.5 175t-88.5 132t-142 52q-41 0 -63 -13.5t-26.5 -34t4.5 -51t24 -59t37 -63.5q55 -88 55 -205q0 -111 -55 -193.5t-139.5 -121.5t-184.5 -39
q-86 0 -167 31t-148 91t-107.5 158.5t-40.5 222.5q0 114 35.5 210.5t96 164.5t142 116t172.5 71t188 23q147 0 268.5 -49.5t199.5 -133t120.5 -191.5t42.5 -228q0 -225 -105 -401t-284 -271t-400 -95q-123 0 -260 32.5t-247 103.5zM734 792q-5 -219 37 -387t112 -168
q58 0 104.5 81t71.5 206t29 268v90q-5 193 -45.5 329t-103.5 136q-58 0 -104.5 -81t-71.5 -206t-29 -268z" />
    <glyph glyph-name="e.ss01" horiz-adv-x="3014" 
d="M746 604q28 -164 97.5 -299.5t165 -229t216 -157.5t250.5 -94t269 -30q155 0 309 37t286.5 107t234.5 163t161 214t59 251q0 95 -28.5 175t-89.5 132t-143 52q-89 0 -89 -62q0 -52 67 -159q55 -88 55 -203q0 -85 -31.5 -153.5t-85 -112t-121 -67t-141.5 -23.5
q-86 0 -167 31t-148 90.5t-107.5 158t-40.5 221.5q0 114 35.5 211t96.5 165.5t143 116.5t175.5 71t192.5 23q144 0 263.5 -49.5t197 -133t119.5 -192t42 -227.5q0 -157 -49 -292t-138 -236.5t-209.5 -180t-266.5 -128t-306 -74.5t-331 -25q-170 0 -341 24t-334 73
t-309.5 118.5t-269.5 165t-212.5 207t-139.5 250.5t-50 290q0 131 36 256.5t109 237t174.5 196t243 133.5t304.5 49q142 0 262 -32.5t204 -87.5t143 -129t87 -156t28 -169q0 -106 -43 -203.5t-123 -175.5t-209 -125t-287 -47q-114 0 -216 34zM737 674q37 -17 80 -17
q81 0 143 54t96.5 143t51.5 189.5t17 208.5q0 27 -1.5 62.5t-8.5 92t-18 101t-33 77.5t-51 33q-51 0 -97 -63.5t-78.5 -161.5t-57 -215t-36 -225.5t-11.5 -191.5z" />
    <glyph glyph-name="f.ss01" horiz-adv-x="2247" 
d="M914 0h-851q55 83 86.5 305.5t31.5 489.5v723h-116v107h116v290q0 123 42.5 221.5t113 158.5t156 91.5t177.5 31.5q94 0 168.5 -28t119.5 -75.5t68 -104.5t23 -119q0 -79 -28 -142.5t-75 -102t-103.5 -58.5t-116.5 -20q-109 0 -186 60t-77 164q0 12 -5.5 18.5t-12.5 5.5
q-17 -2 -17 -24q0 -176 97 -271.5t240 -95.5h244v-107h-213v-723q0 -47 2 -139q0 -137 33 -249.5t88.5 -188.5t131 -128.5t158 -76t170.5 -23.5q118 0 231.5 43.5t203.5 119.5t145.5 191.5t55.5 249.5q0 95 -28.5 175t-88.5 132t-142 52q-41 0 -63 -13.5t-26.5 -34t4.5 -51
t24 -59t37 -63.5q55 -88 55 -205q0 -111 -55 -193.5t-139.5 -121.5t-184.5 -39q-86 0 -167 31t-148 91t-107.5 158.5t-40.5 222.5q0 114 35.5 210.5t96 164.5t142 116t172.5 71t188 23q147 0 268.5 -49.5t199.5 -133t120.5 -191.5t42.5 -228q0 -225 -105 -401t-284 -271
t-400 -95q-116 0 -255 28t-252 80z" />
    <glyph glyph-name="g.ss01" horiz-adv-x="1832" 
d="M-157 -668q0 119 42 227.5t119.5 192t197 133t263.5 49.5q99 0 192.5 -23t175.5 -71t143 -116.5t96.5 -165.5t35.5 -211q0 -123 -40.5 -221.5t-107.5 -158t-148 -90.5t-167 -31q-74 0 -141.5 23.5t-121 67t-85 112t-31.5 153.5q0 115 55 203q67 107 67 159q0 62 -89 62
q-82 0 -143 -52t-89.5 -132t-28.5 -175q0 -111 35.5 -208.5t96 -168t141 -121.5t171 -76.5t184.5 -25.5q92 0 177.5 24.5t162.5 77t133.5 128.5t90 187t33.5 244q0 113 -31 220t-98.5 204.5t-163.5 170.5t-236.5 116t-307.5 43l-114 -5v121q154 0 304.5 55t238.5 150
q-169 8 -306 49.5t-228.5 104.5t-153.5 147t-89 174.5t-27 188.5q0 96 33 186t104 170.5t173 140.5t250.5 95t326.5 35h98q17 79 44.5 159t72.5 166.5t100 152t131 108t161 42.5q99 0 171 -46.5t105 -116t33 -151.5t-33.5 -152.5t-105.5 -117.5t-169 -47q-120 0 -198 68
q-86 74 -150 74q-51 0 -66 -51l-28 -96q165 -23 296.5 -84t214 -146t126 -184.5t43.5 -204.5q0 -104 -38 -203t-104 -179.5t-154.5 -152.5t-189 -127t-208 -97.5t-211 -68.5t-199.5 -36q-18 0 -18 -18t19 -18h186q194 0 361.5 -40.5t288 -110.5t206 -164t127.5 -201.5
t42 -222.5q0 -155 -68 -294.5t-183.5 -242.5t-264.5 -179t-316.5 -114.5t-334.5 -38.5q-141 0 -268.5 28t-240.5 88.5t-195.5 149.5t-130 219t-47.5 288zM930 1640q-44 0 -77.5 -52.5t-50.5 -124t-28 -161t-13.5 -146.5t-2.5 -98q0 -118 8.5 -219.5t27 -188.5t51 -137.5
t76.5 -50.5q38 0 69 38.5t49.5 102.5t32 134t19.5 145.5t8.5 124t2.5 81.5q0 110 -11 208t-31.5 175.5t-54 123t-75.5 45.5z" />
    <glyph glyph-name="h.ss01" horiz-adv-x="3226" 
d="M1891 0h-849q55 83 86 305t31 490v43q0 107 -10 205.5t-28 177t-47 125.5t-64 47q-58 0 -104.5 -81t-71.5 -206t-29 -268v-838h-732q57 84 87 316.5t30 515.5v591q0 283 -30 514.5t-87 315.5h732v-974q77 201 219 316.5t343 115.5q110 0 191.5 -31t128 -80.5t75 -120
t36.5 -142t7 -155t-9 -149.5t-15 -135t-7 -103q0 -47 3 -167q0 -137 33 -249.5t88.5 -188.5t131 -128.5t158 -76t170.5 -23.5q118 0 231.5 43.5t203.5 119.5t145.5 191.5t55.5 249.5q0 95 -28.5 175t-88.5 132t-142 52q-41 0 -63 -13.5t-26.5 -34t4.5 -51t24 -59t37 -63.5
q55 -88 55 -205q0 -111 -55 -193.5t-139.5 -121.5t-184.5 -39q-86 0 -167 31t-148 91t-107.5 158.5t-40.5 222.5q0 114 35.5 210.5t96 164.5t142 116t172.5 71t188 23q147 0 268.5 -49.5t199.5 -133t120.5 -191.5t42.5 -228q0 -225 -105 -401t-284 -271t-400 -95
q-123 0 -261 33t-248 103z" />
    <glyph glyph-name="i.ss01" horiz-adv-x="2236" 
d="M133 2094q0 134 95.5 229t230.5 95q134 0 228.5 -95t94.5 -229t-95 -229.5t-228 -95.5q-135 0 -230.5 95.5t-95.5 229.5zM798 628q0 -137 33 -249.5t88.5 -188.5t131 -128.5t158 -76t170.5 -23.5q118 0 231.5 43.5t203.5 119.5t145.5 191.5t55.5 249.5q0 95 -28.5 175
t-88.5 132t-142 52q-41 0 -63 -13.5t-26.5 -34t4.5 -51t24 -59t37 -63.5q55 -88 55 -205q0 -111 -55 -193.5t-139.5 -121.5t-184.5 -39q-86 0 -167 31t-148 91t-107.5 158.5t-40.5 222.5q0 114 35.5 210.5t96 164.5t142 116t172.5 71t188 23q147 0 268.5 -49.5t199.5 -133
t120.5 -191.5t42.5 -228q0 -225 -105 -401t-284 -271t-400 -95q-123 0 -260 32.5t-247 103.5h-851q57 84 87 305t30 501q0 282 -30 508.5t-87 310.5h732v-819q0 -100 3 -178z" />
    <glyph glyph-name="j.ss01" horiz-adv-x="854" 
d="M113 2094q0 134 95.5 229t230.5 95q134 0 228.5 -95t94.5 -229t-95 -229.5t-228 -95.5q-135 0 -230.5 95.5t-95.5 229.5zM771 1625v-1969q0 -115 -24 -233t-74 -235.5t-122 -224t-174.5 -198.5t-224.5 -159.5t-279 -106t-331 -38.5q-221 0 -400 95t-284 271t-105 401
q0 120 42.5 228t120.5 191.5t199.5 133t268.5 49.5q97 0 188 -23t172.5 -71t142 -116t96 -164.5t35.5 -210.5q0 -124 -40.5 -222.5t-107.5 -158.5t-148 -91t-167 -31q-100 0 -184.5 39t-139.5 121.5t-55 193.5q0 117 55 205q22 35 37 63.5t24 59t4.5 51t-26.5 34t-63 13.5
q-82 0 -142 -52t-88.5 -132t-28.5 -175q0 -134 55.5 -249.5t145.5 -191.5t203.5 -119.5t231.5 -43.5q88 0 170 23.5t156 76t128.5 128.5t86.5 188.5t32 249.5l-1 1605q0 267 -31.5 489.5t-86.5 305.5h733z" />
    <glyph glyph-name="k.ss01" horiz-adv-x="3146" 
d="M1824 0h-800q58 114 -66 801q-2 15 -11.5 23t-21.5 8q-27 0 -33 -31q-77 -391 -87 -460v-341h-732q55 82 85.5 304t31.5 491v628q0 283 -30 514.5t-87 315.5h733l-1 -1467q0 2 1 2v5q1 1 1 2q42 189 103 343.5t128.5 256.5t145 171.5t151.5 100t147 30.5h8
q94 -2 162 -48.5t98.5 -115t29.5 -148t-32.5 -147t-101 -112.5t-163.5 -45q-68 0 -124 13t-89.5 31.5t-59.5 37t-46.5 31.5t-37.5 13q-42 0 -87.5 -56t-86.5 -159q79 25 170 25q154 0 282.5 -66.5t149.5 -164.5l33 -154q36 -167 111 -298t171.5 -210.5t204 -120.5t217.5 -41
q118 0 231.5 43.5t203.5 119.5t145.5 191.5t55.5 249.5q0 95 -28.5 175t-88.5 132t-142 52q-41 0 -63 -13.5t-26.5 -34t4.5 -51t24 -59t37 -63.5q55 -88 55 -205q0 -111 -55 -193.5t-139.5 -121.5t-184.5 -39q-86 0 -167 31t-148 91t-107.5 158.5t-40.5 222.5
q0 114 35.5 210.5t96 164.5t142 116t172.5 71t188 23q147 0 268.5 -49.5t199.5 -133t120.5 -191.5t42.5 -228q0 -225 -105 -401t-284 -271t-400 -95q-123 0 -261 33t-248 103z" />
    <glyph glyph-name="l.ss01" horiz-adv-x="2238" 
d="M924 0h-851q55 83 86 305t31 490v628q0 283 -30 514.5t-87 315.5h732l1 -1625q0 -137 33 -249.5t89 -188.5t131.5 -128.5t158.5 -76t171 -23.5q118 0 231.5 43.5t203.5 119.5t145.5 191.5t55.5 249.5q0 95 -28.5 175t-88.5 132t-142 52q-41 0 -63 -13.5t-26.5 -34
t4.5 -51t24 -59t37 -63.5q55 -88 55 -205q0 -111 -55 -193.5t-139.5 -121.5t-184.5 -39q-86 0 -167 31t-148 91t-107.5 158.5t-40.5 222.5q0 114 35.5 210.5t96 164.5t142 116t172.5 71t188 23q147 0 268.5 -49.5t199.5 -133t120.5 -191.5t42.5 -228q0 -225 -105 -401
t-284 -271t-400 -95q-123 0 -260 32.5t-247 103.5z" />
    <glyph glyph-name="m.ss01" horiz-adv-x="4188" 
d="M2735 795q0 -20 1.5 -83.5t1.5 -83.5q0 -137 33 -249.5t89 -188.5t131 -128.5t157.5 -76t170.5 -23.5q118 0 231.5 43.5t203.5 119.5t145.5 191.5t55.5 249.5q0 95 -28.5 175t-88.5 132t-142 52q-41 0 -63 -13.5t-26.5 -34t4.5 -51t24 -59t37 -63.5q55 -88 55 -205
q0 -111 -55 -193.5t-139.5 -121.5t-184.5 -39q-86 0 -167 31t-148 91t-107.5 158.5t-40.5 222.5q0 114 35.5 210.5t96 164.5t142 116t172.5 71t188 23q147 0 268.5 -49.5t199.5 -133t120.5 -191.5t42.5 -228q0 -225 -105 -401t-284 -271t-400 -95q-123 0 -261 33t-248 103
h-849q55 83 86 305t31 490v43q0 107 -10 205.5t-28 177t-47 125.5t-64 47q-47 0 -85 -47.5t-60 -116.5t-37 -155t-20 -155t-5 -124q0 -268 31 -490t86 -305h-849q55 83 86 305t31 490v43q0 107 -10 205.5t-28 177t-47 125.5t-64 47q-58 0 -104.5 -81t-71.5 -206t-29 -268
v-838h-732q57 84 87 305t30 501q0 282 -30 508.5t-87 310.5h732v-346q77 201 219 316.5t343 115.5q89 0 159.5 -20.5t117 -54.5t79.5 -83.5t50 -103t25 -117.5q81 178 217 278.5t323 100.5q110 0 191.5 -31t128 -80.5t75 -120t36.5 -142t7 -155t-9 -149.5t-15 -135t-7 -103z
" />
    <glyph glyph-name="n.ss01" horiz-adv-x="3191" 
d="M1764 795q0 -20 1.5 -83.5t1.5 -83.5q0 -137 33 -249.5t89 -188.5t131 -128.5t157.5 -76t170.5 -23.5q118 0 231.5 43.5t203.5 119.5t145.5 191.5t55.5 249.5q0 95 -28.5 175t-88.5 132t-142 52q-41 0 -63 -13.5t-26.5 -34t4.5 -51t24 -59t37 -63.5q55 -88 55 -205
q0 -111 -55 -193.5t-139.5 -121.5t-184.5 -39q-86 0 -167 31t-148 91t-107.5 158.5t-40.5 222.5q0 114 35.5 210.5t96 164.5t142 116t172.5 71t188 23q147 0 268.5 -49.5t199.5 -133t120.5 -191.5t42.5 -228q0 -225 -105 -401t-284 -271t-400 -95q-123 0 -261 33t-248 103
h-849q55 83 86 305t31 490v43q0 107 -10 205.5t-28 177t-47 125.5t-64 47q-58 0 -104.5 -81t-71.5 -206t-29 -268v-838h-732q57 84 87 305t30 501q0 282 -30 508.5t-87 310.5h732v-346q77 201 219 316.5t343 115.5q110 0 191.5 -31t128 -80.5t75 -120t36.5 -142t7 -155
t-9 -149.5t-15 -135t-7 -103z" />
    <glyph glyph-name="o.ss01" horiz-adv-x="3218" 
d="M915 -81q-165 0 -308.5 50t-247 136t-178.5 200t-111.5 243t-36.5 264q0 133 37.5 261.5t112.5 240.5t179 197t247 134.5t306 49.5q147 0 277 -40.5t228 -111t173 -165.5t120 -205.5t62 -229.5q28 -118 85.5 -209.5t133 -146.5t161 -83t178.5 -28q118 0 231.5 43.5
t203.5 119.5t145.5 191.5t55.5 249.5q0 95 -28.5 175t-88.5 132t-142 52q-41 0 -63 -13.5t-26.5 -34t4.5 -51t24 -59t37 -63.5q55 -88 55 -205q0 -111 -55 -193.5t-139.5 -121.5t-184.5 -39q-86 0 -167 31t-148 91t-107.5 158.5t-40.5 222.5q0 114 35.5 210.5t96 164.5
t142 116t172.5 71t188 23q147 0 268.5 -49.5t199.5 -133t120.5 -191.5t42.5 -228q0 -225 -105 -401t-284 -271t-400 -95q-74 0 -148.5 11.5t-158 39t-162 81.5t-137.5 130q-21 -116 -67.5 -221.5t-121.5 -197t-171.5 -158.5t-223.5 -105.5t-270 -38.5zM918 1611
q-55 1 -96.5 -111t-63 -281.5t-25.5 -372.5q-5 -213 11 -398.5t56.5 -311t98.5 -126.5q44 -1 80 70t58.5 190t35 265t13.5 304q1 202 -16.5 372.5t-57 284.5t-94.5 115z" />
    <glyph glyph-name="p.ss01" horiz-adv-x="3258" 
d="M715 167q0 -268 31 -490t86 -305h-779q55 83 86 305t31 490v628q0 283 -30 514.5t-87 315.5h732v-372q76 206 219.5 324.5t347.5 118.5q118 0 213 -70t155 -188.5t92 -268.5t32 -315q0 -112 -16 -235q5 -135 39.5 -245.5t89.5 -186t128 -127t153.5 -75t168.5 -23.5
q118 0 231.5 43.5t203.5 119.5t145.5 191.5t55.5 249.5q0 95 -28.5 175t-88.5 132t-142 52q-41 0 -63 -13.5t-26.5 -34t4.5 -51t24 -59t37 -63.5q55 -88 55 -205q0 -111 -55 -193.5t-139.5 -121.5t-184.5 -39q-86 0 -167 31t-148 91t-107.5 158.5t-40.5 222.5
q0 114 35.5 210.5t96 164.5t142 116t172.5 71t188 23q147 0 268.5 -49.5t199.5 -133t120.5 -191.5t42.5 -228q0 -225 -105 -401t-284 -271t-400 -95q-79 0 -155.5 14t-159 51t-150 93.5t-123.5 149t-84 210.5q-65 -211 -187.5 -337t-293.5 -126q-104 0 -194 41t-157.5 114
t-116 168.5t-78.5 210.5l-1 2v1l-2 9v1l-1 2v1q-4 9 -14 7q-17 -2 -17 -24v-285zM1144 838q5 219 -37 387t-112 168q-58 0 -104.5 -81t-71.5 -206t-29 -268q-5 -219 37 -387t112 -168q58 0 104.5 81t71.5 206t29 268z" />
    <glyph glyph-name="q.ss01" horiz-adv-x="3178" 
d="M582 1695q176 0 304.5 -110t201.5 -296v334h615v-995q4 -137 38 -249.5t89 -188.5t128.5 -128.5t154.5 -76t169 -23.5q118 0 231.5 43.5t203.5 119.5t145.5 191.5t55.5 249.5q0 95 -28.5 175t-88.5 132t-142 52q-41 0 -63 -13.5t-26.5 -34t4.5 -51t24 -59t37 -63.5
q55 -88 55 -205q0 -111 -55 -193.5t-139.5 -121.5t-184.5 -39q-86 0 -167 31t-148 91t-107.5 158.5t-40.5 222.5q0 114 35.5 210.5t96 164.5t142 116t172.5 71t188 23q147 0 268.5 -49.5t199.5 -133t120.5 -191.5t42.5 -228q0 -225 -105 -401t-284 -271t-400 -95
q-86 0 -170 18t-169.5 58t-159.5 115t-122 178v-31q0 -283 30 -514.5t87 -315.5h-779q57 84 87 315.5t30 514.5v262q0 25 -17 25q-7 0 -12 -6q-31 -122 -83.5 -223t-126.5 -179.5t-175 -122.5t-218 -44q-138 0 -245 98t-161.5 255.5t-78.5 347t6.5 379.5t92 347.5t178 255.5
t264.5 98zM734 776q-5 -219 37 -387t112 -168q58 0 104.5 81t71.5 206t29 268v90q-5 193 -45.5 329t-103.5 136q-58 0 -104.5 -81t-71.5 -206t-29 -268z" />
    <glyph glyph-name="r.ss01" horiz-adv-x="2251" 
d="M795 1279q122 217 308 327t392 109q143 0 275 -53.5t235 -149.5t165 -243.5t62 -322.5q0 -120 -42.5 -228t-120.5 -191.5t-199.5 -133t-268.5 -49.5q-97 0 -188 23t-172.5 71t-142 116t-96 164.5t-35.5 210.5q0 124 40.5 222.5t107.5 158.5t148 91t167 31
q100 0 184.5 -39t139.5 -121.5t55 -193.5q0 -117 -55 -205q-22 -35 -37 -63.5t-24 -59t-4.5 -51t26.5 -34t63 -13.5q82 0 142 52t88.5 132t28.5 175q0 110 -31.5 203.5t-86 160.5t-127.5 114t-157 70t-173 23q-99 0 -194 -30t-181 -93t-151 -153t-103 -219t-38 -281
q0 -280 30 -501t87 -305h-849q57 84 87 305t30 501q0 282 -30 508.5t-87 310.5h732v-346z" />
    <glyph glyph-name="s.ss01" horiz-adv-x="2972" 
d="M615 233q-63 -92 -63 -145q0 -33 35 -53t86 -20q41 0 82 13.5t77 40t58 72.5t22 104q0 71 -50 146t-141 129l-326 194q-137 82 -227.5 214t-90.5 263q0 100 44.5 184.5t120 143t175.5 99.5t210.5 60t225.5 19q128 0 244.5 -24.5t208.5 -70t146.5 -117.5t54.5 -161
q0 -96 -81 -163.5t-212 -67.5q-125 0 -199.5 62t-74.5 169q0 44 11 73.5t23.5 41t23.5 28.5t11 40q0 56 -55.5 88t-132.5 32q-94 0 -164.5 -46.5t-70.5 -131.5q0 -62 44 -127t127 -112l418 -235q85 -48 146 -95t112 -109t76.5 -139.5t25.5 -171.5q25 -127 81 -224.5
t132 -156t164 -88t184 -29.5q118 0 231.5 43.5t203.5 119.5t145.5 191.5t55.5 249.5q0 95 -28.5 175t-88.5 132t-142 52q-41 0 -63 -13.5t-26.5 -34t4.5 -51t24 -59t37 -63.5q55 -88 55 -205q0 -111 -55 -193.5t-139.5 -121.5t-184.5 -39q-86 0 -167 31t-148 91
t-107.5 158.5t-40.5 222.5q0 114 35.5 210.5t96 164.5t142 116t172.5 71t188 23q147 0 268.5 -49.5t199.5 -133t120.5 -191.5t42.5 -228q0 -225 -105 -401t-284 -271t-400 -95q-72 0 -141.5 11.5t-145.5 41.5t-140 76t-121 120t-93 168q-40 -89 -121 -160t-185.5 -114.5
t-222.5 -66t-241 -22.5q-132 0 -252 26t-215 74.5t-151 125.5t-56 172q0 126 93 195.5t219 69.5q108 0 189.5 -50.5t92.5 -142.5q3 -11 3 -35q0 -68 -35 -120z" />
    <glyph glyph-name="t.ss01" horiz-adv-x="2196" 
d="M490 -81q-68 0 -127.5 19.5t-109 59.5t-78 110t-28.5 162v1248h-114v107q120 0 227 26.5t199 81t158.5 145t97.5 209.5h47v-462h130v-107h-130v-853q0 -145 32 -263.5t87 -199t129.5 -135.5t157.5 -80t173 -25q118 0 231.5 43.5t203.5 119.5t145.5 191.5t55.5 249.5
q0 95 -28.5 175t-88.5 132t-142 52q-41 0 -63 -13.5t-26.5 -34t4.5 -51t24 -59t37 -63.5q55 -88 55 -205q0 -111 -55 -193.5t-139.5 -121.5t-184.5 -39q-86 0 -167 31t-148 91t-107.5 158.5t-40.5 222.5q0 114 35.5 210.5t96 164.5t142 116t172.5 71t188 23
q147 0 268.5 -49.5t199.5 -133t120.5 -191.5t42.5 -228q0 -225 -105 -401t-284 -271t-400 -95q-156 0 -296 65t-239 155q-51 -68 -160.5 -116.5t-197.5 -48.5z" />
    <glyph glyph-name="u.ss01" horiz-adv-x="3201" 
d="M1871 0h-662v456q0 26 -18 26q-7 0 -12 -7q-42 -166 -120 -289.5t-202 -197.5t-280 -74q-110 0 -191.5 31t-128 80.5t-75 120t-36.5 142t-7 155t9 149.5t15 135t7 103q0 268 -31 490t-86 305h732v-838q0 -107 10 -205.5t28 -177t47 -125.5t64 -47q58 0 104.5 81t71.5 206
t29 268v32q0 280 -30 501t-87 305h732v-997q0 -137 33 -249.5t89 -188.5t131.5 -128.5t158.5 -76t171 -23.5q118 0 231.5 43.5t203.5 119.5t145.5 191.5t55.5 249.5q0 95 -28.5 175t-88.5 132t-142 52q-41 0 -63 -13.5t-26.5 -34t4.5 -51t24 -59t37 -63.5q55 -88 55 -205
q0 -111 -55 -193.5t-139.5 -121.5t-184.5 -39q-86 0 -167 31t-148 91t-107.5 158.5t-40.5 222.5q0 114 35.5 210.5t96 164.5t142 116t172.5 71t188 23q147 0 268.5 -49.5t199.5 -133t120.5 -191.5t42.5 -228q0 -225 -105 -401t-284 -271t-400 -95q-119 0 -256.5 33
t-251.5 103z" />
    <glyph glyph-name="v.ss01" horiz-adv-x="3128" 
d="M1319 1049q-24 -3 -41 -3q-135 0 -230.5 95.5t-95.5 229.5t95.5 229t230.5 95q90 0 161 -33.5t114.5 -92.5t70 -140.5t28 -176.5t-12.5 -201q0 -107 36.5 -203.5t98.5 -168t142.5 -124t172.5 -79.5t186 -27q118 0 231.5 43.5t203.5 119.5t145.5 191.5t55.5 249.5
q0 95 -28.5 175t-88.5 132t-142 52q-41 0 -63 -13.5t-26.5 -34t4.5 -51t24 -59t37 -63.5q55 -88 55 -205q0 -111 -55 -193.5t-139.5 -121.5t-184.5 -39q-86 0 -167 31t-148 91t-107.5 158.5t-40.5 222.5q0 114 35.5 210.5t96 164.5t142 116t172.5 71t188 23
q147 0 268.5 -49.5t199.5 -133t120.5 -191.5t42.5 -228q0 -225 -105 -401t-284 -271t-400 -95q-80 0 -163.5 14.5t-172 48t-164.5 83.5t-140.5 127.5t-99.5 173.5q-46 -135 -114.5 -261t-164 -239t-205.5 -197t-246 -133t-280 -49q-110 0 -191.5 31t-128 80.5t-75 120
t-36.5 142t-7 155t9 149.5t15 135t7 103q0 267 -31 487t-86 303h732v-1055q0 -204 57.5 -298t158.5 -94q76 0 162.5 74t158 183.5t127.5 229t82 218.5q23 86 -11.5 128t-128.5 42q-16 0 -62 -4z" />
    <glyph glyph-name="w.ss01" horiz-adv-x="4113" 
d="M2611 1053q0 -134 55.5 -249.5t145.5 -191.5t203.5 -119.5t231.5 -43.5t231.5 43.5t203.5 119.5t145.5 191.5t55.5 249.5q0 95 -28.5 175t-88.5 132t-142 52q-41 0 -63 -13.5t-26.5 -34t4.5 -51t24 -59t37 -63.5q55 -88 55 -205q0 -111 -55 -193.5t-139.5 -121.5
t-184.5 -39q-86 0 -167 31t-148 91t-107.5 158.5t-40.5 222.5q0 114 35.5 210.5t96 164.5t142 116t172.5 71t188 23q147 0 268.5 -49.5t199.5 -133t120.5 -191.5t42.5 -228q0 -225 -105 -401t-284 -271t-400 -95q-67 0 -136 10.5t-142.5 31.5t-142.5 57.5t-130 84.5
t-110.5 116t-79.5 148q-46 -135 -114.5 -261t-163.5 -239t-205.5 -197t-246.5 -133.5t-280 -49.5q-382 0 -431 375q-81 -178 -217 -279t-323 -101q-110 0 -191.5 31t-128 80.5t-75 120t-36.5 142t-7 155t9 149.5t15 135t7 103q0 268 -31 490t-86 305h732v-838
q0 -107 10 -205.5t28 -177t47 -125.5t64 -47q61 0 108 86.5t73 227.5q3 45 14.5 148.5t11.5 140.5q0 267 -31 487t-86 303h732v-1055q0 -204 57.5 -298t158.5 -94q76 0 162.5 74t158 183.5t127.5 229t82 218.5q23 86 -11.5 128t-128.5 42q-16 0 -62 -4q-24 -3 -41 -3
q-135 0 -230.5 95.5t-95.5 229.5t95.5 229t230.5 95q90 0 160.5 -33.5t114 -92.5t70 -140t28 -176t-11.5 -200h1z" />
    <glyph glyph-name="x.ss01" horiz-adv-x="2960" 
d="M1707 0h-779l-296 650l-46 -81q-99 -180 -79.5 -337.5t142.5 -232.5h-720q300 232 489 493q36 52 176 263l-18 40q-120 268 -270 504.5t-253 325.5h857l163 -434l68 -168l18 32q99 180 79.5 337.5t-142.5 232.5h720q-300 -232 -489 -493q-64 -91 -144 -215l57 -122
q37 -79 74.5 -150.5t90.5 -157.5t107.5 -158t123.5 -142t139.5 -118t155.5 -77.5t171 -29.5q118 0 231.5 43.5t203.5 119.5t145.5 191.5t55.5 249.5q0 95 -28.5 175t-88.5 132t-142 52q-41 0 -63 -13.5t-26.5 -34t4.5 -51t24 -59t37 -63.5q55 -88 55 -205q0 -111 -55 -193.5
t-139.5 -121.5t-184.5 -39q-86 0 -167 31t-148 91t-107.5 158.5t-40.5 222.5q0 114 35.5 210.5t96 164.5t142 116t172.5 71t188 23q147 0 268.5 -49.5t199.5 -133t120.5 -191.5t42.5 -228q0 -225 -105 -401t-284 -271t-400 -95q-259 0 -437 136z" />
    <glyph glyph-name="y.ss01" horiz-adv-x="1837" 
d="M595 -1539q-221 0 -400 95t-284 271t-105 401q0 120 42.5 228t120.5 191.5t199.5 133t268.5 49.5q97 0 188 -23t172.5 -71t142 -116t96 -164.5t35.5 -210.5q0 -124 -40.5 -222.5t-107.5 -158.5t-148 -91t-167 -31q-100 0 -184.5 39t-139.5 121.5t-55 193.5q0 117 55 205
q22 35 37 63.5t24 59t4.5 51t-26.5 34t-63 13.5q-82 0 -142 -52t-88.5 -132t-28.5 -175q0 -134 55.5 -249.5t145.5 -191.5t203.5 -119.5t231.5 -43.5q88 0 170 23.5t156 76t128.5 128.5t86.5 188.5t32 249.5l-1 1231q0 26 -18 26q-7 0 -12 -7q-42 -166 -120 -289.5
t-202 -197.5t-280 -74q-110 0 -191.5 31t-128 80.5t-75 120t-36.5 142t-7 155t9 149.5t15 135t7 103q0 268 -31 490t-86 305h732v-838q0 -107 10 -205.5t28 -177t47 -125.5t64 -47q58 0 104.5 81t71.5 206t29 268v32q0 280 -30 501t-87 305h732v-1969q0 -116 -20 -233
t-64 -235.5t-108.5 -224.5t-159.5 -198.5t-211 -159.5t-269 -105.5t-327 -38.5z" />
    <glyph glyph-name="z.ss01" horiz-adv-x="2649" 
d="M1645 -217q-166 0 -413.5 34t-453 74.5t-398.5 74.5t-263 34h-64q67 59 157 194.5t221 357.5l599 1021q-215 53 -372 53q-113 0 -113 -76q0 -35 16.5 -65.5t40 -54.5t47 -50t40 -64t16.5 -85q0 -117 -80.5 -191.5t-199.5 -74.5q-99 0 -172 47t-108 120.5t-35 160.5
q0 79 29 151.5t85.5 134t153 98.5t218.5 37q124 0 246.5 -14t205 -31t196 -31t223.5 -14l342 1q-67 -59 -157 -194.5t-221 -357.5l-615 -1047q1 0 81 -24t143 -39.5t161.5 -37t202 -33t199.5 -11.5q175 0 328.5 55.5t259.5 148.5t167 218.5t61 262.5q0 95 -28.5 175
t-88.5 132t-142 52q-41 0 -63 -13.5t-26.5 -34t4.5 -51t24 -59t37 -63.5q55 -88 55 -205q0 -111 -55 -193.5t-139.5 -121.5t-184.5 -39q-86 0 -167 31t-148 91t-107.5 158.5t-40.5 222.5q0 114 35.5 210.5t96 164.5t142 116t172.5 71t188 23q147 0 268.5 -49.5t199.5 -133
t120.5 -191.5t42.5 -228q0 -173 -67 -326.5t-188.5 -269.5t-306.5 -184t-407 -68z" />
    <glyph glyph-name="t_t" horiz-adv-x="1782" 
d="M147 270v1248h-114v107q120 0 227 26.5t199 81t158.5 145t97.5 209.5h47v-462h127q120 0 227 26.5t199 81t158.5 145t97.5 209.5h47v-462h130v-107h-130v-1126q0 -210 125 -230q-19 -100 -139 -171.5t-258 -71.5q-68 0 -127.5 19.5t-109 59.5t-78 110t-28.5 162v1248
h-241v-1126q0 -210 125 -230q-19 -100 -139 -171.5t-258 -71.5q-68 0 -127.5 19.5t-109 59.5t-78 110t-28.5 162z" />
    <glyph glyph-name="t_t.ss01" horiz-adv-x="1782" 
d="M1435 1598q40 -22 63.5 -38.5t52.5 -48.5t44.5 -71.5t26 -103t10.5 -147.5v-806q0 -7 1.5 -18t11 -39t25 -49.5t48.5 -39.5t77 -18q-54 -142 -158 -219.5t-222 -77.5q-61 0 -118.5 20.5t-108.5 63.5t-89 104.5t-60 149.5t-22 193v1077h-275v-1122q0 -82 40 -135t123 -54
q-55 -144 -162 -222t-228 -78q-75 0 -144 31.5t-124 90.5t-87.5 155.5t-32.5 215.5v1116h-114v107h153q84 0 161 30t133.5 76.5t105.5 110t80.5 122.5t55.5 123h40v-462q195 0 333 51t240 155q76 76 134 171t143 262h40v-421q96 49 230 124.5t232 132t228.5 120t242 104.5
t247 68.5t268.5 27.5q314 0 469 -167q106 -115 106 -269q0 -131 -76 -217q-67 -76 -164 -76q-257 258 -586 258q-129 0 -275 -28.5t-286.5 -73.5t-274.5 -92.5t-285 -95t-273 -71.5z" />
    <glyph glyph-name="i_t" horiz-adv-x="1856" 
d="M1684 2121v-496h130v-107h-130v-1126q0 -210 125 -230q-19 -100 -139 -171.5t-258 -71.5q-68 0 -127.5 19.5t-109 59.5t-78 110t-28.5 162v1248h-114v107q143 0 265.5 99t191.5 258.5t69 334.5q0 145 -43.5 268.5t-118.5 210t-174 147.5t-209.5 90t-226.5 29
q-139 0 -266.5 -42.5t-229.5 -122.5t-163 -207.5t-61 -284.5q0 -95 28.5 -175t88.5 -132t142 -52q41 0 63 13.5t26.5 34t-4.5 51t-24 59t-37 63.5q-55 88 -55 205q0 111 55 193.5t139.5 121.5t184.5 39q86 0 167 -31t148 -91t107.5 -158.5t40.5 -222.5q0 -114 -35.5 -210.5
t-96 -164.5t-142 -116t-172.5 -71t-188 -23q-147 0 -268.5 49.5t-199.5 133t-120.5 191.5t-42.5 228q0 155 52 287t141.5 225.5t209 159.5t254 97.5t276.5 31.5q146 0 282.5 -37t260 -118t215 -198.5t145.5 -289t54 -377.5zM795 806q0 -280 30 -501t87 -305h-849
q57 84 87 305t30 501q0 282 -30 508.5t-87 310.5h732v-819z" />
    <glyph glyph-name="V_i" horiz-adv-x="2770" 
d="M1540 1550q28 116 57.5 218t69.5 209.5t83 194.5t98 165.5t115.5 131.5t134.5 84t155 31q100 0 181 -31.5t131 -84.5t76.5 -118t26.5 -136q0 -70 -26.5 -135t-76.5 -117.5t-131 -84t-181 -31.5q-61 0 -175.5 53t-167.5 53q-38 0 -71 -18.5t-66.5 -62.5t-65.5 -124.5
t-60 -196.5l-318 -1292q-19 -76 -26 -113.5t-3.5 -79.5t25.5 -65h-690q32 83 -7 313.5t-124 516.5l-149 503q-78 265 -176.5 488.5t-178.5 306.5h849q-30 -81 3 -293.5t109 -471.5l158 -533q67 -222 147 -425zM2586 806q0 -280 30 -501t87 -305h-849q57 84 87 305t30 501
q0 282 -30 508.5t-87 310.5h732v-819z" />
    <glyph glyph-name="W.ss01_i" horiz-adv-x="3739" 
d="M2600 1550l-175 -719q-138 -566 -66 -831h-654q31 83 -3.5 305t-113.5 490l-138 468l-315 -1263h-512q31 82 -3.5 304t-113.5 491l-148 503q-83 284 -181 515t-179 315h849q-32 -84 5.5 -316t120.5 -514l148 -503q21 -73 61 -192l193 786q8 30 16 66q-77 238 -159 419.5
t-152 253.5h849q-32 -84 5.5 -316t120.5 -514l148 -503q21 -73 61 -192l229 947q28 116 57.5 218t69.5 209.5t83 194.5t98 165.5t115.5 131.5t134.5 84t155 31q100 0 181 -31.5t131 -84.5t76.5 -118t26.5 -136q0 -70 -26.5 -135t-76.5 -117.5t-131 -84t-181 -31.5
q-61 0 -175.5 53t-167.5 53q-38 0 -71 -18.5t-66.5 -62.5t-65.5 -124.5t-60 -196.5zM3572 806q0 -280 30 -501t87 -305h-849q57 84 87 305t30 501q0 282 -30 508.5t-87 310.5h732v-819z" />
    <glyph glyph-name="y.alt.ss01" horiz-adv-x="1819" 
d="M-287 -1347q96 0 193 41.5t175.5 99.5t165.5 160.5t145.5 183.5t135.5 212t115 202t103 196l77 146l-364 901q-110 272 -252 496.5t-247 333.5h894q-2 -9 -2 -30q0 -90 62 -278t162 -419l95 -221l73 169q81 186 123 376t42 316q0 53 -8 87h411q-45 -42 -98 -124
t-116.5 -210.5t-110 -229t-119.5 -266.5l-300 -678q-65 -149 -103 -233t-115.5 -242.5t-141 -268t-153 -240.5t-179.5 -230q-335 -370 -705 -370q-133 0 -251.5 29.5t-216 89.5t-168.5 144.5t-110 199.5t-39 250q0 119 42 227.5t119.5 192t197 133t263.5 49.5
q99 0 192.5 -23t175.5 -71t143 -116.5t96.5 -165.5t35.5 -211q0 -123 -40.5 -221.5t-107.5 -158t-148 -90.5t-167 -31q-74 0 -141.5 23.5t-121 67t-85 112t-31.5 153.5q0 115 55 203q67 107 67 159q0 62 -89 62q-83 0 -143.5 -52.5t-89 -134t-28.5 -179.5q0 -105 36 -192.5
t96.5 -147.5t142 -101.5t171.5 -60.5t186 -19z" />
    <glyph glyph-name="s_a" horiz-adv-x="2654" 
d="M615 233q-63 -92 -63 -145q0 -33 35 -53t86 -20q41 0 82 13.5t77 40t58 72.5t22 104q0 71 -50 146t-141 129l-326 194q-137 82 -227.5 214t-90.5 263q0 100 44.5 184.5t120 143t175.5 99.5t210.5 60.5t225.5 19.5q211 0 377 -62q175 59 477 59q121 0 228.5 -16.5
t208 -56.5t173 -101.5t116 -158t43.5 -218.5v-752q0 -210 125 -230q-37 -112 -137 -177t-215 -65q-63 0 -118.5 21t-100.5 62t-71.5 110t-26.5 157v182q0 12 -5.5 18.5t-12.5 5.5q-17 -2 -17 -24v-26q-3 -99 -33.5 -183t-79 -142.5t-112 -100t-133.5 -61t-144 -19.5
q-140 0 -253 68q-189 -70 -415 -70q-178 0 -328.5 44t-248 136.5t-97.5 217.5q0 126 93 195.5t219 69.5q108 0 189.5 -50.5t92.5 -142.5q3 -11 3 -35q0 -68 -35 -120zM1861 972v386q0 139 -52 203t-129 64q-65 0 -117.5 -38.5t-52.5 -86.5q0 -28 11.5 -50t25.5 -36
t25.5 -45.5t11.5 -75.5q0 -76 -47.5 -131.5t-119.5 -81t-155 -25.5t-155 25.5t-119.5 81.5t-47.5 132q0 44 11 78.5t23.5 51t23.5 38.5t11 45q0 56 -55.5 88t-132.5 32q-94 0 -164.5 -46.5t-70.5 -131.5q0 -62 44 -127t127 -112l418 -235q69 -39 107 -66q163 72 376 72
q136 0 203 -9zM1861 624v279q-77 0 -138.5 -32.5t-97 -85.5t-54 -115t-18.5 -126q0 -97 37 -163.5t101 -66.5q68 0 119 80.5t51 229.5z" />
    <glyph glyph-name="g.ss02" horiz-adv-x="1832" 
d="M1124 1687q124 -18 240 -68.5t211 -128t152 -189t57 -238.5q0 -103 -38 -201t-104 -178.5t-154.5 -152.5t-189 -126.5t-208 -97t-211.5 -68.5t-199 -36q-18 0 -18 -18t19 -18h360q295 0 476.5 -127.5t181.5 -323.5q0 -106 -56.5 -208t-158.5 -184t-260 -132.5t-344 -50.5
q-154 0 -283 29.5t-216 78t-147 113t-87.5 133t-27.5 138.5q0 133 94 225t254 92q136 0 218 -70.5t82 -201.5q0 -56 -15.5 -103t-49.5 -113q-37 -73 -47 -101q-8 -24 -8 -39q0 -40 36.5 -63t96.5 -23q107 0 170 102t63 248q0 115 -26 203.5t-74.5 147.5t-108 96t-137.5 60
q-64 19 -142 19q-108 0 -213 -35v121q154 0 304.5 55t238.5 150q-169 8 -306 49.5t-228.5 104.5t-153.5 147t-89 174.5t-27 188.5q0 96 33 186t104 170.5t173 140.5t250.5 95t326.5 35h98q103 176 225.5 311t239.5 216.5t245.5 133.5t238.5 71t225 19q98 0 176.5 -30.5
t127 -81.5t74 -113t25.5 -130q0 -134 -94.5 -227.5t-266.5 -93.5q-55 0 -99 13.5t-80.5 44.5t-55.5 53t-53 66q-32 43 -53.5 67t-53 49.5t-68.5 37t-83 11.5t-89 -7t-77.5 -17t-70 -30.5t-61 -36.5t-56.5 -46t-49.5 -49.5t-47 -56.5t-43 -57t-42.5 -60zM930 1640
q-44 0 -77.5 -52.5t-50.5 -124t-28 -161t-13.5 -146.5t-2.5 -98q0 -118 8.5 -219.5t27 -188.5t51 -137.5t76.5 -50.5q38 0 69 38.5t49.5 102.5t32 134t19.5 145.5t8.5 124t2.5 81.5q0 110 -11 208t-31.5 175.5t-54 123t-75.5 45.5z" />
    <glyph glyph-name="t.ss02" horiz-adv-x="934" 
d="M762 1853q96 49 230 124.5t232 132t228 120t241.5 104.5t247 68.5t268.5 27.5q314 0 469 -167q106 -115 106 -269q0 -131 -76 -217q-67 -76 -164 -76q-257 258 -586 258q-129 0 -275 -28.5t-286.5 -73.5t-274.5 -92.5t-285 -95t-273 -71.5q33 -18 53.5 -31.5t46 -36.5
t41 -51.5t30 -68.5t21 -95.5t6.5 -125.5v-797q0 -210 125 -230q-19 -100 -139 -171.5t-258 -71.5q-68 0 -127.5 19.5t-109 59.5t-78 110t-28.5 162v1248h-114v107q120 0 227 26.5t199 81t158.5 145t97.5 209.5h47v-234z" />
    <glyph glyph-name="r_a" horiz-adv-x="2800" 
d="M1007 1393q-62 0 -111 -81t-75 -207t-26 -267v-32q0 -280 30 -501t87 -305h-849q57 84 87 305t30 501q0 282 -30 508.5t-87 310.5h732v-346q33 87 81.5 153.5t96.5 110.5t122.5 74t130.5 45.5t151.5 23t154 9t167.5 1.5q74 0 132.5 -1.5t137 -8t140 -17.5t132 -31.5
t123 -48.5t103.5 -70.5t83.5 -95t52 -123.5t19.5 -156v-752q0 -210 125 -230q-37 -112 -137 -177t-215 -65q-63 0 -118.5 21t-100.5 62t-71.5 110t-26.5 157v182q0 12 -5.5 18.5t-12.5 5.5q-17 -2 -17 -24v-26q0 -99 -29 -183t-78 -142.5t-114 -100t-136 -61t-145 -19.5
q-71 0 -138.5 18.5t-126.5 56.5t-103.5 91.5t-70 129t-25.5 163.5q0 92 27 178t85 163.5t141.5 135t204 91.5t265.5 34q140 0 207 -9v386q0 139 -52 203t-129 64q-65 0 -117.5 -38.5t-52.5 -86.5q16 -48 16 -102q0 -133 -92.5 -226.5t-222.5 -93.5q-122 0 -190 58.5
t-97 178.5q-7 29 -11.5 42t-17.5 24.5t-34 11.5zM2007 624v279q-77 0 -138.5 -32.5t-97 -85.5t-54 -115t-18.5 -126q0 -96 37 -163t100 -67q69 0 120 80.5t51 229.5z" />
    <glyph glyph-name="c_a" horiz-adv-x="2589" 
d="M2589 162q-37 -112 -137 -177t-215 -65q-63 0 -118.5 21t-100.5 62t-71.5 110t-26.5 157v182q0 12 -5.5 18.5t-12.5 5.5q-17 -2 -17 -24v-26q-3 -99 -33.5 -183t-79 -142.5t-112 -100t-133.5 -61t-144 -19.5q-118 0 -221 50q-138 -51 -300 -51q-165 0 -306.5 50.5
t-242.5 136.5t-172.5 200.5t-106.5 243.5t-35 264q0 112 26 219t76 205.5t129.5 181.5t180 144.5t233.5 96t285 34.5q199 0 343 -68q173 68 423 68q121 0 228.5 -16.5t208 -56.5t173 -101.5t116 -158t43.5 -218.5v-752q0 -210 125 -230zM1849 972v386q0 139 -52 203t-129 64
q-65 0 -117.5 -38.5t-52.5 -86.5q0 -28 11.5 -52.5t25.5 -41.5t25.5 -51.5t11.5 -78.5q0 -130 -88 -203t-208 -73t-208.5 73t-88.5 203q0 96 60 181q2 12 2 21q0 38 -13.5 66t-33.5 41.5t-37.5 19.5t-31.5 6q-39 0 -71.5 -26.5t-55 -75t-40 -105.5t-27.5 -128t-17 -132.5
t-10 -129t-4 -107t-1 -77.5q0 -231 65.5 -378.5t174.5 -215.5q-20 69 -20 148q0 91 27 176t85 162t142 134.5t205.5 91t267.5 33.5q136 0 203 -9zM1849 624v279q-77 0 -138.5 -32.5t-97 -85.5t-54 -115t-18.5 -126q0 -97 37 -163.5t101 -66.5q68 0 119 80.5t51 229.5z" />
    <glyph glyph-name="a.ss03" horiz-adv-x="1756" 
d="M1591 -325h-262q-232 0 -471.5 -19.5t-440.5 -47.5t-441 -80.5t-407.5 -94.5t-410 -115t-379.5 -117.5t-380 -124.5q-200 -66 -307.5 -101t-290.5 -92t-299 -87.5t-279 -69t-289 -58t-271 -33.5t-279 -14q-164 0 -302 35.5t-233 94.5t-162 138t-98 165t-31 176
q0 97 37.5 184.5t107 156.5t179 110t243.5 41q18 -226 185.5 -347t434.5 -121q225 0 468.5 18t545.5 59t497.5 71.5t565.5 92.5q323 54 497 81.5t476.5 71t514.5 65.5t478.5 39t502.5 17q-134 63 -195.5 165t-61.5 248v270q0 12 -5.5 18.5t-12.5 5.5q-17 -2 -17 -33v-17
q0 -99 -29 -183t-78 -142.5t-114 -100t-136 -61t-145 -19.5q-71 0 -138.5 18.5t-126.5 56.5t-103.5 91.5t-70 129t-25.5 163.5q0 92 27 178t85 163.5t141.5 135t204 91.5t265.5 34q140 0 207 -9v386q0 139 -52 203t-129 64q-66 0 -118 -40t-52 -93q0 -30 31 -77
q43 -65 43 -135q0 -90 -44 -155t-109.5 -95t-142.5 -30q-76 0 -142.5 29.5t-110.5 92t-44 146.5q0 63 24.5 123t80 115.5t136.5 97t202 66.5t269 25q122 0 230 -16.5t209.5 -56.5t174 -101.5t116 -158t43.5 -218.5v-840q0 -141 11.5 -251t40.5 -185.5t73 -75.5l28 35
q46 60 79 85.5t65 25.5q65 0 101.5 -44.5t36.5 -104.5t-36.5 -104t-101.5 -44q-147 0 -284 34zM963 624v279q-77 0 -138.5 -32.5t-97 -85.5t-54 -115t-18.5 -126q0 -96 37 -163t100 -67q69 0 120 80.5t51 229.5z" />
    <glyph glyph-name="b.ss03" horiz-adv-x="1887" 
d="M760 452q-1 12 -7 18t-13 5q-15 0 -15 -20v-455h-544v1423q0 282 -30.5 514t-87.5 316h732v-1000q76 206 219.5 324.5t347.5 118.5q118 0 213 -70t155 -189.5t92 -270.5t32 -319q0 -167 -31.5 -323.5t-91.5 -287t-158 -215.5t-221 -99q111 -58 212 -94t139 -36l28 35
q46 60 79 85.5t65 25.5q65 0 101.5 -44.5t36.5 -104.5t-36.5 -104t-101.5 -44q-147 0 -284 34h-262q-232 0 -471.5 -19.5t-440.5 -47.5t-441 -80.5t-407.5 -94.5t-410 -115t-379.5 -117.5t-380 -124.5q-200 -66 -307.5 -101t-290.5 -92t-299 -87.5t-279 -69t-289 -58
t-271 -33.5t-279 -14q-164 0 -302 35.5t-233 94.5t-162 138t-98 165t-31 176q0 97 37.5 184.5t107 156.5t179 110t243.5 41q18 -226 185.5 -347t434.5 -121q225 0 468.5 18t545.5 59t497.5 71.5t565.5 92.5q323 54 497 81.5t476.5 71t514.5 65.5t478.5 39t502.5 17
q-195 92 -335.5 277.5t-195.5 405.5zM1154 842q0 105 -10 203t-28 176t-47 125t-64 47q-58 0 -106 -81t-73.5 -208t-25.5 -270q0 -105 10 -203t28 -176t47 -125t64 -47q58 0 106 81t73.5 208t25.5 270z" />
    <glyph glyph-name="c.ss03" horiz-adv-x="1646" 
d="M963 1695q134 0 244 -32t180 -82t118.5 -114t68.5 -125t20 -118q0 -118 -84 -199.5t-220 -81.5q-132 0 -210.5 79.5t-78.5 215.5q0 81 46 159q28 48 28 90q0 46 -24 76t-48 39t-44 9q-39 0 -71.5 -26.5t-55 -75t-40 -105.5t-27.5 -128t-17 -132.5t-10 -129t-4 -107
t-1 -77.5q0 -137 43.5 -272.5t116.5 -248t170.5 -210t204.5 -164.5t220 -105t215 -38l28 35q46 60 79 85.5t65 25.5q65 0 101.5 -44.5t36.5 -104.5t-36.5 -104t-101.5 -44q-147 0 -284 34h-262q-232 0 -471.5 -19.5t-440.5 -47.5t-441 -80.5t-407.5 -94.5t-410 -115
t-379.5 -117.5t-380 -124.5q-200 -66 -307.5 -101t-290.5 -92t-299 -87.5t-279 -69t-289 -58t-271 -33.5t-279 -14q-164 0 -302 35.5t-233 94.5t-162 138t-98 165t-31 176q0 97 37.5 184.5t107 156.5t179 110t243.5 41q18 -226 185.5 -347t434.5 -121q225 0 468.5 18
t545.5 59t497.5 71.5t565.5 92.5q323 54 497 81.5t476.5 71t514.5 65.5t478.5 39t502.5 17q-127 60 -236 164q-81 -14 -164 -14q-163 0 -304 50.5t-241 136.5t-172 199.5t-106.5 242t-34.5 261.5q0 136 36 264t112 241t184 197.5t262 134t336 49.5z" />
    <glyph glyph-name="d.ss03" horiz-adv-x="1883" 
d="M1703 304q0 -141 11.5 -251t40.5 -185.5t73 -75.5l28 35q46 60 79 85.5t65 25.5q65 0 101.5 -44.5t36.5 -104.5t-36.5 -104t-101.5 -44q-147 0 -284 34h-262q-232 0 -471.5 -19.5t-440.5 -47.5t-441 -80.5t-407.5 -94.5t-410 -115t-379.5 -117.5t-380 -124.5
q-200 -66 -307.5 -101t-290.5 -92t-299 -87.5t-279 -69t-289 -58t-271 -33.5t-279 -14q-164 0 -302 35.5t-233 94.5t-162 138t-98 165t-31 176q0 97 37.5 184.5t107 156.5t179 110t243.5 41q18 -226 185.5 -347t434.5 -121q225 0 468.5 18t545.5 59t497.5 71.5t565.5 92.5
q323 54 497 81.5t476.5 71t514.5 65.5t478.5 39t502.5 17q-134 63 -196 165.5t-62 247.5v297q0 25 -11 25q-12 0 -20 -25q-32 -120 -84.5 -219.5t-126 -176.5t-173.5 -120.5t-217 -43.5q-118 0 -214 72.5t-155.5 194.5t-91 273.5t-31.5 317.5q0 138 21.5 269.5t66.5 249
t108.5 205.5t154 140t197.5 52q176 0 304.5 -109.5t201.5 -295.5v135q0 283 -30 514.5t-87 315.5h732v-1949zM734 788q0 -105 10 -203t28 -176t47 -125t64 -47q58 0 106 80.5t73.5 207t25.5 267.5v90q0 189 -42.5 327t-106.5 138q-58 0 -106 -81t-73.5 -208t-25.5 -270z" />
    <glyph glyph-name="e.ss03" horiz-adv-x="1676" 
d="M33 808q0 135 36 264t108.5 241.5t174.5 198t243.5 134.5t304.5 49q142 0 262 -32.5t204 -87.5t143 -129t87 -156t28 -169q0 -106 -43 -203.5t-123 -175.5t-209 -125t-287 -47q-135 0 -207 25q66 -213 227 -400.5t355.5 -295t365.5 -107.5l28 35q46 60 79 85.5t65 25.5
q65 0 101.5 -44.5t36.5 -104.5t-36.5 -104t-101.5 -44q-147 0 -284 34h-262q-232 0 -471.5 -19.5t-440.5 -47.5t-441 -80.5t-407.5 -94.5t-410 -115t-379.5 -117.5t-380 -124.5q-200 -66 -307.5 -101t-290.5 -92t-299 -87.5t-279 -69t-289 -58t-271 -33.5t-279 -14
q-164 0 -302 35.5t-233 94.5t-162 138t-98 165t-31 176q0 97 37.5 184.5t107 156.5t179 110t243.5 41q18 -226 185.5 -347t434.5 -121q225 0 468.5 18t545.5 59t497.5 71.5t565.5 92.5q323 54 497 81.5t476.5 71t514.5 65.5t478.5 39t502.5 17q-127 60 -236 164
q-81 -14 -164 -14q-163 0 -304 50.5t-241 136.5t-172 199.5t-106.5 241.5t-34.5 261zM742 667q38 -10 74 -10q66 0 116 38t77.5 104t41 144.5t13.5 169.5q0 184 -45.5 341t-98.5 157q-42 0 -87 -103t-76 -273.5t-31 -342.5q0 -119 16 -225z" />
    <glyph glyph-name="f.ss03" horiz-adv-x="1014" 
d="M509 -231q-34 16 -94 74q-39 36 -62.5 55.5t-68.5 47.5t-100 41t-121 13q55 83 86.5 305.5t31.5 489.5v723h-116v107h116v290q0 99 28 182.5t76 142t112 99t135.5 60t147.5 19.5q91 0 163 -28t116 -75t67 -104.5t23 -119.5q0 -79 -28 -142.5t-75 -102t-103.5 -58.5
t-116.5 -20q-109 0 -186 60t-77 164q0 12 -5.5 18.5t-12.5 5.5q-17 -2 -17 -24q0 -176 97 -271.5t240 -95.5h244v-107h-213v-1214q0 -141 11.5 -251t40.5 -185.5t73 -75.5l28 35q46 60 79 85.5t65 25.5q65 0 101.5 -44.5t36.5 -104.5t-36.5 -104t-101.5 -44q-147 0 -284 34
h-262q-232 0 -471.5 -19.5t-440.5 -47.5t-441 -80.5t-407.5 -94.5t-410 -115t-379.5 -117.5t-380 -124.5q-200 -66 -307.5 -101t-290.5 -92t-299 -87.5t-279 -69t-289 -58t-271 -33.5t-279 -14q-164 0 -302 35.5t-233 94.5t-162 138t-98 165t-31 176q0 97 37.5 184.5
t107 156.5t179 110t243.5 41q18 -226 185.5 -347t434.5 -121q225 0 468.5 18t545.5 59t497.5 71.5t565.5 92.5q323 54 497 81.5t476.5 71t514.5 65.5t478.5 39t502.5 17z" />
    <glyph glyph-name="g.ss03" horiz-adv-x="1832" 
d="M312 198q154 0 304.5 55t238.5 150q-169 8 -306 49.5t-228.5 104.5t-153.5 147t-89 174.5t-27 188.5q0 96 33 186t104 170.5t173 140.5t250.5 95t326.5 35h98q17 79 44.5 159t72.5 166.5t100 152t131 108t161 42.5q99 0 171 -46.5t105 -116t33 -151.5t-33.5 -152.5
t-105.5 -117.5t-169 -47q-120 0 -198 68q-86 74 -150 74q-51 0 -66 -51l-28 -96q165 -23 296.5 -84t214 -146t126 -184.5t43.5 -204.5q0 -104 -38 -203t-104 -179.5t-154.5 -152.5t-189 -127t-208 -97.5t-211 -68.5t-199.5 -36q-18 0 -18 -18t19 -18h360q295 0 476.5 -127.5
t181.5 -323.5q0 -106 -56.5 -208t-158.5 -184t-260 -132.5t-344 -50.5q-154 0 -283 29.5t-216 78t-147 113t-87.5 133t-27.5 138.5q0 122 78 209q-170 -13 -353 -44t-338 -66.5t-351 -96.5t-331.5 -107t-343 -126.5t-321.5 -126.5t-328 -134q-201 -83 -307 -126
t-288.5 -113.5t-296 -108.5t-273.5 -86.5t-280 -73t-255.5 -42t-256.5 -17.5q-164 0 -302 35.5t-233 94.5t-162 138t-98 165t-31 176q0 97 37.5 184.5t107 156.5t179 110t243.5 41q18 -226 185.5 -347t434.5 -121q164 0 358.5 21t352.5 47.5t399.5 81.5t380 89.5
t413.5 105.5q250 65 385 98.5t368.5 89t398 85.5t371 62.5t396.5 47t373 14.5q11 1 33 1q138 0 220.5 -70.5t82.5 -201.5q0 -56 -15.5 -103t-49.5 -113q-37 -73 -47 -101q-8 -24 -8 -39q0 -40 36.5 -63t96.5 -23q107 0 170 102t63 248q0 115 -26 203.5t-74.5 147.5t-108 96
t-137.5 60q-64 19 -142 19q-108 0 -213 -35v121zM930 1640q-44 0 -77.5 -52.5t-50.5 -124t-28 -161t-13.5 -146.5t-2.5 -98q0 -118 8.5 -219.5t27 -188.5t51 -137.5t76.5 -50.5q38 0 69 38.5t49.5 102.5t32 134t19.5 145.5t8.5 124t2.5 81.5q0 110 -11 208t-31.5 175.5
t-54 123t-75.5 45.5z" />
    <glyph glyph-name="h.ss03" horiz-adv-x="1924" 
d="M1774 304q0 -141 11.5 -251t40.5 -185.5t73 -75.5l28 35q46 60 79 85.5t65 25.5q65 0 101.5 -44.5t36.5 -104.5t-36.5 -104t-101.5 -44q-147 0 -284 34h-262q-232 0 -471.5 -19.5t-440.5 -47.5t-441 -80.5t-407.5 -94.5t-410 -115t-379.5 -117.5t-380 -124.5
q-200 -66 -307.5 -101t-290.5 -92t-299 -87.5t-279 -69t-289 -58t-271 -33.5t-279 -14q-164 0 -302 35.5t-233 94.5t-162 138t-98 165t-31 176q0 97 37.5 184.5t107 156.5t179 110t243.5 41q18 -226 185.5 -347t434.5 -121q225 0 468.5 18t545.5 59t497.5 71.5t565.5 92.5
q323 54 497 81.5t476.5 71t514.5 65.5t478.5 39t502.5 17q-34 16 -94 74q-39 36 -62.5 55.5t-68.5 47.5t-100 41t-121 13q55 83 86.5 305.5t31.5 489.5v43q0 107 -10 205.5t-28 177t-47 125.5t-64 47q-58 0 -106 -80.5t-73.5 -207t-25.5 -267.5v-838h-732q57 84 87 316.5
t30 515.5v591q0 283 -30 514.5t-87 315.5h732v-974q77 201 219 316.5t343 115.5q106 0 185.5 -29t127 -75t76.5 -114t39 -135t10 -148q0 -99 -19 -268q-12 -96 -12 -147v-491z" />
    <glyph glyph-name="i.ss03" horiz-adv-x="965" 
d="M133 2094q0 134 95.5 229t230.5 95q134 0 228.5 -95t94.5 -229t-95 -229.5t-228 -95.5q-135 0 -230.5 95.5t-95.5 229.5zM795 304q0 -142 11 -251t39.5 -185t72.5 -76l28 35q46 60 79 85.5t65 25.5q65 0 101.5 -44.5t36.5 -104.5t-36.5 -104t-101.5 -44q-147 0 -284 34
h-262q-232 0 -471.5 -19.5t-440.5 -47.5t-441 -80.5t-407.5 -94.5t-410 -115t-379.5 -117.5t-380 -124.5q-200 -66 -307.5 -101t-290.5 -92t-299 -87.5t-279 -69t-289 -58t-271 -33.5t-279 -14q-164 0 -302 35.5t-233 94.5t-162 138t-98 165t-31 176q0 97 37.5 184.5
t107 156.5t179 110t243.5 41q18 -226 185.5 -347t434.5 -121q225 0 468.5 18t545.5 59t497.5 71.5t565.5 92.5q323 54 497 81.5t476.5 71t514.5 65.5t478.5 39t502.5 17q-34 16 -94 74q-39 36 -62.5 55.5t-68.5 47.5t-100 41t-121 13q55 83 87.5 311.5t32.5 494.5
q0 282 -30 508.5t-87 310.5h732v-1321z" />
    <glyph glyph-name="j.ss03" horiz-adv-x="854" 
d="M113 2094q0 134 95.5 229t230.5 95q134 0 228.5 -95t94.5 -229t-95 -229.5t-228 -95.5q-135 0 -230.5 95.5t-95.5 229.5zM771 1625v-1915q0 -99 -28 -182.5t-76 -142t-112 -99t-135.5 -60t-147.5 -19.5q-91 0 -163 28.5t-116 76t-67 106t-23 123.5q0 122 75 209
q-153 -12 -319 -40t-309 -60t-324.5 -87t-308.5 -97t-321.5 -115t-303.5 -116t-311 -123q-199 -79 -299.5 -118.5t-282 -107.5t-290.5 -103.5t-266.5 -82.5t-273 -69.5t-247.5 -39.5t-248 -17q-164 0 -302 35.5t-233 94.5t-162 138t-98 165t-31 176q0 97 37.5 184.5
t107 156.5t179 110t243.5 41q18 -226 185.5 -347t434.5 -121q155 0 338.5 18.5t333 41.5t376.5 70.5t359 78t391 92.5q286 68 439.5 103.5t422 90.5t456.5 83t424 50t444 22q111 0 190.5 -59.5t79.5 -164.5q0 -12 5.5 -18.5t12.5 -5.5q17 2 17 24q0 176 -97 271t-240 95h-31
v831q0 267 -31.5 489.5t-86.5 305.5h733z" />
    <glyph glyph-name="k.ss03" horiz-adv-x="1803" 
d="M1882 -208l28 35q46 60 79 85.5t65 25.5q65 0 101.5 -44.5t36.5 -104.5t-36.5 -104t-101.5 -44q-147 0 -284 34h-262q-232 0 -471.5 -19.5t-440.5 -47.5t-441 -80.5t-407.5 -94.5t-410 -115t-379.5 -117.5t-380 -124.5q-200 -66 -307.5 -101t-290.5 -92t-299 -87.5
t-279 -69t-289 -58t-271 -33.5t-279 -14q-164 0 -302 35.5t-233 94.5t-162 138t-98 165t-31 176q0 97 37.5 184.5t107 156.5t179 110t243.5 41q18 -226 185.5 -347t434.5 -121q225 0 468.5 18t545.5 59t497.5 71.5t565.5 92.5q323 54 497 81.5t476.5 71t514.5 65.5t478.5 39
t502.5 17q-34 16 -94 74q-39 36 -62.5 55.5t-68.5 47.5t-100 41t-121 13q19 37 19 131q0 196 -85 670q-2 15 -11.5 23t-21.5 8q-27 0 -33 -31l-25 -123q-43 -213 -62 -337v-341h-732q55 83 86 305t31 490v628q0 283 -30 514.5t-87 315.5h733v-1467q1 2 1 5v4
q42 189 103 343.5t128.5 256.5t145 171.5t151.5 100t147 30.5h8q70 0 127 -26t92 -69t53.5 -96.5t18.5 -112.5q0 -126 -79 -219t-219 -93q-57 0 -103.5 8t-83.5 25t-55.5 28t-46.5 31q-48 34 -69 34q-41 0 -86.5 -56t-86.5 -159q79 25 170 25q155 0 283.5 -66.5
t148.5 -164.5q56 -279 157.5 -594.5t170.5 -399.5z" />
    <glyph glyph-name="l.ss03" horiz-adv-x="995" 
d="M805 305q0 -142 11 -251t39.5 -185t72.5 -76l28 35q46 60 79 85.5t65 25.5q65 0 101.5 -44.5t36.5 -104.5t-36.5 -104t-101.5 -44q-147 0 -284 34h-262q-232 0 -471.5 -19.5t-440.5 -47.5t-441 -80.5t-407.5 -94.5t-410 -115t-379.5 -117.5t-380 -124.5
q-200 -66 -307.5 -101t-290.5 -92t-299 -87.5t-279 -69t-289 -58t-271 -33.5t-279 -14q-164 0 -302 35.5t-233 94.5t-162 138t-98 165t-31 176q0 97 37.5 184.5t107 156.5t179 110t243.5 41q18 -226 185.5 -347t434.5 -121q225 0 468.5 18t545.5 59t497.5 71.5t565.5 92.5
q323 54 497 81.5t476.5 71t514.5 65.5t478.5 39t502.5 17q-34 16 -94 74q-39 36 -62.5 55.5t-68.5 47.5t-100 41t-121 13q55 83 87.5 311.5t32.5 494.5v616q0 283 -30 514.5t-87 315.5h732v-1948z" />
    <glyph glyph-name="m.ss03" horiz-adv-x="2905" 
d="M2735 795v-491q0 -141 11.5 -251t40.5 -185.5t73 -75.5l28 35q46 60 79 85.5t65 25.5q65 0 101.5 -44.5t36.5 -104.5t-36.5 -104t-101.5 -44q-147 0 -284 34h-262q-232 0 -471.5 -19.5t-440.5 -47.5t-441 -80.5t-407.5 -94.5t-410 -115t-379.5 -117.5t-380 -124.5
q-200 -66 -307.5 -101t-290.5 -92t-299 -87.5t-279 -69t-289 -58t-271 -33.5t-279 -14q-164 0 -302 35.5t-233 94.5t-162 138t-98 165t-31 176q0 97 37.5 184.5t107 156.5t179 110t243.5 41q18 -226 185.5 -347t434.5 -121q225 0 468.5 18t545.5 59t497.5 71.5t565.5 92.5
q323 54 497 81.5t476.5 71t514.5 65.5t478.5 39t502.5 17q-34 16 -94 74q-39 36 -62.5 55.5t-68.5 47.5t-100 41t-121 13q55 83 86.5 305.5t31.5 489.5v43q0 107 -10 205.5t-28 177t-47 125.5t-64 47q-47 0 -85 -47.5t-60 -116.5t-37 -155t-20 -155t-5 -124q0 -268 31 -490
t86 -305h-849q55 83 86 305t31 490v43q0 107 -10 205.5t-28 177t-47 125.5t-64 47q-58 0 -106 -80.5t-73.5 -207t-25.5 -267.5v-838h-732q57 84 87 305t30 501q0 282 -30 508.5t-87 310.5h732v-346q77 201 219 316.5t343 115.5q89 0 159.5 -20.5t117 -54.5t79.5 -83.5
t50 -103t25 -117.5q81 178 217 278.5t323 100.5q106 0 185.5 -29t127 -75t76.5 -114t39 -135t10 -148q0 -99 -19 -268q-12 -96 -12 -147z" />
    <glyph glyph-name="n.ss03" horiz-adv-x="1934" 
d="M1764 795v-491q0 -141 11.5 -251t40.5 -185.5t73 -75.5l28 35q46 60 79 85.5t65 25.5q65 0 101.5 -44.5t36.5 -104.5t-36.5 -104t-101.5 -44q-147 0 -284 34h-262q-232 0 -471.5 -19.5t-440.5 -47.5t-441 -80.5t-407.5 -94.5t-410 -115t-379.5 -117.5t-380 -124.5
q-200 -66 -307.5 -101t-290.5 -92t-299 -87.5t-279 -69t-289 -58t-271 -33.5t-279 -14q-164 0 -302 35.5t-233 94.5t-162 138t-98 165t-31 176q0 97 37.5 184.5t107 156.5t179 110t243.5 41q18 -226 185.5 -347t434.5 -121q225 0 468.5 18t545.5 59t497.5 71.5t565.5 92.5
q323 54 497 81.5t476.5 71t514.5 65.5t478.5 39t502.5 17q-34 16 -94 74q-39 36 -62.5 55.5t-68.5 47.5t-100 41t-121 13q55 83 86.5 305.5t31.5 489.5v43q0 107 -10 205.5t-28 177t-47 125.5t-64 47q-58 0 -106 -80.5t-73.5 -207t-25.5 -267.5v-838h-732q57 84 87 305
t30 501q0 282 -30 508.5t-87 310.5h732v-346q77 201 219 316.5t343 115.5q106 0 185.5 -29t127 -75t76.5 -114t39 -135t10 -148q0 -99 -19 -268q-12 -96 -12 -147z" />
    <glyph glyph-name="o.ss03" horiz-adv-x="1817" 
d="M915 -81q-311 -9 -621 -59.5t-577.5 -128t-532 -175t-505.5 -203t-475 -210.5t-464 -199t-449 -166t-452.5 -114.5t-454.5 -42.5q-385 0 -613 185q-165 135 -203 327q-36 180 54 335q93 161 287 223q99 31 216 31q18 -226 185.5 -347t434.5 -121q245 0 513.5 37.5t521 99
t515 136t534.5 152.5t538.5 145t567 117t582.5 65q-153 74 -264 203t-165.5 283.5t-54.5 319.5q0 133 37.5 261.5t112.5 240.5t179 197t247 134.5t306 49.5t304 -49.5t243.5 -134.5t176 -197.5t109.5 -240.5t36 -261q0 -135 -35.5 -264t-108.5 -243t-175 -200t-244 -136
t-306 -50zM918 1611q-55 1 -96.5 -111t-63 -281.5t-25.5 -372.5q-5 -213 11 -398.5t56.5 -311t98.5 -126.5q44 -1 80 70t58.5 190t35 265t13.5 304q1 202 -16.5 372.5t-57 284.5t-94.5 115z" />
    <glyph glyph-name="p.ss03" horiz-adv-x="1877" 
d="M715 167q0 -268 31 -490t86 -305h-779q-385 0 -776 -40.5t-723.5 -104.5t-657.5 -142t-624.5 -156t-577 -142t-562 -104.5t-533.5 -40.5q-385 0 -613 185q-165 135 -203 327q-36 180 54 335q93 161 287 223q99 31 216 31q18 -226 185.5 -347t434.5 -121q305 0 795.5 38
t936.5 83t995 83t956 38q256 0 462 -14q65 248 65 664v628q0 283 -30 514.5t-87 315.5h732v-372q76 206 219.5 324.5t347.5 118.5q118 0 213 -70t155 -188.5t92 -268.5t32 -315q0 -141 -21 -274.5t-65.5 -253.5t-108 -210.5t-154.5 -143.5t-199 -53q-104 0 -194 41
t-157.5 114t-116 168.5t-78.5 210.5l-1 2v1l-2 9v1l-1 2v1q-4 9 -14 7q-17 -2 -17 -24v-285zM1144 838q5 219 -37 387t-112 168q-58 0 -104.5 -81t-71.5 -206t-29 -268q-5 -219 37 -387t112 -168q58 0 104.5 81t71.5 206t29 268z" />
    <glyph glyph-name="q.ss03" horiz-adv-x="1800" 
d="M1355 -509q-40 22 -63.5 38.5t-52.5 48.5t-44.5 71.5t-26 103t-10.5 147.5v564q0 25 -17 25q-7 0 -12 -6q-31 -122 -83.5 -223t-126.5 -179.5t-175 -122.5t-218 -44q-138 0 -245 98t-161.5 255.5t-78.5 347t6.5 379.5t92 347.5t178 255.5t264.5 98q176 0 304.5 -110
t201.5 -296v334h615v-1421q0 -283 30 -514.5t87 -315.5h-779q-385 0 -776 -40.5t-723.5 -104.5t-657.5 -142t-624.5 -156t-577 -142t-562 -104.5t-533.5 -40.5q-385 0 -613 185q-165 135 -203 327q-36 180 54 335q93 161 287 223q99 31 216 31q18 -226 185.5 -347
t434.5 -121q286 0 794.5 39.5t985.5 86.5t1044.5 86.5t957.5 39.5q383 0 625 -36zM734 776q-5 -219 37 -387t112 -168q58 0 104.5 81t71.5 206t29 268v90q-5 193 -45.5 329t-103.5 136q-58 0 -104.5 -81t-71.5 -206t-29 -268z" />
    <glyph glyph-name="r.ss03" horiz-adv-x="1691" 
d="M180 806q0 282 -30 508.5t-87 310.5h732v-346q77 201 219 316.5t343 115.5q141 0 228 -90.5t87 -219.5q0 -135 -92.5 -229t-222.5 -94q-122 0 -190.5 59t-96.5 178q-7 29 -11.5 42t-17.5 24.5t-34 11.5q-62 0 -111 -81t-75 -207t-26 -267v-534q0 -142 11 -251t39.5 -185
t72.5 -76l28 35q46 60 79 85.5t65 25.5q65 0 101.5 -44.5t36.5 -104.5t-36.5 -104t-101.5 -44q-147 0 -284 34h-262q-232 0 -471.5 -19.5t-440.5 -47.5t-441 -80.5t-407.5 -94.5t-410 -115t-379.5 -117.5t-380 -124.5q-200 -66 -307.5 -101t-290.5 -92t-299 -87.5t-279 -69
t-289 -58t-271 -33.5t-279 -14q-164 0 -302 35.5t-233 94.5t-162 138t-98 165t-31 176q0 97 37.5 184.5t107 156.5t179 110t243.5 41q18 -226 185.5 -347t434.5 -121q225 0 468.5 18t545.5 59t497.5 71.5t565.5 92.5q323 54 497 81.5t476.5 71t514.5 65.5t478.5 39t502.5 17
q-34 16 -94 74q-39 36 -62.5 55.5t-68.5 47.5t-100 41t-121 13q55 83 87.5 311.5t32.5 494.5z" />
    <glyph glyph-name="s.ss03" horiz-adv-x="1588" 
d="M615 233q-63 -92 -63 -145q0 -33 35 -53t86 -20q41 0 82 13.5t77 40t58 72.5t22 104q0 71 -50 146t-141 129l-326 194q-137 82 -227.5 214t-90.5 263q0 100 44.5 184.5t120 143t175.5 99.5t210.5 60t225.5 19q128 0 244.5 -24.5t208.5 -70t146.5 -117.5t54.5 -161
q0 -96 -81 -163.5t-212 -67.5q-125 0 -199.5 62t-74.5 169q0 44 11 73.5t23.5 41t23.5 28.5t11 40q0 56 -55.5 88t-132.5 32q-94 0 -164.5 -46.5t-70.5 -131.5q0 -62 44 -127t127 -112l418 -235q80 -45 138 -89t112 -105.5t82 -141.5t28 -177q0 -114 -53 -207.5
t-140.5 -154.5t-204 -102.5t-239 -59.5t-251.5 -18q-302 0 -621.5 -44.5t-611.5 -119.5t-590 -172.5t-577.5 -205.5t-552 -215.5t-536.5 -205t-507.5 -172.5t-488 -119.5t-457.5 -44.5q-385 0 -613 185q-165 135 -203 327q-36 180 54 335q93 161 287 223q99 31 216 31
q18 -226 185.5 -347t434.5 -121q244 0 533.5 37t578 98t595.5 135t626.5 151.5t627 144.5t641 116.5t627.5 65.5q-114 52 -178 131.5t-64 182.5q0 126 93 195.5t219 69.5q108 0 189.5 -50.5t92.5 -142.5q3 -11 3 -35q0 -68 -35 -120z" />
    <glyph glyph-name="t.ss03" horiz-adv-x="934" 
d="M763 304q0 -141 11.5 -251t40.5 -185.5t73 -75.5l28 35q46 60 79 85.5t65 25.5q65 0 101.5 -44.5t36.5 -104.5t-36.5 -104t-101.5 -44q-147 0 -284 34h-262q-233 0 -474.5 -19.5t-445 -47.5t-447 -80.5t-414.5 -94.5t-418 -115t-387.5 -117.5t-388.5 -124.5
q-240 -78 -367.5 -118.5t-339.5 -103.5t-355.5 -96.5t-323 -69.5t-340.5 -51.5t-316 -15.5q-164 0 -302 35.5t-233 94.5t-162 138t-98 165t-31 176q0 97 37.5 184.5t107 156.5t179 110t243.5 41q18 -226 185.5 -347t434.5 -121q225 0 468.5 18t545.5 59t497.5 71.5
t565.5 92.5q323 54 497 81.5t476.5 71t514.5 65.5t478.5 39t502.5 17q-134 63 -195.5 165t-61.5 248v1336h-114v107q120 0 227 26.5t199 81t158.5 145t97.5 209.5h47v-462h130v-107h-129v-1214z" />
    <glyph glyph-name="u.ss03" horiz-adv-x="1904" 
d="M1754 304q0 -141 11 -251t40 -185.5t73 -75.5l28 35q46 60 79 85.5t65 25.5q65 0 101.5 -44.5t36.5 -104.5t-36.5 -104t-101.5 -44q-147 0 -284 34h-262q-232 0 -471.5 -19.5t-440.5 -47.5t-441 -80.5t-407.5 -94.5t-410 -115t-379.5 -117.5t-380 -124.5
q-200 -66 -307.5 -101t-290.5 -92t-299 -87.5t-279 -69t-289 -58t-271 -33.5t-279 -14q-164 0 -302 35.5t-233 94.5t-162 138t-98 165t-31 176q0 97 37.5 184.5t107 156.5t179 110t243.5 41q18 -226 185.5 -347t434.5 -121q225 0 468.5 18t545.5 59t497.5 71.5t565.5 92.5
q323 54 497 81.5t476.5 71t514.5 65.5t478.5 39t502.5 17q-134 63 -195.5 165t-61.5 248v274q0 26 -18 26q-7 0 -12 -7q-42 -166 -120 -289.5t-202 -197.5t-280 -74q-106 0 -185.5 29t-127 75t-76.5 114t-39 135t-10 148q0 99 19 268q12 96 12 147q0 268 -31 490t-86 305
h732v-838q0 -107 10 -205.5t28 -177t47 -125.5t64 -47q58 0 106 80.5t73.5 207t25.5 267.5v32q0 280 -30 501t-87 305h732v-1321z" />
    <glyph glyph-name="v.ss03" horiz-adv-x="1685" 
d="M1319 1049q-24 -3 -41 -3q-135 0 -230.5 95.5t-95.5 229.5t95.5 229t230.5 95q234 0 339 -190q98 -177 59 -460q-39 -291 -205 -561q-178 -290 -436 -439q-221 -126 -468 -126q-291 -12 -602.5 -64t-598 -130t-581 -175.5t-571.5 -202.5t-547.5 -209t-532 -197
t-502.5 -164.5t-480.5 -113.5t-446.5 -42q-385 0 -613 185q-165 135 -203 327q-36 180 54 335q93 161 287 223q99 31 216 31q18 -226 185.5 -347t434.5 -121q243 0 531.5 37t576 97.5t593.5 134t624.5 150.5t625 144t638.5 117.5t626 66.5q-58 45 -93.5 116t-46.5 144.5
t-11.5 162t7.5 158t15.5 144t7.5 109.5q0 267 -31 487t-86 303h732v-1002q0 -204 57.5 -298t158.5 -94q61 0 130 43t129.5 113t115.5 156t94.5 174.5t60.5 165.5q23 86 -11.5 128t-128.5 42q-16 0 -62 -4z" />
    <glyph glyph-name="w.ss03" horiz-adv-x="2656" 
d="M2290 1049q-24 -3 -41 -3q-135 0 -230.5 95.5t-95.5 229.5t95.5 229t230.5 95q230 0 335 -189q99 -177 63 -459q-37 -293 -200 -562q-176 -291 -437 -440q-221 -126 -472 -126q-382 0 -431 375q-81 -178 -217 -279t-323 -101q-37 0 -70 3q-371 -13 -770.5 -92
t-755.5 -194t-716 -251t-698 -269.5t-651 -243.5t-625.5 -178t-575.5 -68q-385 0 -613 185q-165 135 -203 327q-36 180 54 335q93 161 287 223q99 31 216 31q18 -226 185.5 -347t434.5 -121q243 0 531 37t575 97t592.5 134t623.5 151t624 144t638 117t625 67
q-67 54 -102.5 140.5t-40 186.5t0.5 187.5t16 182.5t11 132q0 268 -31 490t-86 305h732v-838q0 -107 10 -205.5t28 -177t47 -125.5t64 -47q61 0 108 86.5t73 227.5q3 45 14.5 148.5t11.5 140.5q0 267 -31 487t-86 303h732v-998q0 -204 57.5 -298t158.5 -94q76 0 162.5 65
t157.5 163.5t127.5 210.5t82.5 209q23 86 -11.5 128t-128.5 42q-16 0 -62 -4z" />
    <glyph glyph-name="x.ss03" horiz-adv-x="1849" 
d="M0 45q94 82 215 208t203 239q36 52 176 263l-18 40q-120 268 -270 504.5t-253 325.5h857l163 -434l68 -168l18 32q99 180 79.5 337.5t-142.5 232.5h720q-300 -232 -489 -493q-64 -91 -144 -215l57 -122q123 -263 268 -453t341 -342h-921l-296 650l-46 -81
q-99 -180 -79.5 -337.5t142.5 -232.5q-302 0 -621.5 -47t-612 -127t-590 -183.5t-577.5 -217.5t-552.5 -228t-537 -217.5t-508 -183.5t-488 -127t-457.5 -47q-385 0 -613 185q-165 135 -203 327q-36 180 54 335q93 161 287 223q99 31 216 31q18 -226 185.5 -347t434.5 -121
q227 0 494.5 35.5t537 94.5t553 132t582 153t583.5 151t597.5 132.5t586.5 92.5z" />
    <glyph glyph-name="y.ss03" horiz-adv-x="1837" 
d="M785 1625v-838q0 -107 10 -205.5t28 -177t47 -125.5t64 -47q58 0 104.5 81t71.5 206t29 268v32q0 280 -30 501t-87 305h732v-1811q0 -674 -729 -674q-148 0 -267.5 25t-195.5 65.5t-127 96t-72.5 113t-21.5 119.5q0 99 57 171q-256 -18 -531.5 -73t-529 -132.5
t-514.5 -173.5t-508 -197t-489.5 -201t-477.5 -188.5t-453.5 -157t-437 -108t-408.5 -39.5q-385 0 -613 185q-165 135 -203 327q-36 180 54 335q93 161 287 223q99 31 216 31q18 -226 185.5 -347t434.5 -121q243 0 534 41t579 106t597 144.5t627 158.5t627 144.5t640 106.5
t625 41q120 0 207.5 -73t87.5 -203q0 -44 -11.5 -78.5t-25.5 -51.5t-25.5 -41.5t-11.5 -52.5q0 -48 52.5 -86.5t117.5 -38.5q179 0 179 337v909q0 26 -18 26q-7 0 -12 -7q-42 -166 -120 -289.5t-202 -197.5t-280 -74q-110 0 -191.5 31t-128 80.5t-75 120t-36.5 142t-7 155
t9 149.5t15 135t7 103q0 268 -31 490t-86 305h732z" />
    <glyph glyph-name="z.ss03" horiz-adv-x="1883" 
d="M816 26q151 -41 292 -41q104 0 168.5 26t64.5 80q0 37 -29 52q-71 38 -108 106.5t-37 149.5q0 58 21.5 113t60.5 99t101.5 71t138.5 27q86 0 154 -28t107.5 -74t59.5 -100.5t19 -113.5q-4 -222 -191.5 -350t-504.5 -128q-176 0 -431.5 42.5t-435.5 42.5
q-270 0 -553.5 -49t-540 -131.5t-517.5 -189.5t-506 -225t-484 -236.5t-473 -225.5t-452.5 -189.5t-442.5 -131t-423 -48.5q-385 0 -613 185q-165 135 -203 327q-36 180 54 335q93 161 287 223q99 31 216 31q18 -226 185.5 -347t434.5 -121q236 0 507.5 46.5t534 121
t540.5 165.5t566 184.5t569.5 172t591.5 133t594 64.5q99 126 293 458l599 1021q-215 53 -372 53q-113 0 -113 -76q0 -35 16.5 -65.5t40 -54.5t47 -50t40 -64t16.5 -85q0 -117 -80.5 -191.5t-199.5 -74.5q-99 0 -172 47t-108 120.5t-35 160.5q0 79 29 151.5t85.5 134
t153 98.5t218.5 37q124 0 246.5 -14t205 -31t196 -31t223.5 -14l342 1q-67 -59 -157 -194.5t-221 -357.5z" />
    </font>
</defs>
</svg>
